G04 #@! TF.GenerationSoftware,KiCad,Pcbnew,5.0.2+dfsg1-1~bpo9+1*
G04 #@! TF.CreationDate,2019-05-11T00:16:23+03:00*
G04 #@! TF.ProjectId,esp32-rfm-gateway,65737033-322d-4726-966d-2d6761746577,rev?*
G04 #@! TF.SameCoordinates,Original*
G04 #@! TF.FileFunction,Soldermask,Top*
G04 #@! TF.FilePolarity,Negative*
%FSLAX46Y46*%
G04 Gerber Fmt 4.6, Leading zero omitted, Abs format (unit mm)*
G04 Created by KiCad (PCBNEW 5.0.2+dfsg1-1~bpo9+1) date Sb 11 mai 2019 00:16:23 +0300*
%MOMM*%
%LPD*%
G01*
G04 APERTURE LIST*
%ADD10C,0.100000*%
G04 APERTURE END LIST*
D10*
G36*
X129765077Y-128403734D02*
X130398398Y-128666064D01*
X130968369Y-129046906D01*
X131453094Y-129531631D01*
X131833936Y-130101602D01*
X132096266Y-130734923D01*
X132230000Y-131407248D01*
X132230000Y-132092752D01*
X132096266Y-132765077D01*
X131833936Y-133398398D01*
X131453094Y-133968369D01*
X130968369Y-134453094D01*
X130398398Y-134833936D01*
X129765077Y-135096266D01*
X129092752Y-135230000D01*
X128407248Y-135230000D01*
X127734923Y-135096266D01*
X127101602Y-134833936D01*
X126531631Y-134453094D01*
X126046906Y-133968369D01*
X125666064Y-133398398D01*
X125403734Y-132765077D01*
X125270000Y-132092752D01*
X125270000Y-131407248D01*
X125403734Y-130734923D01*
X125666064Y-130101602D01*
X126046906Y-129531631D01*
X126531631Y-129046906D01*
X127101602Y-128666064D01*
X127734923Y-128403734D01*
X128407248Y-128270000D01*
X129092752Y-128270000D01*
X129765077Y-128403734D01*
X129765077Y-128403734D01*
G37*
G36*
X44765077Y-128403734D02*
X45398398Y-128666064D01*
X45968369Y-129046906D01*
X46453094Y-129531631D01*
X46833936Y-130101602D01*
X47096266Y-130734923D01*
X47230000Y-131407248D01*
X47230000Y-132092752D01*
X47096266Y-132765077D01*
X46833936Y-133398398D01*
X46453094Y-133968369D01*
X45968369Y-134453094D01*
X45398398Y-134833936D01*
X44765077Y-135096266D01*
X44092752Y-135230000D01*
X43407248Y-135230000D01*
X42734923Y-135096266D01*
X42101602Y-134833936D01*
X41531631Y-134453094D01*
X41046906Y-133968369D01*
X40666064Y-133398398D01*
X40403734Y-132765077D01*
X40270000Y-132092752D01*
X40270000Y-131407248D01*
X40403734Y-130734923D01*
X40666064Y-130101602D01*
X41046906Y-129531631D01*
X41531631Y-129046906D01*
X42101602Y-128666064D01*
X42734923Y-128403734D01*
X43407248Y-128270000D01*
X44092752Y-128270000D01*
X44765077Y-128403734D01*
X44765077Y-128403734D01*
G37*
G36*
X107161713Y-126975626D02*
X107161716Y-126975627D01*
X107161717Y-126975627D01*
X107236924Y-126998441D01*
X107365299Y-127037383D01*
X107552921Y-127137669D01*
X107717371Y-127272629D01*
X107852331Y-127437079D01*
X107952617Y-127624701D01*
X108014374Y-127828287D01*
X108035226Y-128040000D01*
X108014374Y-128251713D01*
X107952617Y-128455299D01*
X107852331Y-128642921D01*
X107717371Y-128807371D01*
X107552921Y-128942331D01*
X107365299Y-129042617D01*
X107351153Y-129046908D01*
X107161717Y-129104373D01*
X107161716Y-129104373D01*
X107161713Y-129104374D01*
X107003056Y-129120000D01*
X106496944Y-129120000D01*
X106338287Y-129104374D01*
X106338284Y-129104373D01*
X106338283Y-129104373D01*
X106148847Y-129046908D01*
X106134701Y-129042617D01*
X105947079Y-128942331D01*
X105782629Y-128807371D01*
X105647669Y-128642921D01*
X105547383Y-128455299D01*
X105485626Y-128251713D01*
X105464774Y-128040000D01*
X105485626Y-127828287D01*
X105547383Y-127624701D01*
X105647669Y-127437079D01*
X105782629Y-127272629D01*
X105947079Y-127137669D01*
X106134701Y-127037383D01*
X106263076Y-126998441D01*
X106338283Y-126975627D01*
X106338284Y-126975627D01*
X106338287Y-126975626D01*
X106496944Y-126960000D01*
X107003056Y-126960000D01*
X107161713Y-126975626D01*
X107161713Y-126975626D01*
G37*
G36*
X112046270Y-127474018D02*
X112077242Y-127483414D01*
X112105782Y-127498669D01*
X112130800Y-127519200D01*
X112151331Y-127544218D01*
X112166586Y-127572758D01*
X112175982Y-127603730D01*
X112180000Y-127644529D01*
X112180000Y-128855471D01*
X112175982Y-128896270D01*
X112166586Y-128927242D01*
X112151331Y-128955782D01*
X112130800Y-128980800D01*
X112105782Y-129001331D01*
X112077242Y-129016586D01*
X112046270Y-129025982D01*
X112005471Y-129030000D01*
X110594529Y-129030000D01*
X110553730Y-129025982D01*
X110522758Y-129016586D01*
X110494218Y-129001331D01*
X110469200Y-128980800D01*
X110448669Y-128955782D01*
X110433414Y-128927242D01*
X110424018Y-128896270D01*
X110420000Y-128855471D01*
X110420000Y-127644529D01*
X110424018Y-127603730D01*
X110433414Y-127572758D01*
X110448669Y-127544218D01*
X110469200Y-127519200D01*
X110494218Y-127498669D01*
X110522758Y-127483414D01*
X110553730Y-127474018D01*
X110594529Y-127470000D01*
X112005471Y-127470000D01*
X112046270Y-127474018D01*
X112046270Y-127474018D01*
G37*
G36*
X114446270Y-127474018D02*
X114477242Y-127483414D01*
X114505782Y-127498669D01*
X114530800Y-127519200D01*
X114551331Y-127544218D01*
X114566586Y-127572758D01*
X114575982Y-127603730D01*
X114580000Y-127644529D01*
X114580000Y-128855471D01*
X114575982Y-128896270D01*
X114566586Y-128927242D01*
X114551331Y-128955782D01*
X114530800Y-128980800D01*
X114505782Y-129001331D01*
X114477242Y-129016586D01*
X114446270Y-129025982D01*
X114405471Y-129030000D01*
X112994529Y-129030000D01*
X112953730Y-129025982D01*
X112922758Y-129016586D01*
X112894218Y-129001331D01*
X112869200Y-128980800D01*
X112848669Y-128955782D01*
X112833414Y-128927242D01*
X112824018Y-128896270D01*
X112820000Y-128855471D01*
X112820000Y-127644529D01*
X112824018Y-127603730D01*
X112833414Y-127572758D01*
X112848669Y-127544218D01*
X112869200Y-127519200D01*
X112894218Y-127498669D01*
X112922758Y-127483414D01*
X112953730Y-127474018D01*
X112994529Y-127470000D01*
X114405471Y-127470000D01*
X114446270Y-127474018D01*
X114446270Y-127474018D01*
G37*
G36*
X98856710Y-124499932D02*
X98856711Y-124499932D01*
X98856714Y-124499933D01*
X99225418Y-124652656D01*
X99235251Y-124656729D01*
X99575921Y-124884357D01*
X99865643Y-125174079D01*
X100045603Y-125443409D01*
X100093272Y-125514751D01*
X100250067Y-125893286D01*
X100250068Y-125893289D01*
X100250068Y-125893290D01*
X100330000Y-126295136D01*
X100330000Y-126704864D01*
X100259597Y-127058803D01*
X100250067Y-127106714D01*
X100181342Y-127272629D01*
X100093271Y-127485251D01*
X99865643Y-127825921D01*
X99575921Y-128115643D01*
X99235251Y-128343271D01*
X99235250Y-128343272D01*
X99235249Y-128343272D01*
X98856714Y-128500067D01*
X98856711Y-128500068D01*
X98856710Y-128500068D01*
X98454864Y-128580000D01*
X98045136Y-128580000D01*
X97643290Y-128500068D01*
X97643289Y-128500068D01*
X97643286Y-128500067D01*
X97264751Y-128343272D01*
X97264750Y-128343272D01*
X97264749Y-128343271D01*
X96924079Y-128115643D01*
X96634357Y-127825921D01*
X96406729Y-127485251D01*
X96318658Y-127272629D01*
X96249933Y-127106714D01*
X96240403Y-127058803D01*
X96170000Y-126704864D01*
X96170000Y-126295136D01*
X96249932Y-125893290D01*
X96249932Y-125893289D01*
X96249933Y-125893286D01*
X96406728Y-125514751D01*
X96454397Y-125443409D01*
X96634357Y-125174079D01*
X96924079Y-124884357D01*
X97264749Y-124656729D01*
X97274582Y-124652656D01*
X97643286Y-124499933D01*
X97643289Y-124499932D01*
X97643290Y-124499932D01*
X98045136Y-124420000D01*
X98454864Y-124420000D01*
X98856710Y-124499932D01*
X98856710Y-124499932D01*
G37*
G36*
X60356710Y-124499932D02*
X60356711Y-124499932D01*
X60356714Y-124499933D01*
X60725418Y-124652656D01*
X60735251Y-124656729D01*
X61075921Y-124884357D01*
X61365643Y-125174079D01*
X61545603Y-125443409D01*
X61593272Y-125514751D01*
X61750067Y-125893286D01*
X61750068Y-125893289D01*
X61750068Y-125893290D01*
X61830000Y-126295136D01*
X61830000Y-126704864D01*
X61759597Y-127058803D01*
X61750067Y-127106714D01*
X61681342Y-127272629D01*
X61593271Y-127485251D01*
X61365643Y-127825921D01*
X61075921Y-128115643D01*
X60735251Y-128343271D01*
X60735250Y-128343272D01*
X60735249Y-128343272D01*
X60356714Y-128500067D01*
X60356711Y-128500068D01*
X60356710Y-128500068D01*
X59954864Y-128580000D01*
X59545136Y-128580000D01*
X59143290Y-128500068D01*
X59143289Y-128500068D01*
X59143286Y-128500067D01*
X58764751Y-128343272D01*
X58764750Y-128343272D01*
X58764749Y-128343271D01*
X58424079Y-128115643D01*
X58134357Y-127825921D01*
X57906729Y-127485251D01*
X57818658Y-127272629D01*
X57749933Y-127106714D01*
X57740403Y-127058803D01*
X57670000Y-126704864D01*
X57670000Y-126295136D01*
X57749932Y-125893290D01*
X57749932Y-125893289D01*
X57749933Y-125893286D01*
X57906728Y-125514751D01*
X57954397Y-125443409D01*
X58134357Y-125174079D01*
X58424079Y-124884357D01*
X58764749Y-124656729D01*
X58774582Y-124652656D01*
X59143286Y-124499933D01*
X59143289Y-124499932D01*
X59143290Y-124499932D01*
X59545136Y-124420000D01*
X59954864Y-124420000D01*
X60356710Y-124499932D01*
X60356710Y-124499932D01*
G37*
G36*
X128146270Y-125324018D02*
X128177242Y-125333414D01*
X128205782Y-125348669D01*
X128230800Y-125369200D01*
X128251331Y-125394218D01*
X128266586Y-125422758D01*
X128275982Y-125453730D01*
X128280000Y-125494529D01*
X128280000Y-126905471D01*
X128275982Y-126946270D01*
X128266586Y-126977242D01*
X128251331Y-127005782D01*
X128230800Y-127030800D01*
X128205782Y-127051331D01*
X128177242Y-127066586D01*
X128146270Y-127075982D01*
X128105471Y-127080000D01*
X126894529Y-127080000D01*
X126853730Y-127075982D01*
X126822758Y-127066586D01*
X126794218Y-127051331D01*
X126769200Y-127030800D01*
X126748669Y-127005782D01*
X126733414Y-126977242D01*
X126724018Y-126946270D01*
X126720000Y-126905471D01*
X126720000Y-125494529D01*
X126724018Y-125453730D01*
X126733414Y-125422758D01*
X126748669Y-125394218D01*
X126769200Y-125369200D01*
X126794218Y-125348669D01*
X126822758Y-125333414D01*
X126853730Y-125324018D01*
X126894529Y-125320000D01*
X128105471Y-125320000D01*
X128146270Y-125324018D01*
X128146270Y-125324018D01*
G37*
G36*
X133897041Y-125324001D02*
X133927831Y-125333340D01*
X133956207Y-125348508D01*
X133981080Y-125368920D01*
X134001492Y-125393793D01*
X134016660Y-125422169D01*
X134025999Y-125452959D01*
X134030000Y-125493575D01*
X134030000Y-126906425D01*
X134025999Y-126947041D01*
X134016660Y-126977831D01*
X134001492Y-127006207D01*
X133981080Y-127031080D01*
X133956207Y-127051492D01*
X133927831Y-127066660D01*
X133897041Y-127075999D01*
X133856425Y-127080000D01*
X132643575Y-127080000D01*
X132602959Y-127075999D01*
X132572169Y-127066660D01*
X132543793Y-127051492D01*
X132518920Y-127031080D01*
X132498508Y-127006207D01*
X132483340Y-126977831D01*
X132474001Y-126947041D01*
X132470000Y-126906425D01*
X132470000Y-125493575D01*
X132474001Y-125452959D01*
X132483340Y-125422169D01*
X132498508Y-125393793D01*
X132518920Y-125368920D01*
X132543793Y-125348508D01*
X132572169Y-125333340D01*
X132602959Y-125324001D01*
X132643575Y-125320000D01*
X133856425Y-125320000D01*
X133897041Y-125324001D01*
X133897041Y-125324001D01*
G37*
G36*
X130640011Y-125788446D02*
X130727365Y-125824629D01*
X130805982Y-125877159D01*
X130872841Y-125944018D01*
X130925371Y-126022635D01*
X130961554Y-126109989D01*
X130980000Y-126202724D01*
X130980000Y-126297276D01*
X130961554Y-126390011D01*
X130925371Y-126477365D01*
X130872841Y-126555982D01*
X130805982Y-126622841D01*
X130727365Y-126675371D01*
X130640011Y-126711554D01*
X130547276Y-126730000D01*
X130452724Y-126730000D01*
X130359989Y-126711554D01*
X130272635Y-126675371D01*
X130194018Y-126622841D01*
X130127159Y-126555982D01*
X130074629Y-126477365D01*
X130038446Y-126390011D01*
X130020000Y-126297276D01*
X130020000Y-126202724D01*
X130038446Y-126109989D01*
X130074629Y-126022635D01*
X130127159Y-125944018D01*
X130194018Y-125877159D01*
X130272635Y-125824629D01*
X130359989Y-125788446D01*
X130452724Y-125770000D01*
X130547276Y-125770000D01*
X130640011Y-125788446D01*
X130640011Y-125788446D01*
G37*
G36*
X107161713Y-124435626D02*
X107161716Y-124435627D01*
X107161717Y-124435627D01*
X107228432Y-124455865D01*
X107365299Y-124497383D01*
X107552921Y-124597669D01*
X107717371Y-124732629D01*
X107852331Y-124897079D01*
X107952617Y-125084701D01*
X108014374Y-125288287D01*
X108035226Y-125500000D01*
X108014374Y-125711713D01*
X107952617Y-125915299D01*
X107852331Y-126102921D01*
X107717371Y-126267371D01*
X107552921Y-126402331D01*
X107365299Y-126502617D01*
X107245786Y-126538871D01*
X107161717Y-126564373D01*
X107161716Y-126564373D01*
X107161713Y-126564374D01*
X107003056Y-126580000D01*
X106496944Y-126580000D01*
X106338287Y-126564374D01*
X106338284Y-126564373D01*
X106338283Y-126564373D01*
X106254214Y-126538871D01*
X106134701Y-126502617D01*
X105947079Y-126402331D01*
X105782629Y-126267371D01*
X105647669Y-126102921D01*
X105547383Y-125915299D01*
X105485626Y-125711713D01*
X105464774Y-125500000D01*
X105485626Y-125288287D01*
X105547383Y-125084701D01*
X105647669Y-124897079D01*
X105782629Y-124732629D01*
X105947079Y-124597669D01*
X106134701Y-124497383D01*
X106271568Y-124455865D01*
X106338283Y-124435627D01*
X106338284Y-124435627D01*
X106338287Y-124435626D01*
X106496944Y-124420000D01*
X107003056Y-124420000D01*
X107161713Y-124435626D01*
X107161713Y-124435626D01*
G37*
G36*
X112046270Y-124474018D02*
X112077242Y-124483414D01*
X112105782Y-124498669D01*
X112130800Y-124519200D01*
X112151331Y-124544218D01*
X112166586Y-124572758D01*
X112175982Y-124603730D01*
X112180000Y-124644529D01*
X112180000Y-125855471D01*
X112175982Y-125896270D01*
X112166586Y-125927242D01*
X112151331Y-125955782D01*
X112130800Y-125980800D01*
X112105782Y-126001331D01*
X112077242Y-126016586D01*
X112046270Y-126025982D01*
X112005471Y-126030000D01*
X110594529Y-126030000D01*
X110553730Y-126025982D01*
X110522758Y-126016586D01*
X110494218Y-126001331D01*
X110469200Y-125980800D01*
X110448669Y-125955782D01*
X110433414Y-125927242D01*
X110424018Y-125896270D01*
X110420000Y-125855471D01*
X110420000Y-124644529D01*
X110424018Y-124603730D01*
X110433414Y-124572758D01*
X110448669Y-124544218D01*
X110469200Y-124519200D01*
X110494218Y-124498669D01*
X110522758Y-124483414D01*
X110553730Y-124474018D01*
X110594529Y-124470000D01*
X112005471Y-124470000D01*
X112046270Y-124474018D01*
X112046270Y-124474018D01*
G37*
G36*
X114447041Y-124474001D02*
X114477831Y-124483340D01*
X114506207Y-124498508D01*
X114531080Y-124518920D01*
X114551492Y-124543793D01*
X114566660Y-124572169D01*
X114575999Y-124602959D01*
X114580000Y-124643575D01*
X114580000Y-125856425D01*
X114575999Y-125897041D01*
X114566660Y-125927831D01*
X114551493Y-125956206D01*
X114531080Y-125981080D01*
X114506207Y-126001492D01*
X114477831Y-126016660D01*
X114447041Y-126025999D01*
X114406425Y-126030000D01*
X112993575Y-126030000D01*
X112952959Y-126025999D01*
X112922169Y-126016660D01*
X112893793Y-126001492D01*
X112868920Y-125981080D01*
X112848507Y-125956206D01*
X112833340Y-125927831D01*
X112824001Y-125897041D01*
X112820000Y-125856425D01*
X112820000Y-124643575D01*
X112824001Y-124602959D01*
X112833340Y-124572169D01*
X112848508Y-124543793D01*
X112868920Y-124518920D01*
X112893793Y-124498508D01*
X112922169Y-124483340D01*
X112952959Y-124474001D01*
X112993575Y-124470000D01*
X114406425Y-124470000D01*
X114447041Y-124474001D01*
X114447041Y-124474001D01*
G37*
G36*
X50741123Y-122412797D02*
X50972978Y-122483130D01*
X51186655Y-122597342D01*
X51186656Y-122597343D01*
X51186658Y-122597344D01*
X51373949Y-122751051D01*
X51523612Y-122933414D01*
X51527658Y-122938345D01*
X51641870Y-123152022D01*
X51712203Y-123383877D01*
X51735952Y-123625000D01*
X51712203Y-123866123D01*
X51641870Y-124097978D01*
X51628581Y-124122841D01*
X51527656Y-124311658D01*
X51373949Y-124498949D01*
X51186658Y-124652656D01*
X51186656Y-124652657D01*
X51186655Y-124652658D01*
X50972978Y-124766870D01*
X50741123Y-124837203D01*
X50560428Y-124855000D01*
X49439572Y-124855000D01*
X49258877Y-124837203D01*
X49027022Y-124766870D01*
X48813345Y-124652658D01*
X48813344Y-124652657D01*
X48813342Y-124652656D01*
X48626051Y-124498949D01*
X48472344Y-124311658D01*
X48371420Y-124122841D01*
X48358130Y-124097978D01*
X48287797Y-123866123D01*
X48264048Y-123625000D01*
X48287797Y-123383877D01*
X48358130Y-123152022D01*
X48472342Y-122938345D01*
X48476389Y-122933414D01*
X48626051Y-122751051D01*
X48813342Y-122597344D01*
X48813344Y-122597343D01*
X48813345Y-122597342D01*
X49027022Y-122483130D01*
X49258877Y-122412797D01*
X49439572Y-122395000D01*
X50560428Y-122395000D01*
X50741123Y-122412797D01*
X50741123Y-122412797D01*
G37*
G36*
X133896270Y-122924018D02*
X133927242Y-122933414D01*
X133955782Y-122948669D01*
X133980800Y-122969200D01*
X134001331Y-122994218D01*
X134016586Y-123022758D01*
X134025982Y-123053730D01*
X134030000Y-123094529D01*
X134030000Y-124505471D01*
X134025982Y-124546270D01*
X134016586Y-124577242D01*
X134001331Y-124605782D01*
X133980800Y-124630800D01*
X133955782Y-124651331D01*
X133927242Y-124666586D01*
X133896270Y-124675982D01*
X133855471Y-124680000D01*
X132644529Y-124680000D01*
X132603730Y-124675982D01*
X132572758Y-124666586D01*
X132544218Y-124651331D01*
X132519200Y-124630800D01*
X132498669Y-124605782D01*
X132483414Y-124577242D01*
X132474018Y-124546270D01*
X132470000Y-124505471D01*
X132470000Y-123094529D01*
X132474018Y-123053730D01*
X132483414Y-123022758D01*
X132498669Y-122994218D01*
X132519200Y-122969200D01*
X132544218Y-122948669D01*
X132572758Y-122933414D01*
X132603730Y-122924018D01*
X132644529Y-122920000D01*
X133855471Y-122920000D01*
X133896270Y-122924018D01*
X133896270Y-122924018D01*
G37*
G36*
X128146270Y-122924018D02*
X128177242Y-122933414D01*
X128205782Y-122948669D01*
X128230800Y-122969200D01*
X128251331Y-122994218D01*
X128266586Y-123022758D01*
X128275982Y-123053730D01*
X128280000Y-123094529D01*
X128280000Y-124505471D01*
X128275982Y-124546270D01*
X128266586Y-124577242D01*
X128251331Y-124605782D01*
X128230800Y-124630800D01*
X128205782Y-124651331D01*
X128177242Y-124666586D01*
X128146270Y-124675982D01*
X128105471Y-124680000D01*
X126894529Y-124680000D01*
X126853730Y-124675982D01*
X126822758Y-124666586D01*
X126794218Y-124651331D01*
X126769200Y-124630800D01*
X126748669Y-124605782D01*
X126733414Y-124577242D01*
X126724018Y-124546270D01*
X126720000Y-124505471D01*
X126720000Y-123094529D01*
X126724018Y-123053730D01*
X126733414Y-123022758D01*
X126748669Y-122994218D01*
X126769200Y-122969200D01*
X126794218Y-122948669D01*
X126822758Y-122933414D01*
X126853730Y-122924018D01*
X126894529Y-122920000D01*
X128105471Y-122920000D01*
X128146270Y-122924018D01*
X128146270Y-122924018D01*
G37*
G36*
X130640011Y-123288446D02*
X130727365Y-123324629D01*
X130805982Y-123377159D01*
X130872841Y-123444018D01*
X130925371Y-123522635D01*
X130961554Y-123609989D01*
X130980000Y-123702724D01*
X130980000Y-123797276D01*
X130961554Y-123890011D01*
X130925371Y-123977365D01*
X130872841Y-124055982D01*
X130805982Y-124122841D01*
X130727365Y-124175371D01*
X130640011Y-124211554D01*
X130547276Y-124230000D01*
X130452724Y-124230000D01*
X130359989Y-124211554D01*
X130272635Y-124175371D01*
X130194018Y-124122841D01*
X130127159Y-124055982D01*
X130074629Y-123977365D01*
X130038446Y-123890011D01*
X130020000Y-123797276D01*
X130020000Y-123702724D01*
X130038446Y-123609989D01*
X130074629Y-123522635D01*
X130127159Y-123444018D01*
X130194018Y-123377159D01*
X130272635Y-123324629D01*
X130359989Y-123288446D01*
X130452724Y-123270000D01*
X130547276Y-123270000D01*
X130640011Y-123288446D01*
X130640011Y-123288446D01*
G37*
G36*
X133897041Y-120574001D02*
X133927831Y-120583340D01*
X133956207Y-120598508D01*
X133981080Y-120618920D01*
X134001492Y-120643793D01*
X134016660Y-120672169D01*
X134025999Y-120702959D01*
X134030000Y-120743575D01*
X134030000Y-122156425D01*
X134025999Y-122197041D01*
X134016660Y-122227831D01*
X134001492Y-122256207D01*
X133981080Y-122281080D01*
X133956207Y-122301492D01*
X133927831Y-122316660D01*
X133897041Y-122325999D01*
X133856425Y-122330000D01*
X132643575Y-122330000D01*
X132602959Y-122325999D01*
X132572169Y-122316660D01*
X132543793Y-122301492D01*
X132518920Y-122281080D01*
X132498508Y-122256207D01*
X132483340Y-122227831D01*
X132474001Y-122197041D01*
X132470000Y-122156425D01*
X132470000Y-120743575D01*
X132474001Y-120702959D01*
X132483340Y-120672169D01*
X132498508Y-120643793D01*
X132518920Y-120618920D01*
X132543793Y-120598508D01*
X132572169Y-120583340D01*
X132602959Y-120574001D01*
X132643575Y-120570000D01*
X133856425Y-120570000D01*
X133897041Y-120574001D01*
X133897041Y-120574001D01*
G37*
G36*
X128146270Y-120574018D02*
X128177242Y-120583414D01*
X128205782Y-120598669D01*
X128230800Y-120619200D01*
X128251331Y-120644218D01*
X128266586Y-120672758D01*
X128275982Y-120703730D01*
X128280000Y-120744529D01*
X128280000Y-122155471D01*
X128275982Y-122196270D01*
X128266586Y-122227242D01*
X128251331Y-122255782D01*
X128230800Y-122280800D01*
X128205782Y-122301331D01*
X128177242Y-122316586D01*
X128146270Y-122325982D01*
X128105471Y-122330000D01*
X126894529Y-122330000D01*
X126853730Y-122325982D01*
X126822758Y-122316586D01*
X126794218Y-122301331D01*
X126769200Y-122280800D01*
X126748669Y-122255782D01*
X126733414Y-122227242D01*
X126724018Y-122196270D01*
X126720000Y-122155471D01*
X126720000Y-120744529D01*
X126724018Y-120703730D01*
X126733414Y-120672758D01*
X126748669Y-120644218D01*
X126769200Y-120619200D01*
X126794218Y-120598669D01*
X126822758Y-120583414D01*
X126853730Y-120574018D01*
X126894529Y-120570000D01*
X128105471Y-120570000D01*
X128146270Y-120574018D01*
X128146270Y-120574018D01*
G37*
G36*
X130640011Y-121038446D02*
X130727365Y-121074629D01*
X130805982Y-121127159D01*
X130872841Y-121194018D01*
X130925371Y-121272635D01*
X130961554Y-121359989D01*
X130980000Y-121452724D01*
X130980000Y-121547276D01*
X130961554Y-121640011D01*
X130925371Y-121727365D01*
X130872841Y-121805982D01*
X130805982Y-121872841D01*
X130727365Y-121925371D01*
X130640011Y-121961554D01*
X130547276Y-121980000D01*
X130452724Y-121980000D01*
X130359989Y-121961554D01*
X130272635Y-121925371D01*
X130194018Y-121872841D01*
X130127159Y-121805982D01*
X130074629Y-121727365D01*
X130038446Y-121640011D01*
X130020000Y-121547276D01*
X130020000Y-121452724D01*
X130038446Y-121359989D01*
X130074629Y-121272635D01*
X130127159Y-121194018D01*
X130194018Y-121127159D01*
X130272635Y-121074629D01*
X130359989Y-121038446D01*
X130452724Y-121020000D01*
X130547276Y-121020000D01*
X130640011Y-121038446D01*
X130640011Y-121038446D01*
G37*
G36*
X98856710Y-116499932D02*
X98856711Y-116499932D01*
X98856714Y-116499933D01*
X99235249Y-116656728D01*
X99235251Y-116656729D01*
X99575921Y-116884357D01*
X99865643Y-117174079D01*
X100087279Y-117505782D01*
X100093272Y-117514751D01*
X100250067Y-117893286D01*
X100250068Y-117893289D01*
X100250068Y-117893290D01*
X100330000Y-118295136D01*
X100330000Y-118704864D01*
X100261890Y-119047276D01*
X100250067Y-119106714D01*
X100167527Y-119305982D01*
X100093271Y-119485251D01*
X99865643Y-119825921D01*
X99575921Y-120115643D01*
X99235251Y-120343271D01*
X99235250Y-120343272D01*
X99235249Y-120343272D01*
X98856714Y-120500067D01*
X98856711Y-120500068D01*
X98856710Y-120500068D01*
X98454864Y-120580000D01*
X98045136Y-120580000D01*
X97643290Y-120500068D01*
X97643289Y-120500068D01*
X97643286Y-120500067D01*
X97264751Y-120343272D01*
X97264750Y-120343272D01*
X97264749Y-120343271D01*
X96924079Y-120115643D01*
X96634357Y-119825921D01*
X96406729Y-119485251D01*
X96332473Y-119305982D01*
X96249933Y-119106714D01*
X96238110Y-119047276D01*
X96170000Y-118704864D01*
X96170000Y-118295136D01*
X96249932Y-117893290D01*
X96249932Y-117893289D01*
X96249933Y-117893286D01*
X96406728Y-117514751D01*
X96412721Y-117505782D01*
X96634357Y-117174079D01*
X96924079Y-116884357D01*
X97264749Y-116656729D01*
X97264751Y-116656728D01*
X97643286Y-116499933D01*
X97643289Y-116499932D01*
X97643290Y-116499932D01*
X98045136Y-116420000D01*
X98454864Y-116420000D01*
X98856710Y-116499932D01*
X98856710Y-116499932D01*
G37*
G36*
X133896270Y-118174018D02*
X133927242Y-118183414D01*
X133955782Y-118198669D01*
X133980800Y-118219200D01*
X134001331Y-118244218D01*
X134016586Y-118272758D01*
X134025982Y-118303730D01*
X134030000Y-118344529D01*
X134030000Y-119755471D01*
X134025982Y-119796270D01*
X134016586Y-119827242D01*
X134001331Y-119855782D01*
X133980800Y-119880800D01*
X133955782Y-119901331D01*
X133927242Y-119916586D01*
X133896270Y-119925982D01*
X133855471Y-119930000D01*
X132644529Y-119930000D01*
X132603730Y-119925982D01*
X132572758Y-119916586D01*
X132544218Y-119901331D01*
X132519200Y-119880800D01*
X132498669Y-119855782D01*
X132483414Y-119827242D01*
X132474018Y-119796270D01*
X132470000Y-119755471D01*
X132470000Y-118344529D01*
X132474018Y-118303730D01*
X132483414Y-118272758D01*
X132498669Y-118244218D01*
X132519200Y-118219200D01*
X132544218Y-118198669D01*
X132572758Y-118183414D01*
X132603730Y-118174018D01*
X132644529Y-118170000D01*
X133855471Y-118170000D01*
X133896270Y-118174018D01*
X133896270Y-118174018D01*
G37*
G36*
X128146270Y-118174018D02*
X128177242Y-118183414D01*
X128205782Y-118198669D01*
X128230800Y-118219200D01*
X128251331Y-118244218D01*
X128266586Y-118272758D01*
X128275982Y-118303730D01*
X128280000Y-118344529D01*
X128280000Y-119755471D01*
X128275982Y-119796270D01*
X128266586Y-119827242D01*
X128251331Y-119855782D01*
X128230800Y-119880800D01*
X128205782Y-119901331D01*
X128177242Y-119916586D01*
X128146270Y-119925982D01*
X128105471Y-119930000D01*
X126894529Y-119930000D01*
X126853730Y-119925982D01*
X126822758Y-119916586D01*
X126794218Y-119901331D01*
X126769200Y-119880800D01*
X126748669Y-119855782D01*
X126733414Y-119827242D01*
X126724018Y-119796270D01*
X126720000Y-119755471D01*
X126720000Y-118344529D01*
X126724018Y-118303730D01*
X126733414Y-118272758D01*
X126748669Y-118244218D01*
X126769200Y-118219200D01*
X126794218Y-118198669D01*
X126822758Y-118183414D01*
X126853730Y-118174018D01*
X126894529Y-118170000D01*
X128105471Y-118170000D01*
X128146270Y-118174018D01*
X128146270Y-118174018D01*
G37*
G36*
X50741123Y-117412797D02*
X50972978Y-117483130D01*
X51186655Y-117597342D01*
X51186656Y-117597343D01*
X51186658Y-117597344D01*
X51373949Y-117751051D01*
X51507679Y-117914000D01*
X51527658Y-117938345D01*
X51641870Y-118152022D01*
X51712203Y-118383877D01*
X51735952Y-118625000D01*
X51712203Y-118866123D01*
X51641870Y-119097978D01*
X51530691Y-119305981D01*
X51527656Y-119311658D01*
X51373949Y-119498949D01*
X51186658Y-119652656D01*
X51186656Y-119652657D01*
X51186655Y-119652658D01*
X50972978Y-119766870D01*
X50741123Y-119837203D01*
X50560428Y-119855000D01*
X49439572Y-119855000D01*
X49258877Y-119837203D01*
X49027022Y-119766870D01*
X48813345Y-119652658D01*
X48813344Y-119652657D01*
X48813342Y-119652656D01*
X48626051Y-119498949D01*
X48472344Y-119311658D01*
X48469310Y-119305981D01*
X48358130Y-119097978D01*
X48287797Y-118866123D01*
X48264048Y-118625000D01*
X48287797Y-118383877D01*
X48358130Y-118152022D01*
X48472342Y-117938345D01*
X48492322Y-117914000D01*
X48626051Y-117751051D01*
X48813342Y-117597344D01*
X48813344Y-117597343D01*
X48813345Y-117597342D01*
X49027022Y-117483130D01*
X49258877Y-117412797D01*
X49439572Y-117395000D01*
X50560428Y-117395000D01*
X50741123Y-117412797D01*
X50741123Y-117412797D01*
G37*
G36*
X130640011Y-118538446D02*
X130727365Y-118574629D01*
X130805982Y-118627159D01*
X130872841Y-118694018D01*
X130925371Y-118772635D01*
X130961554Y-118859989D01*
X130980000Y-118952724D01*
X130980000Y-119047276D01*
X130961554Y-119140011D01*
X130925371Y-119227365D01*
X130872841Y-119305982D01*
X130805982Y-119372841D01*
X130727365Y-119425371D01*
X130640011Y-119461554D01*
X130547276Y-119480000D01*
X130452724Y-119480000D01*
X130359989Y-119461554D01*
X130272635Y-119425371D01*
X130194018Y-119372841D01*
X130127159Y-119305982D01*
X130074629Y-119227365D01*
X130038446Y-119140011D01*
X130020000Y-119047276D01*
X130020000Y-118952724D01*
X130038446Y-118859989D01*
X130074629Y-118772635D01*
X130127159Y-118694018D01*
X130194018Y-118627159D01*
X130272635Y-118574629D01*
X130359989Y-118538446D01*
X130452724Y-118520000D01*
X130547276Y-118520000D01*
X130640011Y-118538446D01*
X130640011Y-118538446D01*
G37*
G36*
X113917456Y-114172320D02*
X113931832Y-114176680D01*
X113945084Y-114183764D01*
X113964737Y-114199893D01*
X113974368Y-114209524D01*
X114002892Y-114228584D01*
X114034587Y-114241712D01*
X114068233Y-114248405D01*
X114102539Y-114248405D01*
X114136186Y-114241713D01*
X114167878Y-114228586D01*
X114180197Y-114222002D01*
X114183046Y-114221137D01*
X114194594Y-114220000D01*
X115805406Y-114220000D01*
X115816954Y-114221137D01*
X115819803Y-114222002D01*
X115832122Y-114228586D01*
X115863817Y-114241714D01*
X115897464Y-114248406D01*
X115931770Y-114248405D01*
X115965416Y-114241711D01*
X115997111Y-114228582D01*
X116025635Y-114209522D01*
X116035266Y-114199890D01*
X116054916Y-114183764D01*
X116068168Y-114176680D01*
X116082544Y-114172320D01*
X116106095Y-114170000D01*
X117693905Y-114170000D01*
X117717456Y-114172320D01*
X117731832Y-114176680D01*
X117745084Y-114183764D01*
X117756702Y-114193298D01*
X117766236Y-114204916D01*
X117773320Y-114218168D01*
X117777680Y-114232544D01*
X117780000Y-114256095D01*
X117780000Y-114743905D01*
X117777680Y-114767456D01*
X117773320Y-114781832D01*
X117766236Y-114795084D01*
X117756702Y-114806702D01*
X117745084Y-114816236D01*
X117731832Y-114823320D01*
X117701451Y-114832535D01*
X117669756Y-114845662D01*
X117641232Y-114864721D01*
X117616973Y-114888979D01*
X117597913Y-114917503D01*
X117584784Y-114949197D01*
X117578091Y-114982844D01*
X117578090Y-115017150D01*
X117584783Y-115050797D01*
X117597910Y-115082492D01*
X117616969Y-115111016D01*
X117641227Y-115135275D01*
X117669751Y-115154335D01*
X117701451Y-115167465D01*
X117731832Y-115176680D01*
X117745084Y-115183764D01*
X117756702Y-115193298D01*
X117766236Y-115204916D01*
X117773320Y-115218168D01*
X117777680Y-115232544D01*
X117780000Y-115256095D01*
X117780000Y-115743905D01*
X117777680Y-115767456D01*
X117773320Y-115781832D01*
X117766236Y-115795084D01*
X117756702Y-115806702D01*
X117745084Y-115816236D01*
X117731832Y-115823320D01*
X117701451Y-115832535D01*
X117669756Y-115845662D01*
X117641232Y-115864721D01*
X117616973Y-115888979D01*
X117597913Y-115917503D01*
X117584784Y-115949197D01*
X117578091Y-115982844D01*
X117578090Y-116017150D01*
X117584783Y-116050797D01*
X117597910Y-116082492D01*
X117616969Y-116111016D01*
X117641227Y-116135275D01*
X117669751Y-116154335D01*
X117701451Y-116167465D01*
X117731832Y-116176680D01*
X117745084Y-116183764D01*
X117756702Y-116193298D01*
X117766236Y-116204916D01*
X117773320Y-116218168D01*
X117777680Y-116232544D01*
X117780000Y-116256095D01*
X117780000Y-116743905D01*
X117777680Y-116767456D01*
X117773320Y-116781832D01*
X117766236Y-116795084D01*
X117756702Y-116806702D01*
X117745084Y-116816236D01*
X117731832Y-116823320D01*
X117717456Y-116827680D01*
X117693905Y-116830000D01*
X116106095Y-116830000D01*
X116082544Y-116827680D01*
X116055797Y-116819567D01*
X116022150Y-116812874D01*
X115987844Y-116812875D01*
X115954198Y-116819568D01*
X115922503Y-116832697D01*
X115893979Y-116851757D01*
X115869721Y-116876015D01*
X115850663Y-116904540D01*
X115837535Y-116936235D01*
X115830000Y-116987032D01*
X115830000Y-118045407D01*
X115828671Y-118058903D01*
X115827238Y-118063627D01*
X115824914Y-118067974D01*
X115821786Y-118071786D01*
X115817974Y-118074914D01*
X115813627Y-118077238D01*
X115808903Y-118078671D01*
X115795407Y-118080000D01*
X114204593Y-118080000D01*
X114191097Y-118078671D01*
X114186373Y-118077238D01*
X114182026Y-118074914D01*
X114178214Y-118071786D01*
X114175086Y-118067974D01*
X114172762Y-118063627D01*
X114171329Y-118058903D01*
X114170000Y-118045407D01*
X114170000Y-116987032D01*
X114166637Y-116952891D01*
X114156679Y-116920062D01*
X114140507Y-116889807D01*
X114118744Y-116863288D01*
X114092225Y-116841525D01*
X114061970Y-116825353D01*
X114029141Y-116815395D01*
X113995000Y-116812032D01*
X113944203Y-116819567D01*
X113917456Y-116827680D01*
X113893905Y-116830000D01*
X112306095Y-116830000D01*
X112282544Y-116827680D01*
X112268168Y-116823320D01*
X112254916Y-116816236D01*
X112243298Y-116806702D01*
X112233764Y-116795084D01*
X112226680Y-116781832D01*
X112222320Y-116767456D01*
X112220000Y-116743905D01*
X112220000Y-116256095D01*
X112222320Y-116232544D01*
X112226680Y-116218168D01*
X112233764Y-116204916D01*
X112243298Y-116193298D01*
X112254916Y-116183764D01*
X112268168Y-116176680D01*
X112298549Y-116167465D01*
X112330244Y-116154338D01*
X112358768Y-116135279D01*
X112383027Y-116111021D01*
X112402087Y-116082497D01*
X112415216Y-116050803D01*
X112421909Y-116017156D01*
X112421909Y-116017150D01*
X113778090Y-116017150D01*
X113784783Y-116050797D01*
X113797911Y-116082492D01*
X113816970Y-116111017D01*
X113841227Y-116135275D01*
X113869751Y-116154335D01*
X113901451Y-116167465D01*
X113944203Y-116180433D01*
X113977850Y-116187126D01*
X114012156Y-116187125D01*
X114045802Y-116180432D01*
X114077497Y-116167303D01*
X114106021Y-116148243D01*
X114130278Y-116123985D01*
X114149337Y-116095460D01*
X114162465Y-116063765D01*
X114170000Y-116012968D01*
X114170000Y-115987032D01*
X115830000Y-115987032D01*
X115830000Y-116012968D01*
X115833363Y-116047109D01*
X115843321Y-116079938D01*
X115859493Y-116110193D01*
X115881256Y-116136712D01*
X115907775Y-116158475D01*
X115938030Y-116174647D01*
X115970859Y-116184605D01*
X116005000Y-116187968D01*
X116055797Y-116180433D01*
X116098549Y-116167465D01*
X116130244Y-116154337D01*
X116158769Y-116135278D01*
X116183027Y-116111021D01*
X116202087Y-116082497D01*
X116215216Y-116050802D01*
X116221909Y-116017156D01*
X116221910Y-115982850D01*
X116215217Y-115949203D01*
X116202089Y-115917508D01*
X116183030Y-115888983D01*
X116158773Y-115864725D01*
X116130249Y-115845665D01*
X116098549Y-115832535D01*
X116055797Y-115819567D01*
X116022150Y-115812874D01*
X115987844Y-115812875D01*
X115954198Y-115819568D01*
X115922503Y-115832697D01*
X115893979Y-115851757D01*
X115869722Y-115876015D01*
X115850663Y-115904540D01*
X115837535Y-115936235D01*
X115830000Y-115987032D01*
X114170000Y-115987032D01*
X114166637Y-115952891D01*
X114156679Y-115920062D01*
X114140507Y-115889807D01*
X114118744Y-115863288D01*
X114092225Y-115841525D01*
X114061970Y-115825353D01*
X114029141Y-115815395D01*
X113995000Y-115812032D01*
X113944203Y-115819567D01*
X113901451Y-115832535D01*
X113869756Y-115845663D01*
X113841231Y-115864722D01*
X113816973Y-115888979D01*
X113797913Y-115917503D01*
X113784784Y-115949198D01*
X113778091Y-115982844D01*
X113778090Y-116017150D01*
X112421909Y-116017150D01*
X112421910Y-115982850D01*
X112415217Y-115949203D01*
X112402090Y-115917508D01*
X112383031Y-115888984D01*
X112358773Y-115864725D01*
X112330249Y-115845665D01*
X112298549Y-115832535D01*
X112268168Y-115823320D01*
X112254916Y-115816236D01*
X112243298Y-115806702D01*
X112233764Y-115795084D01*
X112226680Y-115781832D01*
X112222320Y-115767456D01*
X112220000Y-115743905D01*
X112220000Y-115256095D01*
X112222320Y-115232544D01*
X112226680Y-115218168D01*
X112233764Y-115204916D01*
X112243298Y-115193298D01*
X112254916Y-115183764D01*
X112268168Y-115176680D01*
X112298549Y-115167465D01*
X112330244Y-115154338D01*
X112358768Y-115135279D01*
X112383027Y-115111021D01*
X112402087Y-115082497D01*
X112415216Y-115050803D01*
X112421909Y-115017156D01*
X112421909Y-115017150D01*
X113778090Y-115017150D01*
X113784783Y-115050797D01*
X113797911Y-115082492D01*
X113816970Y-115111017D01*
X113841227Y-115135275D01*
X113869751Y-115154335D01*
X113901451Y-115167465D01*
X113944203Y-115180433D01*
X113977850Y-115187126D01*
X114012156Y-115187125D01*
X114045802Y-115180432D01*
X114077497Y-115167303D01*
X114106021Y-115148243D01*
X114130278Y-115123985D01*
X114149337Y-115095460D01*
X114162465Y-115063765D01*
X114170000Y-115012968D01*
X114170000Y-114987032D01*
X115830000Y-114987032D01*
X115830000Y-115012968D01*
X115833363Y-115047109D01*
X115843321Y-115079938D01*
X115859493Y-115110193D01*
X115881256Y-115136712D01*
X115907775Y-115158475D01*
X115938030Y-115174647D01*
X115970859Y-115184605D01*
X116005000Y-115187968D01*
X116055797Y-115180433D01*
X116098549Y-115167465D01*
X116130244Y-115154337D01*
X116158769Y-115135278D01*
X116183027Y-115111021D01*
X116202087Y-115082497D01*
X116215216Y-115050802D01*
X116221909Y-115017156D01*
X116221910Y-114982850D01*
X116215217Y-114949203D01*
X116202089Y-114917508D01*
X116183030Y-114888983D01*
X116158773Y-114864725D01*
X116130249Y-114845665D01*
X116098549Y-114832535D01*
X116055797Y-114819567D01*
X116022150Y-114812874D01*
X115987844Y-114812875D01*
X115954198Y-114819568D01*
X115922503Y-114832697D01*
X115893979Y-114851757D01*
X115869722Y-114876015D01*
X115850663Y-114904540D01*
X115837535Y-114936235D01*
X115830000Y-114987032D01*
X114170000Y-114987032D01*
X114166637Y-114952891D01*
X114156679Y-114920062D01*
X114140507Y-114889807D01*
X114118744Y-114863288D01*
X114092225Y-114841525D01*
X114061970Y-114825353D01*
X114029141Y-114815395D01*
X113995000Y-114812032D01*
X113944203Y-114819567D01*
X113901451Y-114832535D01*
X113869756Y-114845663D01*
X113841231Y-114864722D01*
X113816973Y-114888979D01*
X113797913Y-114917503D01*
X113784784Y-114949198D01*
X113778091Y-114982844D01*
X113778090Y-115017150D01*
X112421909Y-115017150D01*
X112421910Y-114982850D01*
X112415217Y-114949203D01*
X112402090Y-114917508D01*
X112383031Y-114888984D01*
X112358773Y-114864725D01*
X112330249Y-114845665D01*
X112298549Y-114832535D01*
X112268168Y-114823320D01*
X112254916Y-114816236D01*
X112243298Y-114806702D01*
X112233764Y-114795084D01*
X112226680Y-114781832D01*
X112222320Y-114767456D01*
X112220000Y-114743905D01*
X112220000Y-114256095D01*
X112222320Y-114232544D01*
X112226680Y-114218168D01*
X112233764Y-114204916D01*
X112243298Y-114193298D01*
X112254916Y-114183764D01*
X112268168Y-114176680D01*
X112282544Y-114172320D01*
X112306095Y-114170000D01*
X113893905Y-114170000D01*
X113917456Y-114172320D01*
X113917456Y-114172320D01*
G37*
G36*
X60356710Y-113749932D02*
X60356711Y-113749932D01*
X60356714Y-113749933D01*
X60637220Y-113866123D01*
X60735251Y-113906729D01*
X61075921Y-114134357D01*
X61365643Y-114424079D01*
X61587872Y-114756669D01*
X61593272Y-114764751D01*
X61750067Y-115143286D01*
X61750068Y-115143289D01*
X61750068Y-115143290D01*
X61830000Y-115545136D01*
X61830000Y-115954864D01*
X61750068Y-116356710D01*
X61750067Y-116356714D01*
X61606744Y-116702724D01*
X61593271Y-116735251D01*
X61365643Y-117075921D01*
X61075921Y-117365643D01*
X60735251Y-117593271D01*
X60735250Y-117593272D01*
X60735249Y-117593272D01*
X60356714Y-117750067D01*
X60356711Y-117750068D01*
X60356710Y-117750068D01*
X59954864Y-117830000D01*
X59545136Y-117830000D01*
X59143290Y-117750068D01*
X59143289Y-117750068D01*
X59143286Y-117750067D01*
X58764751Y-117593272D01*
X58764750Y-117593272D01*
X58764749Y-117593271D01*
X58424079Y-117365643D01*
X58134357Y-117075921D01*
X57906729Y-116735251D01*
X57893256Y-116702724D01*
X57749933Y-116356714D01*
X57749932Y-116356710D01*
X57670000Y-115954864D01*
X57670000Y-115545136D01*
X57749932Y-115143290D01*
X57749932Y-115143289D01*
X57749933Y-115143286D01*
X57906728Y-114764751D01*
X57912128Y-114756669D01*
X58134357Y-114424079D01*
X58424079Y-114134357D01*
X58764749Y-113906729D01*
X58862780Y-113866123D01*
X59143286Y-113749933D01*
X59143289Y-113749932D01*
X59143290Y-113749932D01*
X59545136Y-113670000D01*
X59954864Y-113670000D01*
X60356710Y-113749932D01*
X60356710Y-113749932D01*
G37*
G36*
X133897041Y-115824001D02*
X133927831Y-115833340D01*
X133956207Y-115848508D01*
X133981080Y-115868920D01*
X134001492Y-115893793D01*
X134016660Y-115922169D01*
X134025999Y-115952959D01*
X134030000Y-115993575D01*
X134030000Y-117406425D01*
X134025999Y-117447041D01*
X134016660Y-117477831D01*
X134001492Y-117506207D01*
X133981080Y-117531080D01*
X133956207Y-117551492D01*
X133927831Y-117566660D01*
X133897041Y-117575999D01*
X133856425Y-117580000D01*
X132643575Y-117580000D01*
X132602959Y-117575999D01*
X132572169Y-117566660D01*
X132543793Y-117551492D01*
X132518920Y-117531080D01*
X132498508Y-117506207D01*
X132483340Y-117477831D01*
X132474001Y-117447041D01*
X132470000Y-117406425D01*
X132470000Y-115993575D01*
X132474001Y-115952959D01*
X132483340Y-115922169D01*
X132498508Y-115893793D01*
X132518920Y-115868920D01*
X132543793Y-115848508D01*
X132572169Y-115833340D01*
X132602959Y-115824001D01*
X132643575Y-115820000D01*
X133856425Y-115820000D01*
X133897041Y-115824001D01*
X133897041Y-115824001D01*
G37*
G36*
X128146270Y-115824018D02*
X128177242Y-115833414D01*
X128205782Y-115848669D01*
X128230800Y-115869200D01*
X128251331Y-115894218D01*
X128266586Y-115922758D01*
X128275982Y-115953730D01*
X128280000Y-115994529D01*
X128280000Y-117405471D01*
X128275982Y-117446270D01*
X128266586Y-117477242D01*
X128251331Y-117505782D01*
X128230800Y-117530800D01*
X128205782Y-117551331D01*
X128177242Y-117566586D01*
X128146270Y-117575982D01*
X128105471Y-117580000D01*
X126894529Y-117580000D01*
X126853730Y-117575982D01*
X126822758Y-117566586D01*
X126794218Y-117551331D01*
X126769200Y-117530800D01*
X126748669Y-117505782D01*
X126733414Y-117477242D01*
X126724018Y-117446270D01*
X126720000Y-117405471D01*
X126720000Y-115994529D01*
X126724018Y-115953730D01*
X126733414Y-115922758D01*
X126748669Y-115894218D01*
X126769200Y-115869200D01*
X126794218Y-115848669D01*
X126822758Y-115833414D01*
X126853730Y-115824018D01*
X126894529Y-115820000D01*
X128105471Y-115820000D01*
X128146270Y-115824018D01*
X128146270Y-115824018D01*
G37*
G36*
X130640011Y-116288446D02*
X130727365Y-116324629D01*
X130805982Y-116377159D01*
X130872841Y-116444018D01*
X130925371Y-116522635D01*
X130961554Y-116609989D01*
X130980000Y-116702724D01*
X130980000Y-116797276D01*
X130961554Y-116890011D01*
X130925371Y-116977365D01*
X130872841Y-117055982D01*
X130805982Y-117122841D01*
X130727365Y-117175371D01*
X130640011Y-117211554D01*
X130547276Y-117230000D01*
X130452724Y-117230000D01*
X130359989Y-117211554D01*
X130272635Y-117175371D01*
X130194018Y-117122841D01*
X130127159Y-117055982D01*
X130074629Y-116977365D01*
X130038446Y-116890011D01*
X130020000Y-116797276D01*
X130020000Y-116702724D01*
X130038446Y-116609989D01*
X130074629Y-116522635D01*
X130127159Y-116444018D01*
X130194018Y-116377159D01*
X130272635Y-116324629D01*
X130359989Y-116288446D01*
X130452724Y-116270000D01*
X130547276Y-116270000D01*
X130640011Y-116288446D01*
X130640011Y-116288446D01*
G37*
G36*
X40954632Y-111058368D02*
X41076875Y-111095450D01*
X41189541Y-111155671D01*
X41288289Y-111236711D01*
X41369329Y-111335459D01*
X41429550Y-111448125D01*
X41466632Y-111570368D01*
X41480000Y-111706094D01*
X41480000Y-115543906D01*
X41466632Y-115679632D01*
X41429550Y-115801875D01*
X41369329Y-115914541D01*
X41288289Y-116013289D01*
X41189541Y-116094329D01*
X41076875Y-116154550D01*
X40954632Y-116191632D01*
X40818906Y-116205000D01*
X39181094Y-116205000D01*
X39045368Y-116191632D01*
X38923125Y-116154550D01*
X38810459Y-116094329D01*
X38711711Y-116013289D01*
X38630671Y-115914541D01*
X38570450Y-115801875D01*
X38533368Y-115679632D01*
X38520000Y-115543906D01*
X38520000Y-111706094D01*
X38533368Y-111570368D01*
X38570450Y-111448125D01*
X38630671Y-111335459D01*
X38711711Y-111236711D01*
X38810459Y-111155671D01*
X38923125Y-111095450D01*
X39045368Y-111058368D01*
X39181094Y-111045000D01*
X40818906Y-111045000D01*
X40954632Y-111058368D01*
X40954632Y-111058368D01*
G37*
G36*
X133896270Y-113424018D02*
X133927242Y-113433414D01*
X133955782Y-113448669D01*
X133980800Y-113469200D01*
X134001331Y-113494218D01*
X134016586Y-113522758D01*
X134025982Y-113553730D01*
X134030000Y-113594529D01*
X134030000Y-115005471D01*
X134025982Y-115046270D01*
X134016586Y-115077242D01*
X134001331Y-115105782D01*
X133980800Y-115130800D01*
X133955782Y-115151331D01*
X133927242Y-115166586D01*
X133896270Y-115175982D01*
X133855471Y-115180000D01*
X132644529Y-115180000D01*
X132603730Y-115175982D01*
X132572758Y-115166586D01*
X132544218Y-115151331D01*
X132519200Y-115130800D01*
X132498669Y-115105782D01*
X132483414Y-115077242D01*
X132474018Y-115046270D01*
X132470000Y-115005471D01*
X132470000Y-113594529D01*
X132474018Y-113553730D01*
X132483414Y-113522758D01*
X132498669Y-113494218D01*
X132519200Y-113469200D01*
X132544218Y-113448669D01*
X132572758Y-113433414D01*
X132603730Y-113424018D01*
X132644529Y-113420000D01*
X133855471Y-113420000D01*
X133896270Y-113424018D01*
X133896270Y-113424018D01*
G37*
G36*
X128146270Y-113424018D02*
X128177242Y-113433414D01*
X128205782Y-113448669D01*
X128230800Y-113469200D01*
X128251331Y-113494218D01*
X128266586Y-113522758D01*
X128275982Y-113553730D01*
X128280000Y-113594529D01*
X128280000Y-115005471D01*
X128275982Y-115046270D01*
X128266586Y-115077242D01*
X128251331Y-115105782D01*
X128230800Y-115130800D01*
X128205782Y-115151331D01*
X128177242Y-115166586D01*
X128146270Y-115175982D01*
X128105471Y-115180000D01*
X126894529Y-115180000D01*
X126853730Y-115175982D01*
X126822758Y-115166586D01*
X126794218Y-115151331D01*
X126769200Y-115130800D01*
X126748669Y-115105782D01*
X126733414Y-115077242D01*
X126724018Y-115046270D01*
X126720000Y-115005471D01*
X126720000Y-113594529D01*
X126724018Y-113553730D01*
X126733414Y-113522758D01*
X126748669Y-113494218D01*
X126769200Y-113469200D01*
X126794218Y-113448669D01*
X126822758Y-113433414D01*
X126853730Y-113424018D01*
X126894529Y-113420000D01*
X128105471Y-113420000D01*
X128146270Y-113424018D01*
X128146270Y-113424018D01*
G37*
G36*
X50741123Y-112412797D02*
X50972978Y-112483130D01*
X51186655Y-112597342D01*
X51186656Y-112597343D01*
X51186658Y-112597344D01*
X51373949Y-112751051D01*
X51427733Y-112816586D01*
X51527658Y-112938345D01*
X51641870Y-113152022D01*
X51712203Y-113383877D01*
X51735952Y-113625000D01*
X51712203Y-113866123D01*
X51641870Y-114097978D01*
X51532386Y-114302810D01*
X51527656Y-114311658D01*
X51373949Y-114498949D01*
X51186658Y-114652656D01*
X51186656Y-114652657D01*
X51186655Y-114652658D01*
X50972978Y-114766870D01*
X50741123Y-114837203D01*
X50560428Y-114855000D01*
X49439572Y-114855000D01*
X49258877Y-114837203D01*
X49027022Y-114766870D01*
X48813345Y-114652658D01*
X48813344Y-114652657D01*
X48813342Y-114652656D01*
X48626051Y-114498949D01*
X48472344Y-114311658D01*
X48467615Y-114302810D01*
X48358130Y-114097978D01*
X48287797Y-113866123D01*
X48264048Y-113625000D01*
X48287797Y-113383877D01*
X48358130Y-113152022D01*
X48472342Y-112938345D01*
X48572268Y-112816586D01*
X48626051Y-112751051D01*
X48813342Y-112597344D01*
X48813344Y-112597343D01*
X48813345Y-112597342D01*
X49027022Y-112483130D01*
X49258877Y-112412797D01*
X49439572Y-112395000D01*
X50560428Y-112395000D01*
X50741123Y-112412797D01*
X50741123Y-112412797D01*
G37*
G36*
X130640011Y-113788446D02*
X130727365Y-113824629D01*
X130805982Y-113877159D01*
X130872841Y-113944018D01*
X130925371Y-114022635D01*
X130961554Y-114109989D01*
X130980000Y-114202724D01*
X130980000Y-114297276D01*
X130961554Y-114390011D01*
X130925371Y-114477365D01*
X130872841Y-114555982D01*
X130805982Y-114622841D01*
X130727365Y-114675371D01*
X130640011Y-114711554D01*
X130547276Y-114730000D01*
X130452724Y-114730000D01*
X130359989Y-114711554D01*
X130272635Y-114675371D01*
X130194018Y-114622841D01*
X130127159Y-114555982D01*
X130074629Y-114477365D01*
X130038446Y-114390011D01*
X130020000Y-114297276D01*
X130020000Y-114202724D01*
X130038446Y-114109989D01*
X130074629Y-114022635D01*
X130127159Y-113944018D01*
X130194018Y-113877159D01*
X130272635Y-113824629D01*
X130359989Y-113788446D01*
X130452724Y-113770000D01*
X130547276Y-113770000D01*
X130640011Y-113788446D01*
X130640011Y-113788446D01*
G37*
G36*
X128146270Y-111074018D02*
X128177242Y-111083414D01*
X128205782Y-111098669D01*
X128230800Y-111119200D01*
X128251331Y-111144218D01*
X128266586Y-111172758D01*
X128275982Y-111203730D01*
X128280000Y-111244529D01*
X128280000Y-112655471D01*
X128275982Y-112696270D01*
X128266586Y-112727242D01*
X128251331Y-112755782D01*
X128230800Y-112780800D01*
X128205782Y-112801331D01*
X128177242Y-112816586D01*
X128146270Y-112825982D01*
X128105471Y-112830000D01*
X126894529Y-112830000D01*
X126853730Y-112825982D01*
X126822758Y-112816586D01*
X126794218Y-112801331D01*
X126769200Y-112780800D01*
X126748669Y-112755782D01*
X126733414Y-112727242D01*
X126724018Y-112696270D01*
X126720000Y-112655471D01*
X126720000Y-111244529D01*
X126724018Y-111203730D01*
X126733414Y-111172758D01*
X126748669Y-111144218D01*
X126769200Y-111119200D01*
X126794218Y-111098669D01*
X126822758Y-111083414D01*
X126853730Y-111074018D01*
X126894529Y-111070000D01*
X128105471Y-111070000D01*
X128146270Y-111074018D01*
X128146270Y-111074018D01*
G37*
G36*
X133897041Y-111074001D02*
X133927831Y-111083340D01*
X133956207Y-111098508D01*
X133981080Y-111118920D01*
X134001492Y-111143793D01*
X134016660Y-111172169D01*
X134025999Y-111202959D01*
X134030000Y-111243575D01*
X134030000Y-112656425D01*
X134025999Y-112697041D01*
X134016660Y-112727831D01*
X134001492Y-112756207D01*
X133981080Y-112781080D01*
X133956207Y-112801492D01*
X133927831Y-112816660D01*
X133897041Y-112825999D01*
X133856425Y-112830000D01*
X132643575Y-112830000D01*
X132602959Y-112825999D01*
X132572169Y-112816660D01*
X132543793Y-112801492D01*
X132518920Y-112781080D01*
X132498508Y-112756207D01*
X132483340Y-112727831D01*
X132474001Y-112697041D01*
X132470000Y-112656425D01*
X132470000Y-111243575D01*
X132474001Y-111202959D01*
X132483340Y-111172169D01*
X132498508Y-111143793D01*
X132518920Y-111118920D01*
X132543793Y-111098508D01*
X132572169Y-111083340D01*
X132602959Y-111074001D01*
X132643575Y-111070000D01*
X133856425Y-111070000D01*
X133897041Y-111074001D01*
X133897041Y-111074001D01*
G37*
G36*
X130640011Y-111538446D02*
X130727365Y-111574629D01*
X130805982Y-111627159D01*
X130872841Y-111694018D01*
X130925371Y-111772635D01*
X130961554Y-111859989D01*
X130980000Y-111952724D01*
X130980000Y-112047276D01*
X130961554Y-112140011D01*
X130925371Y-112227365D01*
X130872841Y-112305982D01*
X130805982Y-112372841D01*
X130727365Y-112425371D01*
X130640011Y-112461554D01*
X130547276Y-112480000D01*
X130452724Y-112480000D01*
X130359989Y-112461554D01*
X130272635Y-112425371D01*
X130194018Y-112372841D01*
X130127159Y-112305982D01*
X130074629Y-112227365D01*
X130038446Y-112140011D01*
X130020000Y-112047276D01*
X130020000Y-111952724D01*
X130038446Y-111859989D01*
X130074629Y-111772635D01*
X130127159Y-111694018D01*
X130194018Y-111627159D01*
X130272635Y-111574629D01*
X130359989Y-111538446D01*
X130452724Y-111520000D01*
X130547276Y-111520000D01*
X130640011Y-111538446D01*
X130640011Y-111538446D01*
G37*
G36*
X117646270Y-110724018D02*
X117677242Y-110733414D01*
X117705782Y-110748669D01*
X117730800Y-110769200D01*
X117751331Y-110794218D01*
X117766586Y-110822758D01*
X117775982Y-110853730D01*
X117780000Y-110894529D01*
X117780000Y-112105471D01*
X117775982Y-112146270D01*
X117766586Y-112177242D01*
X117751331Y-112205782D01*
X117730800Y-112230800D01*
X117705782Y-112251331D01*
X117677242Y-112266586D01*
X117646270Y-112275982D01*
X117605471Y-112280000D01*
X116194529Y-112280000D01*
X116153730Y-112275982D01*
X116122758Y-112266586D01*
X116094218Y-112251331D01*
X116069200Y-112230800D01*
X116048669Y-112205782D01*
X116033414Y-112177242D01*
X116024018Y-112146270D01*
X116020000Y-112105471D01*
X116020000Y-110894529D01*
X116024018Y-110853730D01*
X116033414Y-110822758D01*
X116048669Y-110794218D01*
X116069200Y-110769200D01*
X116094218Y-110748669D01*
X116122758Y-110733414D01*
X116153730Y-110724018D01*
X116194529Y-110720000D01*
X117605471Y-110720000D01*
X117646270Y-110724018D01*
X117646270Y-110724018D01*
G37*
G36*
X115246270Y-110724018D02*
X115277242Y-110733414D01*
X115305782Y-110748669D01*
X115330800Y-110769200D01*
X115351331Y-110794218D01*
X115366586Y-110822758D01*
X115375982Y-110853730D01*
X115380000Y-110894529D01*
X115380000Y-112105471D01*
X115375982Y-112146270D01*
X115366586Y-112177242D01*
X115351331Y-112205782D01*
X115330800Y-112230800D01*
X115305782Y-112251331D01*
X115277242Y-112266586D01*
X115246270Y-112275982D01*
X115205471Y-112280000D01*
X113794529Y-112280000D01*
X113753730Y-112275982D01*
X113722758Y-112266586D01*
X113694218Y-112251331D01*
X113669200Y-112230800D01*
X113648669Y-112205782D01*
X113633414Y-112177242D01*
X113624018Y-112146270D01*
X113620000Y-112105471D01*
X113620000Y-110894529D01*
X113624018Y-110853730D01*
X113633414Y-110822758D01*
X113648669Y-110794218D01*
X113669200Y-110769200D01*
X113694218Y-110748669D01*
X113722758Y-110733414D01*
X113753730Y-110724018D01*
X113794529Y-110720000D01*
X115205471Y-110720000D01*
X115246270Y-110724018D01*
X115246270Y-110724018D01*
G37*
G36*
X128146270Y-108674018D02*
X128177242Y-108683414D01*
X128205782Y-108698669D01*
X128230800Y-108719200D01*
X128251331Y-108744218D01*
X128266586Y-108772758D01*
X128275982Y-108803730D01*
X128280000Y-108844529D01*
X128280000Y-110255471D01*
X128275982Y-110296270D01*
X128266586Y-110327242D01*
X128251331Y-110355782D01*
X128230800Y-110380800D01*
X128205782Y-110401331D01*
X128177242Y-110416586D01*
X128146270Y-110425982D01*
X128105471Y-110430000D01*
X126894529Y-110430000D01*
X126853730Y-110425982D01*
X126822758Y-110416586D01*
X126794218Y-110401331D01*
X126769200Y-110380800D01*
X126748669Y-110355782D01*
X126733414Y-110327242D01*
X126724018Y-110296270D01*
X126720000Y-110255471D01*
X126720000Y-108844529D01*
X126724018Y-108803730D01*
X126733414Y-108772758D01*
X126748669Y-108744218D01*
X126769200Y-108719200D01*
X126794218Y-108698669D01*
X126822758Y-108683414D01*
X126853730Y-108674018D01*
X126894529Y-108670000D01*
X128105471Y-108670000D01*
X128146270Y-108674018D01*
X128146270Y-108674018D01*
G37*
G36*
X133896270Y-108674018D02*
X133927242Y-108683414D01*
X133955782Y-108698669D01*
X133980800Y-108719200D01*
X134001331Y-108744218D01*
X134016586Y-108772758D01*
X134025982Y-108803730D01*
X134030000Y-108844529D01*
X134030000Y-110255471D01*
X134025982Y-110296270D01*
X134016586Y-110327242D01*
X134001331Y-110355782D01*
X133980800Y-110380800D01*
X133955782Y-110401331D01*
X133927242Y-110416586D01*
X133896270Y-110425982D01*
X133855471Y-110430000D01*
X132644529Y-110430000D01*
X132603730Y-110425982D01*
X132572758Y-110416586D01*
X132544218Y-110401331D01*
X132519200Y-110380800D01*
X132498669Y-110355782D01*
X132483414Y-110327242D01*
X132474018Y-110296270D01*
X132470000Y-110255471D01*
X132470000Y-108844529D01*
X132474018Y-108803730D01*
X132483414Y-108772758D01*
X132498669Y-108744218D01*
X132519200Y-108719200D01*
X132544218Y-108698669D01*
X132572758Y-108683414D01*
X132603730Y-108674018D01*
X132644529Y-108670000D01*
X133855471Y-108670000D01*
X133896270Y-108674018D01*
X133896270Y-108674018D01*
G37*
G36*
X130640011Y-109038446D02*
X130727365Y-109074629D01*
X130805982Y-109127159D01*
X130872841Y-109194018D01*
X130925371Y-109272635D01*
X130961554Y-109359989D01*
X130980000Y-109452724D01*
X130980000Y-109547276D01*
X130961554Y-109640011D01*
X130925371Y-109727365D01*
X130872841Y-109805982D01*
X130805982Y-109872841D01*
X130727365Y-109925371D01*
X130640011Y-109961554D01*
X130547276Y-109980000D01*
X130452724Y-109980000D01*
X130359989Y-109961554D01*
X130272635Y-109925371D01*
X130194018Y-109872841D01*
X130127159Y-109805982D01*
X130074629Y-109727365D01*
X130038446Y-109640011D01*
X130020000Y-109547276D01*
X130020000Y-109452724D01*
X130038446Y-109359989D01*
X130074629Y-109272635D01*
X130127159Y-109194018D01*
X130194018Y-109127159D01*
X130272635Y-109074629D01*
X130359989Y-109038446D01*
X130452724Y-109020000D01*
X130547276Y-109020000D01*
X130640011Y-109038446D01*
X130640011Y-109038446D01*
G37*
G36*
X117646270Y-107724018D02*
X117677242Y-107733414D01*
X117705782Y-107748669D01*
X117730800Y-107769200D01*
X117751331Y-107794218D01*
X117766586Y-107822758D01*
X117775982Y-107853730D01*
X117780000Y-107894529D01*
X117780000Y-109105471D01*
X117775982Y-109146270D01*
X117766586Y-109177242D01*
X117751331Y-109205782D01*
X117730800Y-109230800D01*
X117705782Y-109251331D01*
X117677242Y-109266586D01*
X117646270Y-109275982D01*
X117605471Y-109280000D01*
X116194529Y-109280000D01*
X116153730Y-109275982D01*
X116122758Y-109266586D01*
X116094218Y-109251331D01*
X116069200Y-109230800D01*
X116048669Y-109205782D01*
X116033414Y-109177242D01*
X116024018Y-109146270D01*
X116020000Y-109105471D01*
X116020000Y-107894529D01*
X116024018Y-107853730D01*
X116033414Y-107822758D01*
X116048669Y-107794218D01*
X116069200Y-107769200D01*
X116094218Y-107748669D01*
X116122758Y-107733414D01*
X116153730Y-107724018D01*
X116194529Y-107720000D01*
X117605471Y-107720000D01*
X117646270Y-107724018D01*
X117646270Y-107724018D01*
G37*
G36*
X115246270Y-107724018D02*
X115277242Y-107733414D01*
X115305782Y-107748669D01*
X115330800Y-107769200D01*
X115351331Y-107794218D01*
X115366586Y-107822758D01*
X115375982Y-107853730D01*
X115380000Y-107894529D01*
X115380000Y-109105471D01*
X115375982Y-109146270D01*
X115366586Y-109177242D01*
X115351331Y-109205782D01*
X115330800Y-109230800D01*
X115305782Y-109251331D01*
X115277242Y-109266586D01*
X115246270Y-109275982D01*
X115205471Y-109280000D01*
X113794529Y-109280000D01*
X113753730Y-109275982D01*
X113722758Y-109266586D01*
X113694218Y-109251331D01*
X113669200Y-109230800D01*
X113648669Y-109205782D01*
X113633414Y-109177242D01*
X113624018Y-109146270D01*
X113620000Y-109105471D01*
X113620000Y-107894529D01*
X113624018Y-107853730D01*
X113633414Y-107822758D01*
X113648669Y-107794218D01*
X113669200Y-107769200D01*
X113694218Y-107748669D01*
X113722758Y-107733414D01*
X113753730Y-107724018D01*
X113794529Y-107720000D01*
X115205471Y-107720000D01*
X115246270Y-107724018D01*
X115246270Y-107724018D01*
G37*
G36*
X129765077Y-100903734D02*
X130398398Y-101166064D01*
X130968369Y-101546906D01*
X131453094Y-102031631D01*
X131833936Y-102601602D01*
X132096266Y-103234923D01*
X132230000Y-103907248D01*
X132230000Y-104592752D01*
X132096266Y-105265077D01*
X131833936Y-105898398D01*
X131453094Y-106468369D01*
X130968369Y-106953094D01*
X130398398Y-107333936D01*
X129765077Y-107596266D01*
X129092752Y-107730000D01*
X128407248Y-107730000D01*
X127734923Y-107596266D01*
X127101602Y-107333936D01*
X126531631Y-106953094D01*
X126046906Y-106468369D01*
X125666064Y-105898398D01*
X125403734Y-105265077D01*
X125270000Y-104592752D01*
X125270000Y-103907248D01*
X125403734Y-103234923D01*
X125666064Y-102601602D01*
X126046906Y-102031631D01*
X126531631Y-101546906D01*
X127101602Y-101166064D01*
X127734923Y-100903734D01*
X128407248Y-100770000D01*
X129092752Y-100770000D01*
X129765077Y-100903734D01*
X129765077Y-100903734D01*
G37*
G36*
X107801713Y-102985626D02*
X107801716Y-102985627D01*
X107801717Y-102985627D01*
X107885786Y-103011129D01*
X108005299Y-103047383D01*
X108192921Y-103147669D01*
X108357371Y-103282629D01*
X108492332Y-103447081D01*
X108592616Y-103634699D01*
X108592617Y-103634703D01*
X108654373Y-103838283D01*
X108654374Y-103838288D01*
X108670000Y-103996945D01*
X108670000Y-104503056D01*
X108654374Y-104661713D01*
X108592617Y-104865299D01*
X108492331Y-105052921D01*
X108357371Y-105217371D01*
X108257567Y-105299277D01*
X108192919Y-105352332D01*
X108055440Y-105425815D01*
X108005298Y-105452617D01*
X107885785Y-105488871D01*
X107801716Y-105514373D01*
X107801715Y-105514373D01*
X107801712Y-105514374D01*
X107590000Y-105535226D01*
X107378287Y-105514374D01*
X107378284Y-105514373D01*
X107378283Y-105514373D01*
X107294214Y-105488871D01*
X107174701Y-105452617D01*
X106987079Y-105352331D01*
X106822629Y-105217371D01*
X106740723Y-105117567D01*
X106687668Y-105052919D01*
X106587384Y-104865299D01*
X106587383Y-104865298D01*
X106551129Y-104745785D01*
X106525627Y-104661716D01*
X106525627Y-104661715D01*
X106525626Y-104661712D01*
X106510000Y-104503055D01*
X106510000Y-103996944D01*
X106525626Y-103838287D01*
X106587383Y-103634701D01*
X106687670Y-103447079D01*
X106822630Y-103282629D01*
X106987080Y-103147669D01*
X107174702Y-103047383D01*
X107294215Y-103011129D01*
X107378284Y-102985627D01*
X107378285Y-102985627D01*
X107378288Y-102985626D01*
X107590000Y-102964774D01*
X107801713Y-102985626D01*
X107801713Y-102985626D01*
G37*
G36*
X110341713Y-102985626D02*
X110341716Y-102985627D01*
X110341717Y-102985627D01*
X110425786Y-103011129D01*
X110545299Y-103047383D01*
X110732921Y-103147669D01*
X110897371Y-103282629D01*
X111032332Y-103447081D01*
X111132616Y-103634699D01*
X111132617Y-103634703D01*
X111194373Y-103838283D01*
X111194374Y-103838288D01*
X111210000Y-103996945D01*
X111210000Y-104503056D01*
X111194374Y-104661713D01*
X111132617Y-104865299D01*
X111032331Y-105052921D01*
X110897371Y-105217371D01*
X110797567Y-105299277D01*
X110732919Y-105352332D01*
X110595440Y-105425815D01*
X110545298Y-105452617D01*
X110425785Y-105488871D01*
X110341716Y-105514373D01*
X110341715Y-105514373D01*
X110341712Y-105514374D01*
X110130000Y-105535226D01*
X109918287Y-105514374D01*
X109918284Y-105514373D01*
X109918283Y-105514373D01*
X109834214Y-105488871D01*
X109714701Y-105452617D01*
X109527079Y-105352331D01*
X109362629Y-105217371D01*
X109280723Y-105117567D01*
X109227668Y-105052919D01*
X109127384Y-104865299D01*
X109127383Y-104865298D01*
X109091129Y-104745785D01*
X109065627Y-104661716D01*
X109065627Y-104661715D01*
X109065626Y-104661712D01*
X109050000Y-104503055D01*
X109050000Y-103996944D01*
X109065626Y-103838287D01*
X109127383Y-103634701D01*
X109227670Y-103447079D01*
X109362630Y-103282629D01*
X109527080Y-103147669D01*
X109714702Y-103047383D01*
X109834215Y-103011129D01*
X109918284Y-102985627D01*
X109918285Y-102985627D01*
X109918288Y-102985626D01*
X110130000Y-102964774D01*
X110341713Y-102985626D01*
X110341713Y-102985626D01*
G37*
G36*
X112881713Y-102985626D02*
X112881716Y-102985627D01*
X112881717Y-102985627D01*
X112965786Y-103011129D01*
X113085299Y-103047383D01*
X113272921Y-103147669D01*
X113437371Y-103282629D01*
X113572332Y-103447081D01*
X113672616Y-103634699D01*
X113672617Y-103634703D01*
X113734373Y-103838283D01*
X113734374Y-103838288D01*
X113750000Y-103996945D01*
X113750000Y-104503056D01*
X113734374Y-104661713D01*
X113672617Y-104865299D01*
X113572331Y-105052921D01*
X113437371Y-105217371D01*
X113337567Y-105299277D01*
X113272919Y-105352332D01*
X113135440Y-105425815D01*
X113085298Y-105452617D01*
X112965785Y-105488871D01*
X112881716Y-105514373D01*
X112881715Y-105514373D01*
X112881712Y-105514374D01*
X112670000Y-105535226D01*
X112458287Y-105514374D01*
X112458284Y-105514373D01*
X112458283Y-105514373D01*
X112374214Y-105488871D01*
X112254701Y-105452617D01*
X112067079Y-105352331D01*
X111902629Y-105217371D01*
X111820723Y-105117567D01*
X111767668Y-105052919D01*
X111667384Y-104865299D01*
X111667383Y-104865298D01*
X111631129Y-104745785D01*
X111605627Y-104661716D01*
X111605627Y-104661715D01*
X111605626Y-104661712D01*
X111590000Y-104503055D01*
X111590000Y-103996944D01*
X111605626Y-103838287D01*
X111667383Y-103634701D01*
X111767670Y-103447079D01*
X111902630Y-103282629D01*
X112067080Y-103147669D01*
X112254702Y-103047383D01*
X112374215Y-103011129D01*
X112458284Y-102985627D01*
X112458285Y-102985627D01*
X112458288Y-102985626D01*
X112670000Y-102964774D01*
X112881713Y-102985626D01*
X112881713Y-102985626D01*
G37*
G36*
X117961713Y-102985626D02*
X117961716Y-102985627D01*
X117961717Y-102985627D01*
X118045786Y-103011129D01*
X118165299Y-103047383D01*
X118352921Y-103147669D01*
X118517371Y-103282629D01*
X118652332Y-103447081D01*
X118752616Y-103634699D01*
X118752617Y-103634703D01*
X118814373Y-103838283D01*
X118814374Y-103838288D01*
X118830000Y-103996945D01*
X118830000Y-104503056D01*
X118814374Y-104661713D01*
X118752617Y-104865299D01*
X118652331Y-105052921D01*
X118517371Y-105217371D01*
X118417567Y-105299277D01*
X118352919Y-105352332D01*
X118215440Y-105425815D01*
X118165298Y-105452617D01*
X118045785Y-105488871D01*
X117961716Y-105514373D01*
X117961715Y-105514373D01*
X117961712Y-105514374D01*
X117750000Y-105535226D01*
X117538287Y-105514374D01*
X117538284Y-105514373D01*
X117538283Y-105514373D01*
X117454214Y-105488871D01*
X117334701Y-105452617D01*
X117147079Y-105352331D01*
X116982629Y-105217371D01*
X116900723Y-105117567D01*
X116847668Y-105052919D01*
X116747384Y-104865299D01*
X116747383Y-104865298D01*
X116711129Y-104745785D01*
X116685627Y-104661716D01*
X116685627Y-104661715D01*
X116685626Y-104661712D01*
X116670000Y-104503055D01*
X116670000Y-103996944D01*
X116685626Y-103838287D01*
X116747383Y-103634701D01*
X116847670Y-103447079D01*
X116982630Y-103282629D01*
X117147080Y-103147669D01*
X117334702Y-103047383D01*
X117454215Y-103011129D01*
X117538284Y-102985627D01*
X117538285Y-102985627D01*
X117538288Y-102985626D01*
X117750000Y-102964774D01*
X117961713Y-102985626D01*
X117961713Y-102985626D01*
G37*
G36*
X105261713Y-102985626D02*
X105261716Y-102985627D01*
X105261717Y-102985627D01*
X105345786Y-103011129D01*
X105465299Y-103047383D01*
X105652921Y-103147669D01*
X105817371Y-103282629D01*
X105952332Y-103447081D01*
X106052616Y-103634699D01*
X106052617Y-103634703D01*
X106114373Y-103838283D01*
X106114374Y-103838288D01*
X106130000Y-103996945D01*
X106130000Y-104503056D01*
X106114374Y-104661713D01*
X106052617Y-104865299D01*
X105952331Y-105052921D01*
X105817371Y-105217371D01*
X105717567Y-105299277D01*
X105652919Y-105352332D01*
X105515440Y-105425815D01*
X105465298Y-105452617D01*
X105345785Y-105488871D01*
X105261716Y-105514373D01*
X105261715Y-105514373D01*
X105261712Y-105514374D01*
X105050000Y-105535226D01*
X104838287Y-105514374D01*
X104838284Y-105514373D01*
X104838283Y-105514373D01*
X104754214Y-105488871D01*
X104634701Y-105452617D01*
X104447079Y-105352331D01*
X104282629Y-105217371D01*
X104200723Y-105117567D01*
X104147668Y-105052919D01*
X104047384Y-104865299D01*
X104047383Y-104865298D01*
X104011129Y-104745785D01*
X103985627Y-104661716D01*
X103985627Y-104661715D01*
X103985626Y-104661712D01*
X103970000Y-104503055D01*
X103970000Y-103996944D01*
X103985626Y-103838287D01*
X104047383Y-103634701D01*
X104147670Y-103447079D01*
X104282630Y-103282629D01*
X104447080Y-103147669D01*
X104634702Y-103047383D01*
X104754215Y-103011129D01*
X104838284Y-102985627D01*
X104838285Y-102985627D01*
X104838288Y-102985626D01*
X105050000Y-102964774D01*
X105261713Y-102985626D01*
X105261713Y-102985626D01*
G37*
G36*
X115421713Y-102985626D02*
X115421716Y-102985627D01*
X115421717Y-102985627D01*
X115505786Y-103011129D01*
X115625299Y-103047383D01*
X115812921Y-103147669D01*
X115977371Y-103282629D01*
X116112332Y-103447081D01*
X116212616Y-103634699D01*
X116212617Y-103634703D01*
X116274373Y-103838283D01*
X116274374Y-103838288D01*
X116290000Y-103996945D01*
X116290000Y-104503056D01*
X116274374Y-104661713D01*
X116212617Y-104865299D01*
X116112331Y-105052921D01*
X115977371Y-105217371D01*
X115877567Y-105299277D01*
X115812919Y-105352332D01*
X115675440Y-105425815D01*
X115625298Y-105452617D01*
X115505785Y-105488871D01*
X115421716Y-105514373D01*
X115421715Y-105514373D01*
X115421712Y-105514374D01*
X115210000Y-105535226D01*
X114998287Y-105514374D01*
X114998284Y-105514373D01*
X114998283Y-105514373D01*
X114914214Y-105488871D01*
X114794701Y-105452617D01*
X114607079Y-105352331D01*
X114442629Y-105217371D01*
X114360723Y-105117567D01*
X114307668Y-105052919D01*
X114207384Y-104865299D01*
X114207383Y-104865298D01*
X114171129Y-104745785D01*
X114145627Y-104661716D01*
X114145627Y-104661715D01*
X114145626Y-104661712D01*
X114130000Y-104503055D01*
X114130000Y-103996944D01*
X114145626Y-103838287D01*
X114207383Y-103634701D01*
X114307670Y-103447079D01*
X114442630Y-103282629D01*
X114607080Y-103147669D01*
X114794702Y-103047383D01*
X114914215Y-103011129D01*
X114998284Y-102985627D01*
X114998285Y-102985627D01*
X114998288Y-102985626D01*
X115210000Y-102964774D01*
X115421713Y-102985626D01*
X115421713Y-102985626D01*
G37*
G36*
X57313488Y-95959659D02*
X57612558Y-96019147D01*
X58082088Y-96213633D01*
X58504654Y-96495983D01*
X58864017Y-96855346D01*
X59146367Y-97277912D01*
X59340853Y-97747442D01*
X59440000Y-98245892D01*
X59440000Y-98754108D01*
X59340853Y-99252558D01*
X59146367Y-99722088D01*
X58864017Y-100144654D01*
X58504654Y-100504017D01*
X58082088Y-100786367D01*
X57612558Y-100980853D01*
X57313488Y-101040341D01*
X57114110Y-101080000D01*
X56605890Y-101080000D01*
X56406512Y-101040341D01*
X56107442Y-100980853D01*
X55637912Y-100786367D01*
X55215346Y-100504017D01*
X54855983Y-100144654D01*
X54573633Y-99722088D01*
X54379147Y-99252558D01*
X54280000Y-98754108D01*
X54280000Y-98245892D01*
X54379147Y-97747442D01*
X54573633Y-97277912D01*
X54855983Y-96855346D01*
X55215346Y-96495983D01*
X55637912Y-96213633D01*
X56107442Y-96019147D01*
X56406512Y-95959659D01*
X56605890Y-95920000D01*
X57114110Y-95920000D01*
X57313488Y-95959659D01*
X57313488Y-95959659D01*
G37*
G36*
X106623359Y-95249189D02*
X106623361Y-95249190D01*
X106623362Y-95249190D01*
X106856307Y-95345679D01*
X107065952Y-95485759D01*
X107244241Y-95664048D01*
X107384321Y-95873693D01*
X107444570Y-96019147D01*
X107480811Y-96106641D01*
X107530000Y-96353929D01*
X107530000Y-96606069D01*
X107480810Y-96853362D01*
X107384321Y-97086307D01*
X107244241Y-97295952D01*
X107065952Y-97474241D01*
X106856307Y-97614321D01*
X106623362Y-97710810D01*
X106623361Y-97710810D01*
X106623359Y-97710811D01*
X106376071Y-97760000D01*
X106123929Y-97760000D01*
X105876641Y-97710811D01*
X105876639Y-97710810D01*
X105876638Y-97710810D01*
X105643693Y-97614321D01*
X105434048Y-97474241D01*
X105255759Y-97295952D01*
X105115679Y-97086307D01*
X105019190Y-96853362D01*
X104970000Y-96606069D01*
X104970000Y-96353929D01*
X105019189Y-96106641D01*
X105055430Y-96019147D01*
X105115679Y-95873693D01*
X105255759Y-95664048D01*
X105434048Y-95485759D01*
X105643693Y-95345679D01*
X105876638Y-95249190D01*
X105876639Y-95249190D01*
X105876641Y-95249189D01*
X106123929Y-95200000D01*
X106376071Y-95200000D01*
X106623359Y-95249189D01*
X106623359Y-95249189D01*
G37*
G36*
X83001713Y-93035626D02*
X83001716Y-93035627D01*
X83001717Y-93035627D01*
X83085786Y-93061129D01*
X83205299Y-93097383D01*
X83392921Y-93197669D01*
X83557371Y-93332629D01*
X83692332Y-93497081D01*
X83792616Y-93684699D01*
X83792617Y-93684703D01*
X83854373Y-93888283D01*
X83854374Y-93888288D01*
X83870000Y-94046945D01*
X83870000Y-94553056D01*
X83854374Y-94711713D01*
X83792617Y-94915299D01*
X83692331Y-95102921D01*
X83557371Y-95267371D01*
X83461951Y-95345679D01*
X83392919Y-95402332D01*
X83255440Y-95475815D01*
X83205298Y-95502617D01*
X83085785Y-95538871D01*
X83001716Y-95564373D01*
X83001715Y-95564373D01*
X83001712Y-95564374D01*
X82790000Y-95585226D01*
X82578287Y-95564374D01*
X82578284Y-95564373D01*
X82578283Y-95564373D01*
X82494214Y-95538871D01*
X82374701Y-95502617D01*
X82187079Y-95402331D01*
X82022629Y-95267371D01*
X81940723Y-95167567D01*
X81887668Y-95102919D01*
X81787384Y-94915299D01*
X81787383Y-94915298D01*
X81751129Y-94795785D01*
X81725627Y-94711716D01*
X81725627Y-94711715D01*
X81725626Y-94711712D01*
X81710000Y-94553055D01*
X81710000Y-94046944D01*
X81725626Y-93888287D01*
X81787383Y-93684701D01*
X81887670Y-93497079D01*
X82022630Y-93332629D01*
X82187080Y-93197669D01*
X82374702Y-93097383D01*
X82494215Y-93061129D01*
X82578284Y-93035627D01*
X82578285Y-93035627D01*
X82578288Y-93035626D01*
X82790000Y-93014774D01*
X83001713Y-93035626D01*
X83001713Y-93035626D01*
G37*
G36*
X80461713Y-93035626D02*
X80461716Y-93035627D01*
X80461717Y-93035627D01*
X80545786Y-93061129D01*
X80665299Y-93097383D01*
X80852921Y-93197669D01*
X81017371Y-93332629D01*
X81152332Y-93497081D01*
X81252616Y-93684699D01*
X81252617Y-93684703D01*
X81314373Y-93888283D01*
X81314374Y-93888288D01*
X81330000Y-94046945D01*
X81330000Y-94553056D01*
X81314374Y-94711713D01*
X81252617Y-94915299D01*
X81152331Y-95102921D01*
X81017371Y-95267371D01*
X80921951Y-95345679D01*
X80852919Y-95402332D01*
X80715440Y-95475815D01*
X80665298Y-95502617D01*
X80545785Y-95538871D01*
X80461716Y-95564373D01*
X80461715Y-95564373D01*
X80461712Y-95564374D01*
X80250000Y-95585226D01*
X80038287Y-95564374D01*
X80038284Y-95564373D01*
X80038283Y-95564373D01*
X79954214Y-95538871D01*
X79834701Y-95502617D01*
X79647079Y-95402331D01*
X79482629Y-95267371D01*
X79400723Y-95167567D01*
X79347668Y-95102919D01*
X79247384Y-94915299D01*
X79247383Y-94915298D01*
X79211129Y-94795785D01*
X79185627Y-94711716D01*
X79185627Y-94711715D01*
X79185626Y-94711712D01*
X79170000Y-94553055D01*
X79170000Y-94046944D01*
X79185626Y-93888287D01*
X79247383Y-93684701D01*
X79347670Y-93497079D01*
X79482630Y-93332629D01*
X79647080Y-93197669D01*
X79834702Y-93097383D01*
X79954215Y-93061129D01*
X80038284Y-93035627D01*
X80038285Y-93035627D01*
X80038288Y-93035626D01*
X80250000Y-93014774D01*
X80461713Y-93035626D01*
X80461713Y-93035626D01*
G37*
G36*
X85541713Y-93035626D02*
X85541716Y-93035627D01*
X85541717Y-93035627D01*
X85625786Y-93061129D01*
X85745299Y-93097383D01*
X85932921Y-93197669D01*
X86097371Y-93332629D01*
X86232332Y-93497081D01*
X86332616Y-93684699D01*
X86332617Y-93684703D01*
X86394373Y-93888283D01*
X86394374Y-93888288D01*
X86410000Y-94046945D01*
X86410000Y-94553056D01*
X86394374Y-94711713D01*
X86332617Y-94915299D01*
X86232331Y-95102921D01*
X86097371Y-95267371D01*
X86001951Y-95345679D01*
X85932919Y-95402332D01*
X85795440Y-95475815D01*
X85745298Y-95502617D01*
X85625785Y-95538871D01*
X85541716Y-95564373D01*
X85541715Y-95564373D01*
X85541712Y-95564374D01*
X85330000Y-95585226D01*
X85118287Y-95564374D01*
X85118284Y-95564373D01*
X85118283Y-95564373D01*
X85034214Y-95538871D01*
X84914701Y-95502617D01*
X84727079Y-95402331D01*
X84562629Y-95267371D01*
X84480723Y-95167567D01*
X84427668Y-95102919D01*
X84327384Y-94915299D01*
X84327383Y-94915298D01*
X84291129Y-94795785D01*
X84265627Y-94711716D01*
X84265627Y-94711715D01*
X84265626Y-94711712D01*
X84250000Y-94553055D01*
X84250000Y-94046944D01*
X84265626Y-93888287D01*
X84327383Y-93684701D01*
X84427670Y-93497079D01*
X84562630Y-93332629D01*
X84727080Y-93197669D01*
X84914702Y-93097383D01*
X85034215Y-93061129D01*
X85118284Y-93035627D01*
X85118285Y-93035627D01*
X85118288Y-93035626D01*
X85330000Y-93014774D01*
X85541713Y-93035626D01*
X85541713Y-93035626D01*
G37*
G36*
X49965157Y-88682878D02*
X50082614Y-88718508D01*
X50190876Y-88776375D01*
X50285758Y-88854242D01*
X50363625Y-88949124D01*
X50421492Y-89057386D01*
X50457122Y-89174843D01*
X50470000Y-89305594D01*
X50470000Y-91694406D01*
X50457122Y-91825157D01*
X50421492Y-91942614D01*
X50363625Y-92050876D01*
X50285758Y-92145758D01*
X50190876Y-92223625D01*
X50082614Y-92281492D01*
X49965157Y-92317122D01*
X49834406Y-92330000D01*
X47445594Y-92330000D01*
X47314843Y-92317122D01*
X47197386Y-92281492D01*
X47089124Y-92223625D01*
X46994242Y-92145758D01*
X46916375Y-92050876D01*
X46858508Y-91942614D01*
X46822878Y-91825157D01*
X46810000Y-91694406D01*
X46810000Y-89305594D01*
X46822878Y-89174843D01*
X46858508Y-89057386D01*
X46916375Y-88949124D01*
X46994242Y-88854242D01*
X47089124Y-88776375D01*
X47197386Y-88718508D01*
X47314843Y-88682878D01*
X47445594Y-88670000D01*
X49834406Y-88670000D01*
X49965157Y-88682878D01*
X49965157Y-88682878D01*
G37*
G36*
X122185157Y-88682878D02*
X122302614Y-88718508D01*
X122410876Y-88776375D01*
X122505758Y-88854242D01*
X122583625Y-88949124D01*
X122641492Y-89057386D01*
X122677122Y-89174843D01*
X122690000Y-89305594D01*
X122690000Y-91694406D01*
X122677122Y-91825157D01*
X122641492Y-91942614D01*
X122583625Y-92050876D01*
X122505758Y-92145758D01*
X122410876Y-92223625D01*
X122302614Y-92281492D01*
X122185157Y-92317122D01*
X122054406Y-92330000D01*
X119665594Y-92330000D01*
X119534843Y-92317122D01*
X119417386Y-92281492D01*
X119309124Y-92223625D01*
X119214242Y-92145758D01*
X119136375Y-92050876D01*
X119078508Y-91942614D01*
X119042878Y-91825157D01*
X119030000Y-91694406D01*
X119030000Y-89305594D01*
X119042878Y-89174843D01*
X119078508Y-89057386D01*
X119136375Y-88949124D01*
X119214242Y-88854242D01*
X119309124Y-88776375D01*
X119417386Y-88718508D01*
X119534843Y-88682878D01*
X119665594Y-88670000D01*
X122054406Y-88670000D01*
X122185157Y-88682878D01*
X122185157Y-88682878D01*
G37*
G36*
X57830000Y-91580000D02*
X55670000Y-91580000D01*
X55670000Y-89420000D01*
X57830000Y-89420000D01*
X57830000Y-91580000D01*
X57830000Y-91580000D01*
G37*
G36*
X108939832Y-89436601D02*
X109065024Y-89461503D01*
X109261572Y-89542916D01*
X109438460Y-89661109D01*
X109588891Y-89811540D01*
X109707084Y-89988428D01*
X109788497Y-90184976D01*
X109830000Y-90393629D01*
X109830000Y-90606371D01*
X109788497Y-90815024D01*
X109707084Y-91011572D01*
X109588891Y-91188460D01*
X109438460Y-91338891D01*
X109261572Y-91457084D01*
X109065024Y-91538497D01*
X108939832Y-91563399D01*
X108856373Y-91580000D01*
X108643627Y-91580000D01*
X108560168Y-91563399D01*
X108434976Y-91538497D01*
X108238428Y-91457084D01*
X108061540Y-91338891D01*
X107911109Y-91188460D01*
X107792916Y-91011572D01*
X107711503Y-90815024D01*
X107670000Y-90606371D01*
X107670000Y-90393629D01*
X107711503Y-90184976D01*
X107792916Y-89988428D01*
X107911109Y-89811540D01*
X108061540Y-89661109D01*
X108238428Y-89542916D01*
X108434976Y-89461503D01*
X108560168Y-89436601D01*
X108643627Y-89420000D01*
X108856373Y-89420000D01*
X108939832Y-89436601D01*
X108939832Y-89436601D01*
G37*
G36*
X39661713Y-88995626D02*
X39661716Y-88995627D01*
X39661717Y-88995627D01*
X39745786Y-89021129D01*
X39865299Y-89057383D01*
X40052921Y-89157669D01*
X40217371Y-89292629D01*
X40352331Y-89457079D01*
X40452617Y-89644701D01*
X40514374Y-89848287D01*
X40535226Y-90060000D01*
X40514374Y-90271713D01*
X40452617Y-90475299D01*
X40352331Y-90662921D01*
X40217371Y-90827371D01*
X40052921Y-90962331D01*
X39865299Y-91062617D01*
X39745786Y-91098871D01*
X39661717Y-91124373D01*
X39661716Y-91124373D01*
X39661713Y-91124374D01*
X39503056Y-91140000D01*
X38996944Y-91140000D01*
X38838287Y-91124374D01*
X38838284Y-91124373D01*
X38838283Y-91124373D01*
X38754214Y-91098871D01*
X38634701Y-91062617D01*
X38447079Y-90962331D01*
X38282629Y-90827371D01*
X38147669Y-90662921D01*
X38047383Y-90475299D01*
X37985626Y-90271713D01*
X37964774Y-90060000D01*
X37985626Y-89848287D01*
X38047383Y-89644701D01*
X38147669Y-89457079D01*
X38282629Y-89292629D01*
X38447079Y-89157669D01*
X38634701Y-89057383D01*
X38754214Y-89021129D01*
X38838283Y-88995627D01*
X38838284Y-88995627D01*
X38838287Y-88995626D01*
X38996944Y-88980000D01*
X39503056Y-88980000D01*
X39661713Y-88995626D01*
X39661713Y-88995626D01*
G37*
G36*
X39661713Y-86455626D02*
X39661716Y-86455627D01*
X39661717Y-86455627D01*
X39745786Y-86481129D01*
X39865299Y-86517383D01*
X40052921Y-86617669D01*
X40217371Y-86752629D01*
X40352331Y-86917079D01*
X40452617Y-87104701D01*
X40514374Y-87308287D01*
X40535226Y-87520000D01*
X40514374Y-87731713D01*
X40514373Y-87731716D01*
X40514373Y-87731717D01*
X40498141Y-87785225D01*
X40452617Y-87935299D01*
X40352331Y-88122921D01*
X40217371Y-88287371D01*
X40052921Y-88422331D01*
X39865299Y-88522617D01*
X39745786Y-88558871D01*
X39661717Y-88584373D01*
X39661716Y-88584373D01*
X39661713Y-88584374D01*
X39503056Y-88600000D01*
X38996944Y-88600000D01*
X38838287Y-88584374D01*
X38838284Y-88584373D01*
X38838283Y-88584373D01*
X38754214Y-88558871D01*
X38634701Y-88522617D01*
X38447079Y-88422331D01*
X38282629Y-88287371D01*
X38147669Y-88122921D01*
X38047383Y-87935299D01*
X38001859Y-87785225D01*
X37985627Y-87731717D01*
X37985627Y-87731716D01*
X37985626Y-87731713D01*
X37964774Y-87520000D01*
X37985626Y-87308287D01*
X38047383Y-87104701D01*
X38147669Y-86917079D01*
X38282629Y-86752629D01*
X38447079Y-86617669D01*
X38634701Y-86517383D01*
X38754214Y-86481129D01*
X38838283Y-86455627D01*
X38838284Y-86455627D01*
X38838287Y-86455626D01*
X38996944Y-86440000D01*
X39503056Y-86440000D01*
X39661713Y-86455626D01*
X39661713Y-86455626D01*
G37*
G36*
X102711712Y-85235626D02*
X102711715Y-85235627D01*
X102711716Y-85235627D01*
X102795785Y-85261129D01*
X102915298Y-85297383D01*
X102965440Y-85324185D01*
X103102919Y-85397668D01*
X103167567Y-85450723D01*
X103267371Y-85532629D01*
X103402331Y-85697079D01*
X103502617Y-85884701D01*
X103564374Y-86088287D01*
X103580000Y-86246944D01*
X103580000Y-86753055D01*
X103564374Y-86911712D01*
X103564373Y-86911715D01*
X103564373Y-86911716D01*
X103533495Y-87013507D01*
X103502616Y-87115301D01*
X103402332Y-87302919D01*
X103267371Y-87467371D01*
X103102921Y-87602331D01*
X102915299Y-87702617D01*
X102819382Y-87731713D01*
X102711717Y-87764373D01*
X102711716Y-87764373D01*
X102711713Y-87764374D01*
X102500000Y-87785226D01*
X102288288Y-87764374D01*
X102288285Y-87764373D01*
X102288284Y-87764373D01*
X102180619Y-87731713D01*
X102084702Y-87702617D01*
X101897080Y-87602331D01*
X101732630Y-87467371D01*
X101597670Y-87302921D01*
X101497383Y-87115299D01*
X101435626Y-86911713D01*
X101420000Y-86753056D01*
X101420000Y-86246945D01*
X101435626Y-86088288D01*
X101435628Y-86088283D01*
X101497383Y-85884703D01*
X101497383Y-85884702D01*
X101524185Y-85834559D01*
X101597668Y-85697081D01*
X101650723Y-85632433D01*
X101732629Y-85532629D01*
X101897079Y-85397669D01*
X102084701Y-85297383D01*
X102204214Y-85261129D01*
X102288283Y-85235627D01*
X102288284Y-85235627D01*
X102288287Y-85235626D01*
X102500000Y-85214774D01*
X102711712Y-85235626D01*
X102711712Y-85235626D01*
G37*
G36*
X100171712Y-85235626D02*
X100171715Y-85235627D01*
X100171716Y-85235627D01*
X100255785Y-85261129D01*
X100375298Y-85297383D01*
X100425440Y-85324185D01*
X100562919Y-85397668D01*
X100627567Y-85450723D01*
X100727371Y-85532629D01*
X100862331Y-85697079D01*
X100962617Y-85884701D01*
X101024374Y-86088287D01*
X101040000Y-86246944D01*
X101040000Y-86753055D01*
X101024374Y-86911712D01*
X101024373Y-86911715D01*
X101024373Y-86911716D01*
X100993495Y-87013507D01*
X100962616Y-87115301D01*
X100862332Y-87302919D01*
X100727371Y-87467371D01*
X100562921Y-87602331D01*
X100375299Y-87702617D01*
X100279382Y-87731713D01*
X100171717Y-87764373D01*
X100171716Y-87764373D01*
X100171713Y-87764374D01*
X99960000Y-87785226D01*
X99748288Y-87764374D01*
X99748285Y-87764373D01*
X99748284Y-87764373D01*
X99640619Y-87731713D01*
X99544702Y-87702617D01*
X99357080Y-87602331D01*
X99192630Y-87467371D01*
X99057670Y-87302921D01*
X98957383Y-87115299D01*
X98895626Y-86911713D01*
X98880000Y-86753056D01*
X98880000Y-86246945D01*
X98895626Y-86088288D01*
X98895628Y-86088283D01*
X98957383Y-85884703D01*
X98957383Y-85884702D01*
X98984185Y-85834559D01*
X99057668Y-85697081D01*
X99110723Y-85632433D01*
X99192629Y-85532629D01*
X99357079Y-85397669D01*
X99544701Y-85297383D01*
X99664214Y-85261129D01*
X99748283Y-85235627D01*
X99748284Y-85235627D01*
X99748287Y-85235626D01*
X99960000Y-85214774D01*
X100171712Y-85235626D01*
X100171712Y-85235626D01*
G37*
G36*
X39661713Y-83915626D02*
X39661716Y-83915627D01*
X39661717Y-83915627D01*
X39745786Y-83941129D01*
X39865299Y-83977383D01*
X40052921Y-84077669D01*
X40217371Y-84212629D01*
X40352331Y-84377079D01*
X40452617Y-84564701D01*
X40514374Y-84768287D01*
X40535226Y-84980000D01*
X40514374Y-85191713D01*
X40452617Y-85395299D01*
X40352331Y-85582921D01*
X40217371Y-85747371D01*
X40052921Y-85882331D01*
X39865299Y-85982617D01*
X39745786Y-86018871D01*
X39661717Y-86044373D01*
X39661716Y-86044373D01*
X39661713Y-86044374D01*
X39503056Y-86060000D01*
X38996944Y-86060000D01*
X38838287Y-86044374D01*
X38838284Y-86044373D01*
X38838283Y-86044373D01*
X38754214Y-86018871D01*
X38634701Y-85982617D01*
X38447079Y-85882331D01*
X38282629Y-85747371D01*
X38147669Y-85582921D01*
X38047383Y-85395299D01*
X37985626Y-85191713D01*
X37964774Y-84980000D01*
X37985626Y-84768287D01*
X38047383Y-84564701D01*
X38147669Y-84377079D01*
X38282629Y-84212629D01*
X38447079Y-84077669D01*
X38634701Y-83977383D01*
X38754214Y-83941129D01*
X38838283Y-83915627D01*
X38838284Y-83915627D01*
X38838287Y-83915626D01*
X38996944Y-83900000D01*
X39503056Y-83900000D01*
X39661713Y-83915626D01*
X39661713Y-83915626D01*
G37*
G36*
X59623359Y-83289189D02*
X59623361Y-83289190D01*
X59623362Y-83289190D01*
X59856307Y-83385679D01*
X60065952Y-83525759D01*
X60244241Y-83704048D01*
X60384321Y-83913693D01*
X60467971Y-84115643D01*
X60480811Y-84146641D01*
X60530000Y-84393929D01*
X60530000Y-84646071D01*
X60502094Y-84786365D01*
X60480810Y-84893362D01*
X60384321Y-85126307D01*
X60244241Y-85335952D01*
X60065952Y-85514241D01*
X59856307Y-85654321D01*
X59623362Y-85750810D01*
X59623361Y-85750810D01*
X59623359Y-85750811D01*
X59376071Y-85800000D01*
X59123929Y-85800000D01*
X58876641Y-85750811D01*
X58876639Y-85750810D01*
X58876638Y-85750810D01*
X58643693Y-85654321D01*
X58434048Y-85514241D01*
X58255759Y-85335952D01*
X58115679Y-85126307D01*
X58019190Y-84893362D01*
X57997907Y-84786365D01*
X57970000Y-84646071D01*
X57970000Y-84393929D01*
X58019189Y-84146641D01*
X58032029Y-84115643D01*
X58115679Y-83913693D01*
X58255759Y-83704048D01*
X58434048Y-83525759D01*
X58643693Y-83385679D01*
X58876638Y-83289190D01*
X58876639Y-83289190D01*
X58876641Y-83289189D01*
X59123929Y-83240000D01*
X59376071Y-83240000D01*
X59623359Y-83289189D01*
X59623359Y-83289189D01*
G37*
G36*
X112513488Y-79959659D02*
X112812558Y-80019147D01*
X113282088Y-80213633D01*
X113704654Y-80495983D01*
X114064017Y-80855346D01*
X114346367Y-81277912D01*
X114540853Y-81747442D01*
X114596003Y-82024701D01*
X114636499Y-82228287D01*
X114640000Y-82245892D01*
X114640000Y-82754108D01*
X114540853Y-83252558D01*
X114346367Y-83722088D01*
X114064017Y-84144654D01*
X113704654Y-84504017D01*
X113282088Y-84786367D01*
X112812558Y-84980853D01*
X112513488Y-85040341D01*
X112314110Y-85080000D01*
X111805890Y-85080000D01*
X111606512Y-85040341D01*
X111307442Y-84980853D01*
X110837912Y-84786367D01*
X110415346Y-84504017D01*
X110055983Y-84144654D01*
X109773633Y-83722088D01*
X109579147Y-83252558D01*
X109480000Y-82754108D01*
X109480000Y-82245892D01*
X109483502Y-82228287D01*
X109523997Y-82024701D01*
X109579147Y-81747442D01*
X109773633Y-81277912D01*
X110055983Y-80855346D01*
X110415346Y-80495983D01*
X110837912Y-80213633D01*
X111307442Y-80019147D01*
X111606512Y-79959659D01*
X111805890Y-79920000D01*
X112314110Y-79920000D01*
X112513488Y-79959659D01*
X112513488Y-79959659D01*
G37*
G36*
X49246710Y-80499932D02*
X49246711Y-80499932D01*
X49246714Y-80499933D01*
X49625249Y-80656728D01*
X49625251Y-80656729D01*
X49965921Y-80884357D01*
X50255643Y-81174079D01*
X50483271Y-81514749D01*
X50483272Y-81514751D01*
X50640067Y-81893286D01*
X50640068Y-81893289D01*
X50640068Y-81893290D01*
X50720000Y-82295136D01*
X50720000Y-82704864D01*
X50652757Y-83042919D01*
X50640067Y-83106714D01*
X50542470Y-83342332D01*
X50483271Y-83485251D01*
X50255643Y-83825921D01*
X49965921Y-84115643D01*
X49625251Y-84343271D01*
X49625250Y-84343272D01*
X49625249Y-84343272D01*
X49246714Y-84500067D01*
X49246711Y-84500068D01*
X49246710Y-84500068D01*
X48844864Y-84580000D01*
X48435136Y-84580000D01*
X48033290Y-84500068D01*
X48033289Y-84500068D01*
X48033286Y-84500067D01*
X47654751Y-84343272D01*
X47654750Y-84343272D01*
X47654749Y-84343271D01*
X47314079Y-84115643D01*
X47024357Y-83825921D01*
X46796729Y-83485251D01*
X46737530Y-83342332D01*
X46639933Y-83106714D01*
X46627243Y-83042919D01*
X46560000Y-82704864D01*
X46560000Y-82295136D01*
X46639932Y-81893290D01*
X46639932Y-81893289D01*
X46639933Y-81893286D01*
X46796728Y-81514751D01*
X46796729Y-81514749D01*
X47024357Y-81174079D01*
X47314079Y-80884357D01*
X47654749Y-80656729D01*
X47654751Y-80656728D01*
X48033286Y-80499933D01*
X48033289Y-80499932D01*
X48033290Y-80499932D01*
X48435136Y-80420000D01*
X48844864Y-80420000D01*
X49246710Y-80499932D01*
X49246710Y-80499932D01*
G37*
G36*
X39661713Y-81375626D02*
X39661716Y-81375627D01*
X39661717Y-81375627D01*
X39745786Y-81401129D01*
X39865299Y-81437383D01*
X40052921Y-81537669D01*
X40217371Y-81672629D01*
X40352331Y-81837079D01*
X40452617Y-82024701D01*
X40514374Y-82228287D01*
X40535226Y-82440000D01*
X40514374Y-82651713D01*
X40514373Y-82651716D01*
X40514373Y-82651717D01*
X40498251Y-82704864D01*
X40452617Y-82855299D01*
X40352331Y-83042921D01*
X40217371Y-83207371D01*
X40052921Y-83342331D01*
X39865299Y-83442617D01*
X39745786Y-83478871D01*
X39661717Y-83504373D01*
X39661716Y-83504373D01*
X39661713Y-83504374D01*
X39503056Y-83520000D01*
X38996944Y-83520000D01*
X38838287Y-83504374D01*
X38838284Y-83504373D01*
X38838283Y-83504373D01*
X38754214Y-83478871D01*
X38634701Y-83442617D01*
X38447079Y-83342331D01*
X38282629Y-83207371D01*
X38147669Y-83042921D01*
X38047383Y-82855299D01*
X38001749Y-82704864D01*
X37985627Y-82651717D01*
X37985627Y-82651716D01*
X37985626Y-82651713D01*
X37964774Y-82440000D01*
X37985626Y-82228287D01*
X38047383Y-82024701D01*
X38147669Y-81837079D01*
X38282629Y-81672629D01*
X38447079Y-81537669D01*
X38634701Y-81437383D01*
X38754214Y-81401129D01*
X38838283Y-81375627D01*
X38838284Y-81375627D01*
X38838287Y-81375626D01*
X38996944Y-81360000D01*
X39503056Y-81360000D01*
X39661713Y-81375626D01*
X39661713Y-81375626D01*
G37*
G36*
X39661713Y-78835626D02*
X39661716Y-78835627D01*
X39661717Y-78835627D01*
X39745786Y-78861129D01*
X39865299Y-78897383D01*
X40052921Y-78997669D01*
X40217371Y-79132629D01*
X40352331Y-79297079D01*
X40452617Y-79484701D01*
X40514374Y-79688287D01*
X40535226Y-79900000D01*
X40514374Y-80111713D01*
X40452617Y-80315299D01*
X40352331Y-80502921D01*
X40217371Y-80667371D01*
X40052921Y-80802331D01*
X39865299Y-80902617D01*
X39745786Y-80938871D01*
X39661717Y-80964373D01*
X39661716Y-80964373D01*
X39661713Y-80964374D01*
X39503056Y-80980000D01*
X38996944Y-80980000D01*
X38838287Y-80964374D01*
X38838284Y-80964373D01*
X38838283Y-80964373D01*
X38754214Y-80938871D01*
X38634701Y-80902617D01*
X38447079Y-80802331D01*
X38282629Y-80667371D01*
X38147669Y-80502921D01*
X38047383Y-80315299D01*
X37985626Y-80111713D01*
X37964774Y-79900000D01*
X37985626Y-79688287D01*
X38047383Y-79484701D01*
X38147669Y-79297079D01*
X38282629Y-79132629D01*
X38447079Y-78997669D01*
X38634701Y-78897383D01*
X38754214Y-78861129D01*
X38838283Y-78835627D01*
X38838284Y-78835627D01*
X38838287Y-78835626D01*
X38996944Y-78820000D01*
X39503056Y-78820000D01*
X39661713Y-78835626D01*
X39661713Y-78835626D01*
G37*
G36*
X39661713Y-76295626D02*
X39661716Y-76295627D01*
X39661717Y-76295627D01*
X39745786Y-76321129D01*
X39865299Y-76357383D01*
X40052921Y-76457669D01*
X40217371Y-76592629D01*
X40352331Y-76757079D01*
X40452617Y-76944701D01*
X40514374Y-77148287D01*
X40535226Y-77360000D01*
X40514374Y-77571713D01*
X40452617Y-77775299D01*
X40352331Y-77962921D01*
X40217371Y-78127371D01*
X40052921Y-78262331D01*
X39865299Y-78362617D01*
X39745786Y-78398871D01*
X39661717Y-78424373D01*
X39661716Y-78424373D01*
X39661713Y-78424374D01*
X39503056Y-78440000D01*
X38996944Y-78440000D01*
X38838287Y-78424374D01*
X38838284Y-78424373D01*
X38838283Y-78424373D01*
X38754214Y-78398871D01*
X38634701Y-78362617D01*
X38447079Y-78262331D01*
X38282629Y-78127371D01*
X38147669Y-77962921D01*
X38047383Y-77775299D01*
X37985626Y-77571713D01*
X37964774Y-77360000D01*
X37985626Y-77148287D01*
X38047383Y-76944701D01*
X38147669Y-76757079D01*
X38282629Y-76592629D01*
X38447079Y-76457669D01*
X38634701Y-76357383D01*
X38754214Y-76321129D01*
X38838283Y-76295627D01*
X38838284Y-76295627D01*
X38838287Y-76295626D01*
X38996944Y-76280000D01*
X39503056Y-76280000D01*
X39661713Y-76295626D01*
X39661713Y-76295626D01*
G37*
G36*
X116511713Y-73755626D02*
X116511716Y-73755627D01*
X116511717Y-73755627D01*
X116595786Y-73781129D01*
X116715299Y-73817383D01*
X116902921Y-73917669D01*
X117067371Y-74052629D01*
X117202331Y-74217079D01*
X117302617Y-74404701D01*
X117364374Y-74608287D01*
X117385226Y-74820000D01*
X117364374Y-75031713D01*
X117302617Y-75235299D01*
X117202331Y-75422921D01*
X117067371Y-75587371D01*
X116902921Y-75722331D01*
X116715299Y-75822617D01*
X116595786Y-75858871D01*
X116511717Y-75884373D01*
X116511716Y-75884373D01*
X116511713Y-75884374D01*
X116353056Y-75900000D01*
X116046944Y-75900000D01*
X115888287Y-75884374D01*
X115888284Y-75884373D01*
X115888283Y-75884373D01*
X115804214Y-75858871D01*
X115684701Y-75822617D01*
X115497079Y-75722331D01*
X115332629Y-75587371D01*
X115197669Y-75422921D01*
X115097383Y-75235299D01*
X115035626Y-75031713D01*
X115014774Y-74820000D01*
X115035626Y-74608287D01*
X115097383Y-74404701D01*
X115197669Y-74217079D01*
X115332629Y-74052629D01*
X115497079Y-73917669D01*
X115684701Y-73817383D01*
X115804214Y-73781129D01*
X115888283Y-73755627D01*
X115888284Y-73755627D01*
X115888287Y-73755626D01*
X116046944Y-73740000D01*
X116353056Y-73740000D01*
X116511713Y-73755626D01*
X116511713Y-73755626D01*
G37*
G36*
X39661713Y-73755626D02*
X39661716Y-73755627D01*
X39661717Y-73755627D01*
X39745786Y-73781129D01*
X39865299Y-73817383D01*
X40052921Y-73917669D01*
X40217371Y-74052629D01*
X40352331Y-74217079D01*
X40452617Y-74404701D01*
X40514374Y-74608287D01*
X40535226Y-74820000D01*
X40514374Y-75031713D01*
X40452617Y-75235299D01*
X40352331Y-75422921D01*
X40217371Y-75587371D01*
X40052921Y-75722331D01*
X39865299Y-75822617D01*
X39745786Y-75858871D01*
X39661717Y-75884373D01*
X39661716Y-75884373D01*
X39661713Y-75884374D01*
X39503056Y-75900000D01*
X38996944Y-75900000D01*
X38838287Y-75884374D01*
X38838284Y-75884373D01*
X38838283Y-75884373D01*
X38754214Y-75858871D01*
X38634701Y-75822617D01*
X38447079Y-75722331D01*
X38282629Y-75587371D01*
X38147669Y-75422921D01*
X38047383Y-75235299D01*
X37985626Y-75031713D01*
X37964774Y-74820000D01*
X37985626Y-74608287D01*
X38047383Y-74404701D01*
X38147669Y-74217079D01*
X38282629Y-74052629D01*
X38447079Y-73917669D01*
X38634701Y-73817383D01*
X38754214Y-73781129D01*
X38838283Y-73755627D01*
X38838284Y-73755627D01*
X38838287Y-73755626D01*
X38996944Y-73740000D01*
X39503056Y-73740000D01*
X39661713Y-73755626D01*
X39661713Y-73755626D01*
G37*
G36*
X131951713Y-73755626D02*
X131951716Y-73755627D01*
X131951717Y-73755627D01*
X132035786Y-73781129D01*
X132155299Y-73817383D01*
X132342921Y-73917669D01*
X132507371Y-74052629D01*
X132642331Y-74217079D01*
X132742617Y-74404701D01*
X132804374Y-74608287D01*
X132825226Y-74820000D01*
X132804374Y-75031713D01*
X132742617Y-75235299D01*
X132642331Y-75422921D01*
X132507371Y-75587371D01*
X132342921Y-75722331D01*
X132155299Y-75822617D01*
X132035786Y-75858871D01*
X131951717Y-75884373D01*
X131951716Y-75884373D01*
X131951713Y-75884374D01*
X131793056Y-75900000D01*
X131286944Y-75900000D01*
X131128287Y-75884374D01*
X131128284Y-75884373D01*
X131128283Y-75884373D01*
X131044214Y-75858871D01*
X130924701Y-75822617D01*
X130737079Y-75722331D01*
X130572629Y-75587371D01*
X130437669Y-75422921D01*
X130337383Y-75235299D01*
X130275626Y-75031713D01*
X130254774Y-74820000D01*
X130275626Y-74608287D01*
X130337383Y-74404701D01*
X130437669Y-74217079D01*
X130572629Y-74052629D01*
X130737079Y-73917669D01*
X130924701Y-73817383D01*
X131044214Y-73781129D01*
X131128283Y-73755627D01*
X131128284Y-73755627D01*
X131128287Y-73755626D01*
X131286944Y-73740000D01*
X131793056Y-73740000D01*
X131951713Y-73755626D01*
X131951713Y-73755626D01*
G37*
G36*
X106896270Y-73824018D02*
X106927242Y-73833414D01*
X106955782Y-73848669D01*
X106980800Y-73869200D01*
X107001331Y-73894218D01*
X107016586Y-73922758D01*
X107025982Y-73953730D01*
X107030000Y-73994529D01*
X107030000Y-75405471D01*
X107025982Y-75446270D01*
X107016586Y-75477242D01*
X107001331Y-75505782D01*
X106980800Y-75530800D01*
X106955782Y-75551331D01*
X106927242Y-75566586D01*
X106896270Y-75575982D01*
X106855471Y-75580000D01*
X105644529Y-75580000D01*
X105603730Y-75575982D01*
X105572758Y-75566586D01*
X105544218Y-75551331D01*
X105519200Y-75530800D01*
X105498669Y-75505782D01*
X105483414Y-75477242D01*
X105474018Y-75446270D01*
X105470000Y-75405471D01*
X105470000Y-73994529D01*
X105474018Y-73953730D01*
X105483414Y-73922758D01*
X105498669Y-73894218D01*
X105519200Y-73869200D01*
X105544218Y-73848669D01*
X105572758Y-73833414D01*
X105603730Y-73824018D01*
X105644529Y-73820000D01*
X106855471Y-73820000D01*
X106896270Y-73824018D01*
X106896270Y-73824018D01*
G37*
G36*
X109896270Y-73824018D02*
X109927242Y-73833414D01*
X109955782Y-73848669D01*
X109980800Y-73869200D01*
X110001331Y-73894218D01*
X110016586Y-73922758D01*
X110025982Y-73953730D01*
X110030000Y-73994529D01*
X110030000Y-75405471D01*
X110025982Y-75446270D01*
X110016586Y-75477242D01*
X110001331Y-75505782D01*
X109980800Y-75530800D01*
X109955782Y-75551331D01*
X109927242Y-75566586D01*
X109896270Y-75575982D01*
X109855471Y-75580000D01*
X108644529Y-75580000D01*
X108603730Y-75575982D01*
X108572758Y-75566586D01*
X108544218Y-75551331D01*
X108519200Y-75530800D01*
X108498669Y-75505782D01*
X108483414Y-75477242D01*
X108474018Y-75446270D01*
X108470000Y-75405471D01*
X108470000Y-73994529D01*
X108474018Y-73953730D01*
X108483414Y-73922758D01*
X108498669Y-73894218D01*
X108519200Y-73869200D01*
X108544218Y-73848669D01*
X108572758Y-73833414D01*
X108603730Y-73824018D01*
X108644529Y-73820000D01*
X109855471Y-73820000D01*
X109896270Y-73824018D01*
X109896270Y-73824018D01*
G37*
G36*
X112896270Y-73824018D02*
X112927242Y-73833414D01*
X112955782Y-73848669D01*
X112980800Y-73869200D01*
X113001331Y-73894218D01*
X113016586Y-73922758D01*
X113025982Y-73953730D01*
X113030000Y-73994529D01*
X113030000Y-75405471D01*
X113025982Y-75446270D01*
X113016586Y-75477242D01*
X113001331Y-75505782D01*
X112980800Y-75530800D01*
X112955782Y-75551331D01*
X112927242Y-75566586D01*
X112896270Y-75575982D01*
X112855471Y-75580000D01*
X111644529Y-75580000D01*
X111603730Y-75575982D01*
X111572758Y-75566586D01*
X111544218Y-75551331D01*
X111519200Y-75530800D01*
X111498669Y-75505782D01*
X111483414Y-75477242D01*
X111474018Y-75446270D01*
X111470000Y-75405471D01*
X111470000Y-73994529D01*
X111474018Y-73953730D01*
X111483414Y-73922758D01*
X111498669Y-73894218D01*
X111519200Y-73869200D01*
X111544218Y-73848669D01*
X111572758Y-73833414D01*
X111603730Y-73824018D01*
X111644529Y-73820000D01*
X112855471Y-73820000D01*
X112896270Y-73824018D01*
X112896270Y-73824018D01*
G37*
G36*
X65330000Y-73980000D02*
X62770000Y-73980000D01*
X62770000Y-72520000D01*
X65330000Y-72520000D01*
X65330000Y-73980000D01*
X65330000Y-73980000D01*
G37*
G36*
X49730000Y-73980000D02*
X47170000Y-73980000D01*
X47170000Y-72520000D01*
X49730000Y-72520000D01*
X49730000Y-73980000D01*
X49730000Y-73980000D01*
G37*
G36*
X116511713Y-71215626D02*
X116511716Y-71215627D01*
X116511717Y-71215627D01*
X116595786Y-71241129D01*
X116715299Y-71277383D01*
X116902921Y-71377669D01*
X117067371Y-71512629D01*
X117202331Y-71677079D01*
X117302617Y-71864701D01*
X117364374Y-72068287D01*
X117385226Y-72280000D01*
X117364374Y-72491713D01*
X117302617Y-72695299D01*
X117202331Y-72882921D01*
X117067371Y-73047371D01*
X116902921Y-73182331D01*
X116715299Y-73282617D01*
X116595786Y-73318871D01*
X116511717Y-73344373D01*
X116511716Y-73344373D01*
X116511713Y-73344374D01*
X116353056Y-73360000D01*
X116046944Y-73360000D01*
X115888287Y-73344374D01*
X115888284Y-73344373D01*
X115888283Y-73344373D01*
X115804214Y-73318871D01*
X115684701Y-73282617D01*
X115497079Y-73182331D01*
X115332629Y-73047371D01*
X115197669Y-72882921D01*
X115097383Y-72695299D01*
X115035626Y-72491713D01*
X115014774Y-72280000D01*
X115035626Y-72068287D01*
X115097383Y-71864701D01*
X115197669Y-71677079D01*
X115332629Y-71512629D01*
X115497079Y-71377669D01*
X115684701Y-71277383D01*
X115804214Y-71241129D01*
X115888283Y-71215627D01*
X115888284Y-71215627D01*
X115888287Y-71215626D01*
X116046944Y-71200000D01*
X116353056Y-71200000D01*
X116511713Y-71215626D01*
X116511713Y-71215626D01*
G37*
G36*
X131951713Y-71215626D02*
X131951716Y-71215627D01*
X131951717Y-71215627D01*
X132035786Y-71241129D01*
X132155299Y-71277383D01*
X132342921Y-71377669D01*
X132507371Y-71512629D01*
X132642331Y-71677079D01*
X132742617Y-71864701D01*
X132804374Y-72068287D01*
X132825226Y-72280000D01*
X132804374Y-72491713D01*
X132742617Y-72695299D01*
X132642331Y-72882921D01*
X132507371Y-73047371D01*
X132342921Y-73182331D01*
X132155299Y-73282617D01*
X132035786Y-73318871D01*
X131951717Y-73344373D01*
X131951716Y-73344373D01*
X131951713Y-73344374D01*
X131793056Y-73360000D01*
X131286944Y-73360000D01*
X131128287Y-73344374D01*
X131128284Y-73344373D01*
X131128283Y-73344373D01*
X131044214Y-73318871D01*
X130924701Y-73282617D01*
X130737079Y-73182331D01*
X130572629Y-73047371D01*
X130437669Y-72882921D01*
X130337383Y-72695299D01*
X130275626Y-72491713D01*
X130254774Y-72280000D01*
X130275626Y-72068287D01*
X130337383Y-71864701D01*
X130437669Y-71677079D01*
X130572629Y-71512629D01*
X130737079Y-71377669D01*
X130924701Y-71277383D01*
X131044214Y-71241129D01*
X131128283Y-71215627D01*
X131128284Y-71215627D01*
X131128287Y-71215626D01*
X131286944Y-71200000D01*
X131793056Y-71200000D01*
X131951713Y-71215626D01*
X131951713Y-71215626D01*
G37*
G36*
X112896270Y-71424018D02*
X112927242Y-71433414D01*
X112955782Y-71448669D01*
X112980800Y-71469200D01*
X113001331Y-71494218D01*
X113016586Y-71522758D01*
X113025982Y-71553730D01*
X113030000Y-71594529D01*
X113030000Y-73005471D01*
X113025982Y-73046270D01*
X113016586Y-73077242D01*
X113001331Y-73105782D01*
X112980800Y-73130800D01*
X112955782Y-73151331D01*
X112927242Y-73166586D01*
X112896270Y-73175982D01*
X112855471Y-73180000D01*
X111644529Y-73180000D01*
X111603730Y-73175982D01*
X111572758Y-73166586D01*
X111544218Y-73151331D01*
X111519200Y-73130800D01*
X111498669Y-73105782D01*
X111483414Y-73077242D01*
X111474018Y-73046270D01*
X111470000Y-73005471D01*
X111470000Y-71594529D01*
X111474018Y-71553730D01*
X111483414Y-71522758D01*
X111498669Y-71494218D01*
X111519200Y-71469200D01*
X111544218Y-71448669D01*
X111572758Y-71433414D01*
X111603730Y-71424018D01*
X111644529Y-71420000D01*
X112855471Y-71420000D01*
X112896270Y-71424018D01*
X112896270Y-71424018D01*
G37*
G36*
X109897041Y-71424001D02*
X109927831Y-71433340D01*
X109956207Y-71448508D01*
X109981080Y-71468920D01*
X110001492Y-71493793D01*
X110016660Y-71522169D01*
X110025999Y-71552959D01*
X110030000Y-71593575D01*
X110030000Y-73006425D01*
X110025999Y-73047041D01*
X110016660Y-73077831D01*
X110001492Y-73106207D01*
X109981080Y-73131080D01*
X109956207Y-73151492D01*
X109927831Y-73166660D01*
X109897041Y-73175999D01*
X109856425Y-73180000D01*
X108643575Y-73180000D01*
X108602959Y-73175999D01*
X108572169Y-73166660D01*
X108543793Y-73151492D01*
X108518920Y-73131080D01*
X108498508Y-73106207D01*
X108483340Y-73077831D01*
X108474001Y-73047041D01*
X108470000Y-73006425D01*
X108470000Y-71593575D01*
X108474001Y-71552959D01*
X108483340Y-71522169D01*
X108498508Y-71493793D01*
X108518920Y-71468920D01*
X108543793Y-71448508D01*
X108572169Y-71433340D01*
X108602959Y-71424001D01*
X108643575Y-71420000D01*
X109856425Y-71420000D01*
X109897041Y-71424001D01*
X109897041Y-71424001D01*
G37*
G36*
X106896270Y-71424018D02*
X106927242Y-71433414D01*
X106955782Y-71448669D01*
X106980800Y-71469200D01*
X107001331Y-71494218D01*
X107016586Y-71522758D01*
X107025982Y-71553730D01*
X107030000Y-71594529D01*
X107030000Y-73005471D01*
X107025982Y-73046270D01*
X107016586Y-73077242D01*
X107001331Y-73105782D01*
X106980800Y-73130800D01*
X106955782Y-73151331D01*
X106927242Y-73166586D01*
X106896270Y-73175982D01*
X106855471Y-73180000D01*
X105644529Y-73180000D01*
X105603730Y-73175982D01*
X105572758Y-73166586D01*
X105544218Y-73151331D01*
X105519200Y-73130800D01*
X105498669Y-73105782D01*
X105483414Y-73077242D01*
X105474018Y-73046270D01*
X105470000Y-73005471D01*
X105470000Y-71594529D01*
X105474018Y-71553730D01*
X105483414Y-71522758D01*
X105498669Y-71494218D01*
X105519200Y-71469200D01*
X105544218Y-71448669D01*
X105572758Y-71433414D01*
X105603730Y-71424018D01*
X105644529Y-71420000D01*
X106855471Y-71420000D01*
X106896270Y-71424018D01*
X106896270Y-71424018D01*
G37*
G36*
X65330000Y-71980000D02*
X62770000Y-71980000D01*
X62770000Y-70520000D01*
X65330000Y-70520000D01*
X65330000Y-71980000D01*
X65330000Y-71980000D01*
G37*
G36*
X49730000Y-71980000D02*
X47170000Y-71980000D01*
X47170000Y-70520000D01*
X49730000Y-70520000D01*
X49730000Y-71980000D01*
X49730000Y-71980000D01*
G37*
G36*
X131951713Y-68675626D02*
X131951716Y-68675627D01*
X131951717Y-68675627D01*
X132035786Y-68701129D01*
X132155299Y-68737383D01*
X132342921Y-68837669D01*
X132507371Y-68972629D01*
X132642331Y-69137079D01*
X132742617Y-69324701D01*
X132804374Y-69528287D01*
X132825226Y-69740000D01*
X132804374Y-69951713D01*
X132742617Y-70155299D01*
X132642331Y-70342921D01*
X132507371Y-70507371D01*
X132342921Y-70642331D01*
X132155299Y-70742617D01*
X132035786Y-70778871D01*
X131951717Y-70804373D01*
X131951716Y-70804373D01*
X131951713Y-70804374D01*
X131793056Y-70820000D01*
X131286944Y-70820000D01*
X131128287Y-70804374D01*
X131128284Y-70804373D01*
X131128283Y-70804373D01*
X131044214Y-70778871D01*
X130924701Y-70742617D01*
X130737079Y-70642331D01*
X130572629Y-70507371D01*
X130437669Y-70342921D01*
X130337383Y-70155299D01*
X130275626Y-69951713D01*
X130254774Y-69740000D01*
X130275626Y-69528287D01*
X130337383Y-69324701D01*
X130437669Y-69137079D01*
X130572629Y-68972629D01*
X130737079Y-68837669D01*
X130924701Y-68737383D01*
X131044214Y-68701129D01*
X131128283Y-68675627D01*
X131128284Y-68675627D01*
X131128287Y-68675626D01*
X131286944Y-68660000D01*
X131793056Y-68660000D01*
X131951713Y-68675626D01*
X131951713Y-68675626D01*
G37*
G36*
X44646270Y-68774018D02*
X44677242Y-68783414D01*
X44705782Y-68798669D01*
X44730800Y-68819200D01*
X44751331Y-68844218D01*
X44766586Y-68872758D01*
X44775982Y-68903730D01*
X44780000Y-68944529D01*
X44780000Y-70355471D01*
X44775982Y-70396270D01*
X44766586Y-70427242D01*
X44751331Y-70455782D01*
X44730800Y-70480800D01*
X44705782Y-70501331D01*
X44677242Y-70516586D01*
X44646270Y-70525982D01*
X44605471Y-70530000D01*
X43394529Y-70530000D01*
X43353730Y-70525982D01*
X43322758Y-70516586D01*
X43294218Y-70501331D01*
X43269200Y-70480800D01*
X43248669Y-70455782D01*
X43233414Y-70427242D01*
X43224018Y-70396270D01*
X43220000Y-70355471D01*
X43220000Y-68944529D01*
X43224018Y-68903730D01*
X43233414Y-68872758D01*
X43248669Y-68844218D01*
X43269200Y-68819200D01*
X43294218Y-68798669D01*
X43322758Y-68783414D01*
X43353730Y-68774018D01*
X43394529Y-68770000D01*
X44605471Y-68770000D01*
X44646270Y-68774018D01*
X44646270Y-68774018D01*
G37*
G36*
X41646270Y-68774018D02*
X41677242Y-68783414D01*
X41705782Y-68798669D01*
X41730800Y-68819200D01*
X41751331Y-68844218D01*
X41766586Y-68872758D01*
X41775982Y-68903730D01*
X41780000Y-68944529D01*
X41780000Y-70355471D01*
X41775982Y-70396270D01*
X41766586Y-70427242D01*
X41751331Y-70455782D01*
X41730800Y-70480800D01*
X41705782Y-70501331D01*
X41677242Y-70516586D01*
X41646270Y-70525982D01*
X41605471Y-70530000D01*
X40394529Y-70530000D01*
X40353730Y-70525982D01*
X40322758Y-70516586D01*
X40294218Y-70501331D01*
X40269200Y-70480800D01*
X40248669Y-70455782D01*
X40233414Y-70427242D01*
X40224018Y-70396270D01*
X40220000Y-70355471D01*
X40220000Y-68944529D01*
X40224018Y-68903730D01*
X40233414Y-68872758D01*
X40248669Y-68844218D01*
X40269200Y-68819200D01*
X40294218Y-68798669D01*
X40322758Y-68783414D01*
X40353730Y-68774018D01*
X40394529Y-68770000D01*
X41605471Y-68770000D01*
X41646270Y-68774018D01*
X41646270Y-68774018D01*
G37*
G36*
X65330000Y-69980000D02*
X62770000Y-69980000D01*
X62770000Y-68520000D01*
X65330000Y-68520000D01*
X65330000Y-69980000D01*
X65330000Y-69980000D01*
G37*
G36*
X49730000Y-69980000D02*
X47170000Y-69980000D01*
X47170000Y-68520000D01*
X49730000Y-68520000D01*
X49730000Y-69980000D01*
X49730000Y-69980000D01*
G37*
G36*
X106750000Y-68835000D02*
X94260000Y-68835000D01*
X94260000Y-66175000D01*
X106750000Y-66175000D01*
X106750000Y-68835000D01*
X106750000Y-68835000D01*
G37*
G36*
X131951713Y-66135626D02*
X131951716Y-66135627D01*
X131951717Y-66135627D01*
X132035786Y-66161129D01*
X132155299Y-66197383D01*
X132342921Y-66297669D01*
X132507371Y-66432629D01*
X132642331Y-66597079D01*
X132742617Y-66784701D01*
X132804374Y-66988287D01*
X132825226Y-67200000D01*
X132804374Y-67411713D01*
X132742617Y-67615299D01*
X132642331Y-67802921D01*
X132507371Y-67967371D01*
X132342921Y-68102331D01*
X132155299Y-68202617D01*
X132035786Y-68238871D01*
X131951717Y-68264373D01*
X131951716Y-68264373D01*
X131951713Y-68264374D01*
X131793056Y-68280000D01*
X131286944Y-68280000D01*
X131128287Y-68264374D01*
X131128284Y-68264373D01*
X131128283Y-68264373D01*
X131044214Y-68238871D01*
X130924701Y-68202617D01*
X130737079Y-68102331D01*
X130572629Y-67967371D01*
X130437669Y-67802921D01*
X130337383Y-67615299D01*
X130275626Y-67411713D01*
X130254774Y-67200000D01*
X130275626Y-66988287D01*
X130337383Y-66784701D01*
X130437669Y-66597079D01*
X130572629Y-66432629D01*
X130737079Y-66297669D01*
X130924701Y-66197383D01*
X131044214Y-66161129D01*
X131128283Y-66135627D01*
X131128284Y-66135627D01*
X131128287Y-66135626D01*
X131286944Y-66120000D01*
X131793056Y-66120000D01*
X131951713Y-66135626D01*
X131951713Y-66135626D01*
G37*
G36*
X44646270Y-66374018D02*
X44677242Y-66383414D01*
X44705782Y-66398669D01*
X44730800Y-66419200D01*
X44751331Y-66444218D01*
X44766586Y-66472758D01*
X44775982Y-66503730D01*
X44780000Y-66544529D01*
X44780000Y-67955471D01*
X44775982Y-67996270D01*
X44766586Y-68027242D01*
X44751331Y-68055782D01*
X44730800Y-68080800D01*
X44705782Y-68101331D01*
X44677242Y-68116586D01*
X44646270Y-68125982D01*
X44605471Y-68130000D01*
X43394529Y-68130000D01*
X43353730Y-68125982D01*
X43322758Y-68116586D01*
X43294218Y-68101331D01*
X43269200Y-68080800D01*
X43248669Y-68055782D01*
X43233414Y-68027242D01*
X43224018Y-67996270D01*
X43220000Y-67955471D01*
X43220000Y-66544529D01*
X43224018Y-66503730D01*
X43233414Y-66472758D01*
X43248669Y-66444218D01*
X43269200Y-66419200D01*
X43294218Y-66398669D01*
X43322758Y-66383414D01*
X43353730Y-66374018D01*
X43394529Y-66370000D01*
X44605471Y-66370000D01*
X44646270Y-66374018D01*
X44646270Y-66374018D01*
G37*
G36*
X41646270Y-66374018D02*
X41677242Y-66383414D01*
X41705782Y-66398669D01*
X41730800Y-66419200D01*
X41751331Y-66444218D01*
X41766586Y-66472758D01*
X41775982Y-66503730D01*
X41780000Y-66544529D01*
X41780000Y-67955471D01*
X41775982Y-67996270D01*
X41766586Y-68027242D01*
X41751331Y-68055782D01*
X41730800Y-68080800D01*
X41705782Y-68101331D01*
X41677242Y-68116586D01*
X41646270Y-68125982D01*
X41605471Y-68130000D01*
X40394529Y-68130000D01*
X40353730Y-68125982D01*
X40322758Y-68116586D01*
X40294218Y-68101331D01*
X40269200Y-68080800D01*
X40248669Y-68055782D01*
X40233414Y-68027242D01*
X40224018Y-67996270D01*
X40220000Y-67955471D01*
X40220000Y-66544529D01*
X40224018Y-66503730D01*
X40233414Y-66472758D01*
X40248669Y-66444218D01*
X40269200Y-66419200D01*
X40294218Y-66398669D01*
X40322758Y-66383414D01*
X40353730Y-66374018D01*
X40394529Y-66370000D01*
X41605471Y-66370000D01*
X41646270Y-66374018D01*
X41646270Y-66374018D01*
G37*
G36*
X65330000Y-67980000D02*
X62770000Y-67980000D01*
X62770000Y-66520000D01*
X65330000Y-66520000D01*
X65330000Y-67980000D01*
X65330000Y-67980000D01*
G37*
G36*
X49730000Y-67980000D02*
X47170000Y-67980000D01*
X47170000Y-66520000D01*
X49730000Y-66520000D01*
X49730000Y-67980000D01*
X49730000Y-67980000D01*
G37*
G36*
X110580000Y-66785000D02*
X107920000Y-66785000D01*
X107920000Y-49215000D01*
X110580000Y-49215000D01*
X110580000Y-66785000D01*
X110580000Y-66785000D01*
G37*
G36*
X93080000Y-66785000D02*
X90420000Y-66785000D01*
X90420000Y-49215000D01*
X93080000Y-49215000D01*
X93080000Y-66785000D01*
X93080000Y-66785000D01*
G37*
G36*
X65330000Y-65980000D02*
X62770000Y-65980000D01*
X62770000Y-64520000D01*
X65330000Y-64520000D01*
X65330000Y-65980000D01*
X65330000Y-65980000D01*
G37*
G36*
X49730000Y-65980000D02*
X47170000Y-65980000D01*
X47170000Y-64520000D01*
X49730000Y-64520000D01*
X49730000Y-65980000D01*
X49730000Y-65980000D01*
G37*
G36*
X131951713Y-63595626D02*
X131951716Y-63595627D01*
X131951717Y-63595627D01*
X132035786Y-63621129D01*
X132155299Y-63657383D01*
X132342921Y-63757669D01*
X132507371Y-63892629D01*
X132642331Y-64057079D01*
X132742617Y-64244701D01*
X132804374Y-64448287D01*
X132825226Y-64660000D01*
X132804374Y-64871713D01*
X132742617Y-65075299D01*
X132642331Y-65262921D01*
X132507371Y-65427371D01*
X132342921Y-65562331D01*
X132155299Y-65662617D01*
X132035786Y-65698871D01*
X131951717Y-65724373D01*
X131951716Y-65724373D01*
X131951713Y-65724374D01*
X131793056Y-65740000D01*
X131286944Y-65740000D01*
X131128287Y-65724374D01*
X131128284Y-65724373D01*
X131128283Y-65724373D01*
X131044214Y-65698871D01*
X130924701Y-65662617D01*
X130737079Y-65562331D01*
X130572629Y-65427371D01*
X130437669Y-65262921D01*
X130337383Y-65075299D01*
X130275626Y-64871713D01*
X130254774Y-64660000D01*
X130275626Y-64448287D01*
X130337383Y-64244701D01*
X130437669Y-64057079D01*
X130572629Y-63892629D01*
X130737079Y-63757669D01*
X130924701Y-63657383D01*
X131044214Y-63621129D01*
X131128283Y-63595627D01*
X131128284Y-63595627D01*
X131128287Y-63595626D01*
X131286944Y-63580000D01*
X131793056Y-63580000D01*
X131951713Y-63595626D01*
X131951713Y-63595626D01*
G37*
G36*
X49730000Y-63980000D02*
X47170000Y-63980000D01*
X47170000Y-62520000D01*
X49730000Y-62520000D01*
X49730000Y-63980000D01*
X49730000Y-63980000D01*
G37*
G36*
X65330000Y-63980000D02*
X62770000Y-63980000D01*
X62770000Y-62520000D01*
X65330000Y-62520000D01*
X65330000Y-63980000D01*
X65330000Y-63980000D01*
G37*
G36*
X69146270Y-61574018D02*
X69177242Y-61583414D01*
X69205782Y-61598669D01*
X69230800Y-61619200D01*
X69251331Y-61644218D01*
X69266586Y-61672758D01*
X69275982Y-61703730D01*
X69280000Y-61744529D01*
X69280000Y-63155471D01*
X69275982Y-63196270D01*
X69266586Y-63227242D01*
X69251331Y-63255782D01*
X69230800Y-63280800D01*
X69205782Y-63301331D01*
X69177242Y-63316586D01*
X69146270Y-63325982D01*
X69105471Y-63330000D01*
X67894529Y-63330000D01*
X67853730Y-63325982D01*
X67822758Y-63316586D01*
X67794218Y-63301331D01*
X67769200Y-63280800D01*
X67748669Y-63255782D01*
X67733414Y-63227242D01*
X67724018Y-63196270D01*
X67720000Y-63155471D01*
X67720000Y-61744529D01*
X67724018Y-61703730D01*
X67733414Y-61672758D01*
X67748669Y-61644218D01*
X67769200Y-61619200D01*
X67794218Y-61598669D01*
X67822758Y-61583414D01*
X67853730Y-61574018D01*
X67894529Y-61570000D01*
X69105471Y-61570000D01*
X69146270Y-61574018D01*
X69146270Y-61574018D01*
G37*
G36*
X44221699Y-60366875D02*
X44491043Y-60478441D01*
X44733443Y-60640407D01*
X44939593Y-60846557D01*
X45101559Y-61088957D01*
X45213125Y-61358301D01*
X45270000Y-61644231D01*
X45270000Y-61935769D01*
X45213125Y-62221699D01*
X45101559Y-62491043D01*
X44939593Y-62733443D01*
X44733443Y-62939593D01*
X44491043Y-63101559D01*
X44221699Y-63213125D01*
X43935769Y-63270000D01*
X43644231Y-63270000D01*
X43358301Y-63213125D01*
X43088957Y-63101559D01*
X42846557Y-62939593D01*
X42640407Y-62733443D01*
X42478441Y-62491043D01*
X42366875Y-62221699D01*
X42310000Y-61935769D01*
X42310000Y-61644231D01*
X42366875Y-61358301D01*
X42478441Y-61088957D01*
X42640407Y-60846557D01*
X42846557Y-60640407D01*
X43088957Y-60478441D01*
X43358301Y-60366875D01*
X43644231Y-60310000D01*
X43935769Y-60310000D01*
X44221699Y-60366875D01*
X44221699Y-60366875D01*
G37*
G36*
X39141699Y-60366875D02*
X39411043Y-60478441D01*
X39653443Y-60640407D01*
X39859593Y-60846557D01*
X40021559Y-61088957D01*
X40133125Y-61358301D01*
X40190000Y-61644231D01*
X40190000Y-61935769D01*
X40133125Y-62221699D01*
X40021559Y-62491043D01*
X39859593Y-62733443D01*
X39653443Y-62939593D01*
X39411043Y-63101559D01*
X39141699Y-63213125D01*
X38855769Y-63270000D01*
X38564231Y-63270000D01*
X38278301Y-63213125D01*
X38008957Y-63101559D01*
X37766557Y-62939593D01*
X37560407Y-62733443D01*
X37398441Y-62491043D01*
X37286875Y-62221699D01*
X37230000Y-61935769D01*
X37230000Y-61644231D01*
X37286875Y-61358301D01*
X37398441Y-61088957D01*
X37560407Y-60846557D01*
X37766557Y-60640407D01*
X38008957Y-60478441D01*
X38278301Y-60366875D01*
X38564231Y-60310000D01*
X38855769Y-60310000D01*
X39141699Y-60366875D01*
X39141699Y-60366875D01*
G37*
G36*
X131751713Y-61055626D02*
X131751716Y-61055627D01*
X131751717Y-61055627D01*
X131835786Y-61081129D01*
X131955299Y-61117383D01*
X132142921Y-61217669D01*
X132307371Y-61352629D01*
X132442331Y-61517079D01*
X132542617Y-61704701D01*
X132604374Y-61908287D01*
X132625226Y-62120000D01*
X132604374Y-62331713D01*
X132542617Y-62535299D01*
X132442331Y-62722921D01*
X132307371Y-62887371D01*
X132142921Y-63022331D01*
X131955299Y-63122617D01*
X131846994Y-63155471D01*
X131751717Y-63184373D01*
X131751716Y-63184373D01*
X131751713Y-63184374D01*
X131593056Y-63200000D01*
X131486944Y-63200000D01*
X131328287Y-63184374D01*
X131328284Y-63184373D01*
X131328283Y-63184373D01*
X131233006Y-63155471D01*
X131124701Y-63122617D01*
X130937079Y-63022331D01*
X130772629Y-62887371D01*
X130637669Y-62722921D01*
X130537383Y-62535299D01*
X130475626Y-62331713D01*
X130454774Y-62120000D01*
X130475626Y-61908287D01*
X130537383Y-61704701D01*
X130637669Y-61517079D01*
X130772629Y-61352629D01*
X130937079Y-61217669D01*
X131124701Y-61117383D01*
X131244214Y-61081129D01*
X131328283Y-61055627D01*
X131328284Y-61055627D01*
X131328287Y-61055626D01*
X131486944Y-61040000D01*
X131593056Y-61040000D01*
X131751713Y-61055626D01*
X131751713Y-61055626D01*
G37*
G36*
X129211713Y-61055626D02*
X129211716Y-61055627D01*
X129211717Y-61055627D01*
X129295786Y-61081129D01*
X129415299Y-61117383D01*
X129602921Y-61217669D01*
X129767371Y-61352629D01*
X129902331Y-61517079D01*
X130002617Y-61704701D01*
X130064374Y-61908287D01*
X130085226Y-62120000D01*
X130064374Y-62331713D01*
X130002617Y-62535299D01*
X129902331Y-62722921D01*
X129767371Y-62887371D01*
X129602921Y-63022331D01*
X129415299Y-63122617D01*
X129306994Y-63155471D01*
X129211717Y-63184373D01*
X129211716Y-63184373D01*
X129211713Y-63184374D01*
X129053056Y-63200000D01*
X128946944Y-63200000D01*
X128788287Y-63184374D01*
X128788284Y-63184373D01*
X128788283Y-63184373D01*
X128693006Y-63155471D01*
X128584701Y-63122617D01*
X128397079Y-63022331D01*
X128232629Y-62887371D01*
X128097669Y-62722921D01*
X127997383Y-62535299D01*
X127935626Y-62331713D01*
X127914774Y-62120000D01*
X127935626Y-61908287D01*
X127997383Y-61704701D01*
X128097669Y-61517079D01*
X128232629Y-61352629D01*
X128397079Y-61217669D01*
X128584701Y-61117383D01*
X128704214Y-61081129D01*
X128788283Y-61055627D01*
X128788284Y-61055627D01*
X128788287Y-61055626D01*
X128946944Y-61040000D01*
X129053056Y-61040000D01*
X129211713Y-61055626D01*
X129211713Y-61055626D01*
G37*
G36*
X65330000Y-61980000D02*
X62770000Y-61980000D01*
X62770000Y-60520000D01*
X65330000Y-60520000D01*
X65330000Y-61980000D01*
X65330000Y-61980000D01*
G37*
G36*
X49730000Y-61980000D02*
X47170000Y-61980000D01*
X47170000Y-60520000D01*
X49730000Y-60520000D01*
X49730000Y-61980000D01*
X49730000Y-61980000D01*
G37*
G36*
X69146270Y-59174018D02*
X69177242Y-59183414D01*
X69205782Y-59198669D01*
X69230800Y-59219200D01*
X69251331Y-59244218D01*
X69266586Y-59272758D01*
X69275982Y-59303730D01*
X69280000Y-59344529D01*
X69280000Y-60755471D01*
X69275982Y-60796270D01*
X69266586Y-60827242D01*
X69251331Y-60855782D01*
X69230800Y-60880800D01*
X69205782Y-60901331D01*
X69177242Y-60916586D01*
X69146270Y-60925982D01*
X69105471Y-60930000D01*
X67894529Y-60930000D01*
X67853730Y-60925982D01*
X67822758Y-60916586D01*
X67794218Y-60901331D01*
X67769200Y-60880800D01*
X67748669Y-60855782D01*
X67733414Y-60827242D01*
X67724018Y-60796270D01*
X67720000Y-60755471D01*
X67720000Y-59344529D01*
X67724018Y-59303730D01*
X67733414Y-59272758D01*
X67748669Y-59244218D01*
X67769200Y-59219200D01*
X67794218Y-59198669D01*
X67822758Y-59183414D01*
X67853730Y-59174018D01*
X67894529Y-59170000D01*
X69105471Y-59170000D01*
X69146270Y-59174018D01*
X69146270Y-59174018D01*
G37*
G36*
X41681699Y-57826875D02*
X41951043Y-57938441D01*
X42193443Y-58100407D01*
X42399593Y-58306557D01*
X42561559Y-58548957D01*
X42673125Y-58818301D01*
X42730000Y-59104231D01*
X42730000Y-59395769D01*
X42673125Y-59681699D01*
X42561559Y-59951043D01*
X42399593Y-60193443D01*
X42193443Y-60399593D01*
X41951043Y-60561559D01*
X41681699Y-60673125D01*
X41395769Y-60730000D01*
X41104231Y-60730000D01*
X40818301Y-60673125D01*
X40548957Y-60561559D01*
X40306557Y-60399593D01*
X40100407Y-60193443D01*
X39938441Y-59951043D01*
X39826875Y-59681699D01*
X39770000Y-59395769D01*
X39770000Y-59104231D01*
X39826875Y-58818301D01*
X39938441Y-58548957D01*
X40100407Y-58306557D01*
X40306557Y-58100407D01*
X40548957Y-57938441D01*
X40818301Y-57826875D01*
X41104231Y-57770000D01*
X41395769Y-57770000D01*
X41681699Y-57826875D01*
X41681699Y-57826875D01*
G37*
G36*
X131751713Y-58515626D02*
X131751716Y-58515627D01*
X131751717Y-58515627D01*
X131835786Y-58541129D01*
X131955299Y-58577383D01*
X132142921Y-58677669D01*
X132307371Y-58812629D01*
X132442331Y-58977079D01*
X132542617Y-59164701D01*
X132566400Y-59243102D01*
X132604309Y-59368071D01*
X132604374Y-59368287D01*
X132625226Y-59580000D01*
X132604374Y-59791713D01*
X132542617Y-59995299D01*
X132442331Y-60182921D01*
X132307371Y-60347371D01*
X132142921Y-60482331D01*
X131955299Y-60582617D01*
X131835786Y-60618871D01*
X131751717Y-60644373D01*
X131751716Y-60644373D01*
X131751713Y-60644374D01*
X131593056Y-60660000D01*
X131486944Y-60660000D01*
X131328287Y-60644374D01*
X131328284Y-60644373D01*
X131328283Y-60644373D01*
X131244214Y-60618871D01*
X131124701Y-60582617D01*
X130937079Y-60482331D01*
X130772629Y-60347371D01*
X130637669Y-60182921D01*
X130537383Y-59995299D01*
X130475626Y-59791713D01*
X130454774Y-59580000D01*
X130475626Y-59368287D01*
X130475692Y-59368071D01*
X130513600Y-59243102D01*
X130537383Y-59164701D01*
X130637669Y-58977079D01*
X130772629Y-58812629D01*
X130937079Y-58677669D01*
X131124701Y-58577383D01*
X131244214Y-58541129D01*
X131328283Y-58515627D01*
X131328284Y-58515627D01*
X131328287Y-58515626D01*
X131486944Y-58500000D01*
X131593056Y-58500000D01*
X131751713Y-58515626D01*
X131751713Y-58515626D01*
G37*
G36*
X129211713Y-58515626D02*
X129211716Y-58515627D01*
X129211717Y-58515627D01*
X129295786Y-58541129D01*
X129415299Y-58577383D01*
X129602921Y-58677669D01*
X129767371Y-58812629D01*
X129902331Y-58977079D01*
X130002617Y-59164701D01*
X130026400Y-59243102D01*
X130064309Y-59368071D01*
X130064374Y-59368287D01*
X130085226Y-59580000D01*
X130064374Y-59791713D01*
X130002617Y-59995299D01*
X129902331Y-60182921D01*
X129767371Y-60347371D01*
X129602921Y-60482331D01*
X129415299Y-60582617D01*
X129295786Y-60618871D01*
X129211717Y-60644373D01*
X129211716Y-60644373D01*
X129211713Y-60644374D01*
X129053056Y-60660000D01*
X128946944Y-60660000D01*
X128788287Y-60644374D01*
X128788284Y-60644373D01*
X128788283Y-60644373D01*
X128704214Y-60618871D01*
X128584701Y-60582617D01*
X128397079Y-60482331D01*
X128232629Y-60347371D01*
X128097669Y-60182921D01*
X127997383Y-59995299D01*
X127935626Y-59791713D01*
X127914774Y-59580000D01*
X127935626Y-59368287D01*
X127935692Y-59368071D01*
X127973600Y-59243102D01*
X127997383Y-59164701D01*
X128097669Y-58977079D01*
X128232629Y-58812629D01*
X128397079Y-58677669D01*
X128584701Y-58577383D01*
X128704214Y-58541129D01*
X128788283Y-58515627D01*
X128788284Y-58515627D01*
X128788287Y-58515626D01*
X128946944Y-58500000D01*
X129053056Y-58500000D01*
X129211713Y-58515626D01*
X129211713Y-58515626D01*
G37*
G36*
X65330000Y-59980000D02*
X62770000Y-59980000D01*
X62770000Y-58520000D01*
X65330000Y-58520000D01*
X65330000Y-59980000D01*
X65330000Y-59980000D01*
G37*
G36*
X49730000Y-59980000D02*
X47170000Y-59980000D01*
X47170000Y-58520000D01*
X49730000Y-58520000D01*
X49730000Y-59980000D01*
X49730000Y-59980000D01*
G37*
G36*
X100962546Y-54936534D02*
X101164517Y-54997802D01*
X101350658Y-55097295D01*
X101513809Y-55231191D01*
X101647705Y-55394342D01*
X101747198Y-55580483D01*
X101808466Y-55782454D01*
X101830000Y-56001094D01*
X101830000Y-58488906D01*
X101808466Y-58707546D01*
X101747198Y-58909517D01*
X101647705Y-59095658D01*
X101513809Y-59258809D01*
X101350658Y-59392705D01*
X101164517Y-59492198D01*
X100962546Y-59553466D01*
X100743906Y-59575000D01*
X98256094Y-59575000D01*
X98037454Y-59553466D01*
X97835483Y-59492198D01*
X97649342Y-59392705D01*
X97486191Y-59258809D01*
X97352295Y-59095658D01*
X97252802Y-58909517D01*
X97191534Y-58707546D01*
X97170000Y-58488906D01*
X97170000Y-56001094D01*
X97191534Y-55782454D01*
X97252802Y-55580483D01*
X97352295Y-55394342D01*
X97486191Y-55231191D01*
X97649342Y-55097295D01*
X97835483Y-54997802D01*
X98037454Y-54936534D01*
X98256094Y-54915000D01*
X100743906Y-54915000D01*
X100962546Y-54936534D01*
X100962546Y-54936534D01*
G37*
G36*
X81946270Y-57859018D02*
X81977242Y-57868414D01*
X82005782Y-57883669D01*
X82030800Y-57904200D01*
X82051331Y-57929218D01*
X82066586Y-57957758D01*
X82075982Y-57988730D01*
X82080000Y-58029529D01*
X82080000Y-59240471D01*
X82075982Y-59281270D01*
X82066586Y-59312242D01*
X82051331Y-59340782D01*
X82030800Y-59365800D01*
X82005782Y-59386331D01*
X81977242Y-59401586D01*
X81946270Y-59410982D01*
X81905471Y-59415000D01*
X80494529Y-59415000D01*
X80453730Y-59410982D01*
X80422758Y-59401586D01*
X80394218Y-59386331D01*
X80369200Y-59365800D01*
X80348669Y-59340782D01*
X80333414Y-59312242D01*
X80324018Y-59281270D01*
X80320000Y-59240471D01*
X80320000Y-58029529D01*
X80324018Y-57988730D01*
X80333414Y-57957758D01*
X80348669Y-57929218D01*
X80369200Y-57904200D01*
X80394218Y-57883669D01*
X80422758Y-57868414D01*
X80453730Y-57859018D01*
X80494529Y-57855000D01*
X81905471Y-57855000D01*
X81946270Y-57859018D01*
X81946270Y-57859018D01*
G37*
G36*
X79546270Y-57859018D02*
X79577242Y-57868414D01*
X79605782Y-57883669D01*
X79630800Y-57904200D01*
X79651331Y-57929218D01*
X79666586Y-57957758D01*
X79675982Y-57988730D01*
X79680000Y-58029529D01*
X79680000Y-59240471D01*
X79675982Y-59281270D01*
X79666586Y-59312242D01*
X79651331Y-59340782D01*
X79630800Y-59365800D01*
X79605782Y-59386331D01*
X79577242Y-59401586D01*
X79546270Y-59410982D01*
X79505471Y-59415000D01*
X78094529Y-59415000D01*
X78053730Y-59410982D01*
X78022758Y-59401586D01*
X77994218Y-59386331D01*
X77969200Y-59365800D01*
X77948669Y-59340782D01*
X77933414Y-59312242D01*
X77924018Y-59281270D01*
X77920000Y-59240471D01*
X77920000Y-58029529D01*
X77924018Y-57988730D01*
X77933414Y-57957758D01*
X77948669Y-57929218D01*
X77969200Y-57904200D01*
X77994218Y-57883669D01*
X78022758Y-57868414D01*
X78053730Y-57859018D01*
X78094529Y-57855000D01*
X79505471Y-57855000D01*
X79546270Y-57859018D01*
X79546270Y-57859018D01*
G37*
G36*
X39141699Y-55286875D02*
X39411043Y-55398441D01*
X39653443Y-55560407D01*
X39859593Y-55766557D01*
X40021559Y-56008957D01*
X40133125Y-56278301D01*
X40190000Y-56564231D01*
X40190000Y-56855769D01*
X40133125Y-57141699D01*
X40021559Y-57411043D01*
X39859593Y-57653443D01*
X39653443Y-57859593D01*
X39411043Y-58021559D01*
X39141699Y-58133125D01*
X38855769Y-58190000D01*
X38564231Y-58190000D01*
X38278301Y-58133125D01*
X38008957Y-58021559D01*
X37766557Y-57859593D01*
X37560407Y-57653443D01*
X37398441Y-57411043D01*
X37286875Y-57141699D01*
X37230000Y-56855769D01*
X37230000Y-56564231D01*
X37286875Y-56278301D01*
X37398441Y-56008957D01*
X37560407Y-55766557D01*
X37766557Y-55560407D01*
X38008957Y-55398441D01*
X38278301Y-55286875D01*
X38564231Y-55230000D01*
X38855769Y-55230000D01*
X39141699Y-55286875D01*
X39141699Y-55286875D01*
G37*
G36*
X44221699Y-55286875D02*
X44491043Y-55398441D01*
X44733443Y-55560407D01*
X44939593Y-55766557D01*
X45101559Y-56008957D01*
X45213125Y-56278301D01*
X45270000Y-56564231D01*
X45270000Y-56855769D01*
X45213125Y-57141699D01*
X45101559Y-57411043D01*
X44939593Y-57653443D01*
X44733443Y-57859593D01*
X44491043Y-58021559D01*
X44221699Y-58133125D01*
X43935769Y-58190000D01*
X43644231Y-58190000D01*
X43358301Y-58133125D01*
X43088957Y-58021559D01*
X42846557Y-57859593D01*
X42640407Y-57653443D01*
X42478441Y-57411043D01*
X42366875Y-57141699D01*
X42310000Y-56855769D01*
X42310000Y-56564231D01*
X42366875Y-56278301D01*
X42478441Y-56008957D01*
X42640407Y-55766557D01*
X42846557Y-55560407D01*
X43088957Y-55398441D01*
X43358301Y-55286875D01*
X43644231Y-55230000D01*
X43935769Y-55230000D01*
X44221699Y-55286875D01*
X44221699Y-55286875D01*
G37*
G36*
X129211713Y-55975626D02*
X129211716Y-55975627D01*
X129211717Y-55975627D01*
X129295670Y-56001094D01*
X129415299Y-56037383D01*
X129602921Y-56137669D01*
X129767371Y-56272629D01*
X129902331Y-56437079D01*
X130002617Y-56624701D01*
X130026400Y-56703102D01*
X130064309Y-56828071D01*
X130064374Y-56828287D01*
X130085226Y-57040000D01*
X130064374Y-57251713D01*
X130002617Y-57455299D01*
X129902331Y-57642921D01*
X129767371Y-57807371D01*
X129602921Y-57942331D01*
X129415299Y-58042617D01*
X129295786Y-58078871D01*
X129211717Y-58104373D01*
X129211716Y-58104373D01*
X129211713Y-58104374D01*
X129053056Y-58120000D01*
X128946944Y-58120000D01*
X128788287Y-58104374D01*
X128788284Y-58104373D01*
X128788283Y-58104373D01*
X128704214Y-58078871D01*
X128584701Y-58042617D01*
X128397079Y-57942331D01*
X128232629Y-57807371D01*
X128097669Y-57642921D01*
X127997383Y-57455299D01*
X127935626Y-57251713D01*
X127914774Y-57040000D01*
X127935626Y-56828287D01*
X127935692Y-56828071D01*
X127973600Y-56703102D01*
X127997383Y-56624701D01*
X128097669Y-56437079D01*
X128232629Y-56272629D01*
X128397079Y-56137669D01*
X128584701Y-56037383D01*
X128704330Y-56001094D01*
X128788283Y-55975627D01*
X128788284Y-55975627D01*
X128788287Y-55975626D01*
X128946944Y-55960000D01*
X129053056Y-55960000D01*
X129211713Y-55975626D01*
X129211713Y-55975626D01*
G37*
G36*
X131751713Y-55975626D02*
X131751716Y-55975627D01*
X131751717Y-55975627D01*
X131835670Y-56001094D01*
X131955299Y-56037383D01*
X132142921Y-56137669D01*
X132307371Y-56272629D01*
X132442331Y-56437079D01*
X132542617Y-56624701D01*
X132566400Y-56703102D01*
X132604309Y-56828071D01*
X132604374Y-56828287D01*
X132625226Y-57040000D01*
X132604374Y-57251713D01*
X132542617Y-57455299D01*
X132442331Y-57642921D01*
X132307371Y-57807371D01*
X132142921Y-57942331D01*
X131955299Y-58042617D01*
X131835786Y-58078871D01*
X131751717Y-58104373D01*
X131751716Y-58104373D01*
X131751713Y-58104374D01*
X131593056Y-58120000D01*
X131486944Y-58120000D01*
X131328287Y-58104374D01*
X131328284Y-58104373D01*
X131328283Y-58104373D01*
X131244214Y-58078871D01*
X131124701Y-58042617D01*
X130937079Y-57942331D01*
X130772629Y-57807371D01*
X130637669Y-57642921D01*
X130537383Y-57455299D01*
X130475626Y-57251713D01*
X130454774Y-57040000D01*
X130475626Y-56828287D01*
X130475692Y-56828071D01*
X130513600Y-56703102D01*
X130537383Y-56624701D01*
X130637669Y-56437079D01*
X130772629Y-56272629D01*
X130937079Y-56137669D01*
X131124701Y-56037383D01*
X131244330Y-56001094D01*
X131328283Y-55975627D01*
X131328284Y-55975627D01*
X131328287Y-55975626D01*
X131486944Y-55960000D01*
X131593056Y-55960000D01*
X131751713Y-55975626D01*
X131751713Y-55975626D01*
G37*
G36*
X79546270Y-55319018D02*
X79577242Y-55328414D01*
X79605782Y-55343669D01*
X79630800Y-55364200D01*
X79651331Y-55389218D01*
X79666586Y-55417758D01*
X79675982Y-55448730D01*
X79680000Y-55489529D01*
X79680000Y-56700471D01*
X79675982Y-56741270D01*
X79666586Y-56772242D01*
X79651331Y-56800782D01*
X79630800Y-56825800D01*
X79605782Y-56846331D01*
X79577242Y-56861586D01*
X79546270Y-56870982D01*
X79505471Y-56875000D01*
X78094529Y-56875000D01*
X78053730Y-56870982D01*
X78022758Y-56861586D01*
X77994218Y-56846331D01*
X77969200Y-56825800D01*
X77948669Y-56800782D01*
X77933414Y-56772242D01*
X77924018Y-56741270D01*
X77920000Y-56700471D01*
X77920000Y-55489529D01*
X77924018Y-55448730D01*
X77933414Y-55417758D01*
X77948669Y-55389218D01*
X77969200Y-55364200D01*
X77994218Y-55343669D01*
X78022758Y-55328414D01*
X78053730Y-55319018D01*
X78094529Y-55315000D01*
X79505471Y-55315000D01*
X79546270Y-55319018D01*
X79546270Y-55319018D01*
G37*
G36*
X81946270Y-55319018D02*
X81977242Y-55328414D01*
X82005782Y-55343669D01*
X82030800Y-55364200D01*
X82051331Y-55389218D01*
X82066586Y-55417758D01*
X82075982Y-55448730D01*
X82080000Y-55489529D01*
X82080000Y-56700471D01*
X82075982Y-56741270D01*
X82066586Y-56772242D01*
X82051331Y-56800782D01*
X82030800Y-56825800D01*
X82005782Y-56846331D01*
X81977242Y-56861586D01*
X81946270Y-56870982D01*
X81905471Y-56875000D01*
X80494529Y-56875000D01*
X80453730Y-56870982D01*
X80422758Y-56861586D01*
X80394218Y-56846331D01*
X80369200Y-56825800D01*
X80348669Y-56800782D01*
X80333414Y-56772242D01*
X80324018Y-56741270D01*
X80320000Y-56700471D01*
X80320000Y-55489529D01*
X80324018Y-55448730D01*
X80333414Y-55417758D01*
X80348669Y-55389218D01*
X80369200Y-55364200D01*
X80394218Y-55343669D01*
X80422758Y-55328414D01*
X80453730Y-55319018D01*
X80494529Y-55315000D01*
X81905471Y-55315000D01*
X81946270Y-55319018D01*
X81946270Y-55319018D01*
G37*
G36*
X75961713Y-54235626D02*
X75961716Y-54235627D01*
X75961717Y-54235627D01*
X76045786Y-54261129D01*
X76165299Y-54297383D01*
X76352921Y-54397669D01*
X76517371Y-54532629D01*
X76652332Y-54697081D01*
X76752616Y-54884699D01*
X76752617Y-54884703D01*
X76814373Y-55088283D01*
X76814374Y-55088288D01*
X76830000Y-55246945D01*
X76830000Y-55753056D01*
X76814374Y-55911713D01*
X76752617Y-56115299D01*
X76652331Y-56302921D01*
X76517371Y-56467371D01*
X76417567Y-56549277D01*
X76352919Y-56602332D01*
X76215440Y-56675815D01*
X76165298Y-56702617D01*
X76045785Y-56738871D01*
X75961716Y-56764373D01*
X75961715Y-56764373D01*
X75961712Y-56764374D01*
X75750000Y-56785226D01*
X75538287Y-56764374D01*
X75538284Y-56764373D01*
X75538283Y-56764373D01*
X75454214Y-56738871D01*
X75334701Y-56702617D01*
X75147079Y-56602331D01*
X74982629Y-56467371D01*
X74900723Y-56367567D01*
X74847668Y-56302919D01*
X74747384Y-56115299D01*
X74747383Y-56115298D01*
X74700274Y-55960000D01*
X74685627Y-55911716D01*
X74685627Y-55911715D01*
X74685626Y-55911712D01*
X74670000Y-55753055D01*
X74670000Y-55246944D01*
X74685626Y-55088287D01*
X74747383Y-54884701D01*
X74847670Y-54697079D01*
X74982630Y-54532629D01*
X75147080Y-54397669D01*
X75334702Y-54297383D01*
X75454215Y-54261129D01*
X75538284Y-54235627D01*
X75538285Y-54235627D01*
X75538288Y-54235626D01*
X75750000Y-54214774D01*
X75961713Y-54235626D01*
X75961713Y-54235626D01*
G37*
G36*
X73421713Y-54235626D02*
X73421716Y-54235627D01*
X73421717Y-54235627D01*
X73505786Y-54261129D01*
X73625299Y-54297383D01*
X73812921Y-54397669D01*
X73977371Y-54532629D01*
X74112332Y-54697081D01*
X74212616Y-54884699D01*
X74212617Y-54884703D01*
X74274373Y-55088283D01*
X74274374Y-55088288D01*
X74290000Y-55246945D01*
X74290000Y-55753056D01*
X74274374Y-55911713D01*
X74212617Y-56115299D01*
X74112331Y-56302921D01*
X73977371Y-56467371D01*
X73877567Y-56549277D01*
X73812919Y-56602332D01*
X73675440Y-56675815D01*
X73625298Y-56702617D01*
X73505785Y-56738871D01*
X73421716Y-56764373D01*
X73421715Y-56764373D01*
X73421712Y-56764374D01*
X73210000Y-56785226D01*
X72998287Y-56764374D01*
X72998284Y-56764373D01*
X72998283Y-56764373D01*
X72914214Y-56738871D01*
X72794701Y-56702617D01*
X72607079Y-56602331D01*
X72442629Y-56467371D01*
X72360723Y-56367567D01*
X72307668Y-56302919D01*
X72207384Y-56115299D01*
X72207383Y-56115298D01*
X72160274Y-55960000D01*
X72145627Y-55911716D01*
X72145627Y-55911715D01*
X72145626Y-55911712D01*
X72130000Y-55753055D01*
X72130000Y-55246944D01*
X72145626Y-55088287D01*
X72207383Y-54884701D01*
X72307670Y-54697079D01*
X72442630Y-54532629D01*
X72607080Y-54397669D01*
X72794702Y-54297383D01*
X72914215Y-54261129D01*
X72998284Y-54235627D01*
X72998285Y-54235627D01*
X72998288Y-54235626D01*
X73210000Y-54214774D01*
X73421713Y-54235626D01*
X73421713Y-54235626D01*
G37*
G36*
X131751713Y-53435626D02*
X131751716Y-53435627D01*
X131751717Y-53435627D01*
X131835786Y-53461129D01*
X131955299Y-53497383D01*
X132142921Y-53597669D01*
X132307371Y-53732629D01*
X132442331Y-53897079D01*
X132542617Y-54084701D01*
X132578871Y-54204214D01*
X132588400Y-54235626D01*
X132604374Y-54288287D01*
X132625226Y-54500000D01*
X132604374Y-54711713D01*
X132542617Y-54915299D01*
X132442331Y-55102921D01*
X132307371Y-55267371D01*
X132142921Y-55402331D01*
X131955299Y-55502617D01*
X131835786Y-55538871D01*
X131751717Y-55564373D01*
X131751716Y-55564373D01*
X131751713Y-55564374D01*
X131593056Y-55580000D01*
X131486944Y-55580000D01*
X131328287Y-55564374D01*
X131328284Y-55564373D01*
X131328283Y-55564373D01*
X131244214Y-55538871D01*
X131124701Y-55502617D01*
X130937079Y-55402331D01*
X130772629Y-55267371D01*
X130637669Y-55102921D01*
X130537383Y-54915299D01*
X130475626Y-54711713D01*
X130454774Y-54500000D01*
X130475626Y-54288287D01*
X130491601Y-54235626D01*
X130501129Y-54204214D01*
X130537383Y-54084701D01*
X130637669Y-53897079D01*
X130772629Y-53732629D01*
X130937079Y-53597669D01*
X131124701Y-53497383D01*
X131244214Y-53461129D01*
X131328283Y-53435627D01*
X131328284Y-53435627D01*
X131328287Y-53435626D01*
X131486944Y-53420000D01*
X131593056Y-53420000D01*
X131751713Y-53435626D01*
X131751713Y-53435626D01*
G37*
G36*
X129211713Y-53435626D02*
X129211716Y-53435627D01*
X129211717Y-53435627D01*
X129295786Y-53461129D01*
X129415299Y-53497383D01*
X129602921Y-53597669D01*
X129767371Y-53732629D01*
X129902331Y-53897079D01*
X130002617Y-54084701D01*
X130038871Y-54204214D01*
X130048400Y-54235626D01*
X130064374Y-54288287D01*
X130085226Y-54500000D01*
X130064374Y-54711713D01*
X130002617Y-54915299D01*
X129902331Y-55102921D01*
X129767371Y-55267371D01*
X129602921Y-55402331D01*
X129415299Y-55502617D01*
X129295786Y-55538871D01*
X129211717Y-55564373D01*
X129211716Y-55564373D01*
X129211713Y-55564374D01*
X129053056Y-55580000D01*
X128946944Y-55580000D01*
X128788287Y-55564374D01*
X128788284Y-55564373D01*
X128788283Y-55564373D01*
X128704214Y-55538871D01*
X128584701Y-55502617D01*
X128397079Y-55402331D01*
X128232629Y-55267371D01*
X128097669Y-55102921D01*
X127997383Y-54915299D01*
X127935626Y-54711713D01*
X127914774Y-54500000D01*
X127935626Y-54288287D01*
X127951601Y-54235626D01*
X127961129Y-54204214D01*
X127997383Y-54084701D01*
X128097669Y-53897079D01*
X128232629Y-53732629D01*
X128397079Y-53597669D01*
X128584701Y-53497383D01*
X128704214Y-53461129D01*
X128788283Y-53435627D01*
X128788284Y-53435627D01*
X128788287Y-53435626D01*
X128946944Y-53420000D01*
X129053056Y-53420000D01*
X129211713Y-53435626D01*
X129211713Y-53435626D01*
G37*
G36*
X124646270Y-51574018D02*
X124677242Y-51583414D01*
X124705782Y-51598669D01*
X124730800Y-51619200D01*
X124751331Y-51644218D01*
X124766586Y-51672758D01*
X124775982Y-51703730D01*
X124780000Y-51744529D01*
X124780000Y-53155471D01*
X124775982Y-53196270D01*
X124766586Y-53227242D01*
X124751331Y-53255782D01*
X124730800Y-53280800D01*
X124705782Y-53301331D01*
X124677242Y-53316586D01*
X124646270Y-53325982D01*
X124605471Y-53330000D01*
X123394529Y-53330000D01*
X123353730Y-53325982D01*
X123322758Y-53316586D01*
X123294218Y-53301331D01*
X123269200Y-53280800D01*
X123248669Y-53255782D01*
X123233414Y-53227242D01*
X123224018Y-53196270D01*
X123220000Y-53155471D01*
X123220000Y-51744529D01*
X123224018Y-51703730D01*
X123233414Y-51672758D01*
X123248669Y-51644218D01*
X123269200Y-51619200D01*
X123294218Y-51598669D01*
X123322758Y-51583414D01*
X123353730Y-51574018D01*
X123394529Y-51570000D01*
X124605471Y-51570000D01*
X124646270Y-51574018D01*
X124646270Y-51574018D01*
G37*
G36*
X121646270Y-51574018D02*
X121677242Y-51583414D01*
X121705782Y-51598669D01*
X121730800Y-51619200D01*
X121751331Y-51644218D01*
X121766586Y-51672758D01*
X121775982Y-51703730D01*
X121780000Y-51744529D01*
X121780000Y-53155471D01*
X121775982Y-53196270D01*
X121766586Y-53227242D01*
X121751331Y-53255782D01*
X121730800Y-53280800D01*
X121705782Y-53301331D01*
X121677242Y-53316586D01*
X121646270Y-53325982D01*
X121605471Y-53330000D01*
X120394529Y-53330000D01*
X120353730Y-53325982D01*
X120322758Y-53316586D01*
X120294218Y-53301331D01*
X120269200Y-53280800D01*
X120248669Y-53255782D01*
X120233414Y-53227242D01*
X120224018Y-53196270D01*
X120220000Y-53155471D01*
X120220000Y-51744529D01*
X120224018Y-51703730D01*
X120233414Y-51672758D01*
X120248669Y-51644218D01*
X120269200Y-51619200D01*
X120294218Y-51598669D01*
X120322758Y-51583414D01*
X120353730Y-51574018D01*
X120394529Y-51570000D01*
X121605471Y-51570000D01*
X121646270Y-51574018D01*
X121646270Y-51574018D01*
G37*
G36*
X85896270Y-51269018D02*
X85927242Y-51278414D01*
X85955782Y-51293669D01*
X85980800Y-51314200D01*
X86001331Y-51339218D01*
X86016586Y-51367758D01*
X86025982Y-51398730D01*
X86030000Y-51439529D01*
X86030000Y-52850471D01*
X86025982Y-52891270D01*
X86016586Y-52922242D01*
X86001331Y-52950782D01*
X85980800Y-52975800D01*
X85955782Y-52996331D01*
X85927242Y-53011586D01*
X85896270Y-53020982D01*
X85855471Y-53025000D01*
X84644529Y-53025000D01*
X84603730Y-53020982D01*
X84572758Y-53011586D01*
X84544218Y-52996331D01*
X84519200Y-52975800D01*
X84498669Y-52950782D01*
X84483414Y-52922242D01*
X84474018Y-52891270D01*
X84470000Y-52850471D01*
X84470000Y-51439529D01*
X84474018Y-51398730D01*
X84483414Y-51367758D01*
X84498669Y-51339218D01*
X84519200Y-51314200D01*
X84544218Y-51293669D01*
X84572758Y-51278414D01*
X84603730Y-51269018D01*
X84644529Y-51265000D01*
X85855471Y-51265000D01*
X85896270Y-51269018D01*
X85896270Y-51269018D01*
G37*
G36*
X82896270Y-51269018D02*
X82927242Y-51278414D01*
X82955782Y-51293669D01*
X82980800Y-51314200D01*
X83001331Y-51339218D01*
X83016586Y-51367758D01*
X83025982Y-51398730D01*
X83030000Y-51439529D01*
X83030000Y-52850471D01*
X83025982Y-52891270D01*
X83016586Y-52922242D01*
X83001331Y-52950782D01*
X82980800Y-52975800D01*
X82955782Y-52996331D01*
X82927242Y-53011586D01*
X82896270Y-53020982D01*
X82855471Y-53025000D01*
X81644529Y-53025000D01*
X81603730Y-53020982D01*
X81572758Y-53011586D01*
X81544218Y-52996331D01*
X81519200Y-52975800D01*
X81498669Y-52950782D01*
X81483414Y-52922242D01*
X81474018Y-52891270D01*
X81470000Y-52850471D01*
X81470000Y-51439529D01*
X81474018Y-51398730D01*
X81483414Y-51367758D01*
X81498669Y-51339218D01*
X81519200Y-51314200D01*
X81544218Y-51293669D01*
X81572758Y-51278414D01*
X81603730Y-51269018D01*
X81644529Y-51265000D01*
X82855471Y-51265000D01*
X82896270Y-51269018D01*
X82896270Y-51269018D01*
G37*
G36*
X79396270Y-51269018D02*
X79427242Y-51278414D01*
X79455782Y-51293669D01*
X79480800Y-51314200D01*
X79501331Y-51339218D01*
X79516586Y-51367758D01*
X79525982Y-51398730D01*
X79530000Y-51439529D01*
X79530000Y-52850471D01*
X79525982Y-52891270D01*
X79516586Y-52922242D01*
X79501331Y-52950782D01*
X79480800Y-52975800D01*
X79455782Y-52996331D01*
X79427242Y-53011586D01*
X79396270Y-53020982D01*
X79355471Y-53025000D01*
X78144529Y-53025000D01*
X78103730Y-53020982D01*
X78072758Y-53011586D01*
X78044218Y-52996331D01*
X78019200Y-52975800D01*
X77998669Y-52950782D01*
X77983414Y-52922242D01*
X77974018Y-52891270D01*
X77970000Y-52850471D01*
X77970000Y-51439529D01*
X77974018Y-51398730D01*
X77983414Y-51367758D01*
X77998669Y-51339218D01*
X78019200Y-51314200D01*
X78044218Y-51293669D01*
X78072758Y-51278414D01*
X78103730Y-51269018D01*
X78144529Y-51265000D01*
X79355471Y-51265000D01*
X79396270Y-51269018D01*
X79396270Y-51269018D01*
G37*
G36*
X76396270Y-51269018D02*
X76427242Y-51278414D01*
X76455782Y-51293669D01*
X76480800Y-51314200D01*
X76501331Y-51339218D01*
X76516586Y-51367758D01*
X76525982Y-51398730D01*
X76530000Y-51439529D01*
X76530000Y-52850471D01*
X76525982Y-52891270D01*
X76516586Y-52922242D01*
X76501331Y-52950782D01*
X76480800Y-52975800D01*
X76455782Y-52996331D01*
X76427242Y-53011586D01*
X76396270Y-53020982D01*
X76355471Y-53025000D01*
X75144529Y-53025000D01*
X75103730Y-53020982D01*
X75072758Y-53011586D01*
X75044218Y-52996331D01*
X75019200Y-52975800D01*
X74998669Y-52950782D01*
X74983414Y-52922242D01*
X74974018Y-52891270D01*
X74970000Y-52850471D01*
X74970000Y-51439529D01*
X74974018Y-51398730D01*
X74983414Y-51367758D01*
X74998669Y-51339218D01*
X75019200Y-51314200D01*
X75044218Y-51293669D01*
X75072758Y-51278414D01*
X75103730Y-51269018D01*
X75144529Y-51265000D01*
X76355471Y-51265000D01*
X76396270Y-51269018D01*
X76396270Y-51269018D01*
G37*
G36*
X73677611Y-51368271D02*
X73701276Y-51375449D01*
X73723086Y-51387107D01*
X73742204Y-51402796D01*
X73757893Y-51421914D01*
X73769551Y-51443724D01*
X73776729Y-51467389D01*
X73780000Y-51500595D01*
X73780000Y-52789405D01*
X73776729Y-52822611D01*
X73769551Y-52846276D01*
X73757893Y-52868086D01*
X73742204Y-52887204D01*
X73723086Y-52902893D01*
X73701276Y-52914551D01*
X73677611Y-52921729D01*
X73644405Y-52925000D01*
X72755595Y-52925000D01*
X72722389Y-52921729D01*
X72698724Y-52914551D01*
X72676914Y-52902893D01*
X72657796Y-52887204D01*
X72642107Y-52868086D01*
X72630449Y-52846276D01*
X72623271Y-52822611D01*
X72620000Y-52789405D01*
X72620000Y-51500595D01*
X72623271Y-51467389D01*
X72630449Y-51443724D01*
X72642107Y-51421914D01*
X72657796Y-51402796D01*
X72676914Y-51387107D01*
X72698724Y-51375449D01*
X72722389Y-51368271D01*
X72755595Y-51365000D01*
X73644405Y-51365000D01*
X73677611Y-51368271D01*
X73677611Y-51368271D01*
G37*
G36*
X71777611Y-51368271D02*
X71801276Y-51375449D01*
X71823086Y-51387107D01*
X71842204Y-51402796D01*
X71857893Y-51421914D01*
X71869551Y-51443724D01*
X71876729Y-51467389D01*
X71880000Y-51500595D01*
X71880000Y-52789405D01*
X71876729Y-52822611D01*
X71869551Y-52846276D01*
X71857893Y-52868086D01*
X71842204Y-52887204D01*
X71823086Y-52902893D01*
X71801276Y-52914551D01*
X71777611Y-52921729D01*
X71744405Y-52925000D01*
X70855595Y-52925000D01*
X70822389Y-52921729D01*
X70798724Y-52914551D01*
X70776914Y-52902893D01*
X70757796Y-52887204D01*
X70742107Y-52868086D01*
X70730449Y-52846276D01*
X70723271Y-52822611D01*
X70720000Y-52789405D01*
X70720000Y-51500595D01*
X70723271Y-51467389D01*
X70730449Y-51443724D01*
X70742107Y-51421914D01*
X70757796Y-51402796D01*
X70776914Y-51387107D01*
X70798724Y-51375449D01*
X70822389Y-51368271D01*
X70855595Y-51365000D01*
X71744405Y-51365000D01*
X71777611Y-51368271D01*
X71777611Y-51368271D01*
G37*
G36*
X44765077Y-45903734D02*
X45398398Y-46166064D01*
X45968369Y-46546906D01*
X46453094Y-47031631D01*
X46833936Y-47601602D01*
X47096266Y-48234923D01*
X47230000Y-48907248D01*
X47230000Y-49592752D01*
X47096266Y-50265077D01*
X46833936Y-50898398D01*
X46453094Y-51468369D01*
X45968369Y-51953094D01*
X45398398Y-52333936D01*
X44765077Y-52596266D01*
X44092752Y-52730000D01*
X43407248Y-52730000D01*
X42734923Y-52596266D01*
X42101602Y-52333936D01*
X41531631Y-51953094D01*
X41046906Y-51468369D01*
X40666064Y-50898398D01*
X40403734Y-50265077D01*
X40270000Y-49592752D01*
X40270000Y-48907248D01*
X40403734Y-48234923D01*
X40666064Y-47601602D01*
X41046906Y-47031631D01*
X41531631Y-46546906D01*
X42101602Y-46166064D01*
X42734923Y-45903734D01*
X43407248Y-45770000D01*
X44092752Y-45770000D01*
X44765077Y-45903734D01*
X44765077Y-45903734D01*
G37*
G36*
X124646270Y-49174018D02*
X124677242Y-49183414D01*
X124705782Y-49198669D01*
X124730800Y-49219200D01*
X124751331Y-49244218D01*
X124766586Y-49272758D01*
X124775982Y-49303730D01*
X124780000Y-49344529D01*
X124780000Y-50755471D01*
X124775982Y-50796270D01*
X124766586Y-50827242D01*
X124751331Y-50855782D01*
X124730800Y-50880800D01*
X124705782Y-50901331D01*
X124677242Y-50916586D01*
X124646270Y-50925982D01*
X124605471Y-50930000D01*
X123394529Y-50930000D01*
X123353730Y-50925982D01*
X123322758Y-50916586D01*
X123294218Y-50901331D01*
X123269200Y-50880800D01*
X123248669Y-50855782D01*
X123233414Y-50827242D01*
X123224018Y-50796270D01*
X123220000Y-50755471D01*
X123220000Y-49344529D01*
X123224018Y-49303730D01*
X123233414Y-49272758D01*
X123248669Y-49244218D01*
X123269200Y-49219200D01*
X123294218Y-49198669D01*
X123322758Y-49183414D01*
X123353730Y-49174018D01*
X123394529Y-49170000D01*
X124605471Y-49170000D01*
X124646270Y-49174018D01*
X124646270Y-49174018D01*
G37*
G36*
X121646270Y-49174018D02*
X121677242Y-49183414D01*
X121705782Y-49198669D01*
X121730800Y-49219200D01*
X121751331Y-49244218D01*
X121766586Y-49272758D01*
X121775982Y-49303730D01*
X121780000Y-49344529D01*
X121780000Y-50755471D01*
X121775982Y-50796270D01*
X121766586Y-50827242D01*
X121751331Y-50855782D01*
X121730800Y-50880800D01*
X121705782Y-50901331D01*
X121677242Y-50916586D01*
X121646270Y-50925982D01*
X121605471Y-50930000D01*
X120394529Y-50930000D01*
X120353730Y-50925982D01*
X120322758Y-50916586D01*
X120294218Y-50901331D01*
X120269200Y-50880800D01*
X120248669Y-50855782D01*
X120233414Y-50827242D01*
X120224018Y-50796270D01*
X120220000Y-50755471D01*
X120220000Y-49344529D01*
X120224018Y-49303730D01*
X120233414Y-49272758D01*
X120248669Y-49244218D01*
X120269200Y-49219200D01*
X120294218Y-49198669D01*
X120322758Y-49183414D01*
X120353730Y-49174018D01*
X120394529Y-49170000D01*
X121605471Y-49170000D01*
X121646270Y-49174018D01*
X121646270Y-49174018D01*
G37*
G36*
X79396270Y-48869018D02*
X79427242Y-48878414D01*
X79455782Y-48893669D01*
X79480800Y-48914200D01*
X79501331Y-48939218D01*
X79516586Y-48967758D01*
X79525982Y-48998730D01*
X79530000Y-49039529D01*
X79530000Y-50450471D01*
X79525982Y-50491270D01*
X79516586Y-50522242D01*
X79501331Y-50550782D01*
X79480800Y-50575800D01*
X79455782Y-50596331D01*
X79427242Y-50611586D01*
X79396270Y-50620982D01*
X79355471Y-50625000D01*
X78144529Y-50625000D01*
X78103730Y-50620982D01*
X78072758Y-50611586D01*
X78044218Y-50596331D01*
X78019200Y-50575800D01*
X77998669Y-50550782D01*
X77983414Y-50522242D01*
X77974018Y-50491270D01*
X77970000Y-50450471D01*
X77970000Y-49039529D01*
X77974018Y-48998730D01*
X77983414Y-48967758D01*
X77998669Y-48939218D01*
X78019200Y-48914200D01*
X78044218Y-48893669D01*
X78072758Y-48878414D01*
X78103730Y-48869018D01*
X78144529Y-48865000D01*
X79355471Y-48865000D01*
X79396270Y-48869018D01*
X79396270Y-48869018D01*
G37*
G36*
X85896270Y-48869018D02*
X85927242Y-48878414D01*
X85955782Y-48893669D01*
X85980800Y-48914200D01*
X86001331Y-48939218D01*
X86016586Y-48967758D01*
X86025982Y-48998730D01*
X86030000Y-49039529D01*
X86030000Y-50450471D01*
X86025982Y-50491270D01*
X86016586Y-50522242D01*
X86001331Y-50550782D01*
X85980800Y-50575800D01*
X85955782Y-50596331D01*
X85927242Y-50611586D01*
X85896270Y-50620982D01*
X85855471Y-50625000D01*
X84644529Y-50625000D01*
X84603730Y-50620982D01*
X84572758Y-50611586D01*
X84544218Y-50596331D01*
X84519200Y-50575800D01*
X84498669Y-50550782D01*
X84483414Y-50522242D01*
X84474018Y-50491270D01*
X84470000Y-50450471D01*
X84470000Y-49039529D01*
X84474018Y-48998730D01*
X84483414Y-48967758D01*
X84498669Y-48939218D01*
X84519200Y-48914200D01*
X84544218Y-48893669D01*
X84572758Y-48878414D01*
X84603730Y-48869018D01*
X84644529Y-48865000D01*
X85855471Y-48865000D01*
X85896270Y-48869018D01*
X85896270Y-48869018D01*
G37*
G36*
X82896270Y-48869018D02*
X82927242Y-48878414D01*
X82955782Y-48893669D01*
X82980800Y-48914200D01*
X83001331Y-48939218D01*
X83016586Y-48967758D01*
X83025982Y-48998730D01*
X83030000Y-49039529D01*
X83030000Y-50450471D01*
X83025982Y-50491270D01*
X83016586Y-50522242D01*
X83001331Y-50550782D01*
X82980800Y-50575800D01*
X82955782Y-50596331D01*
X82927242Y-50611586D01*
X82896270Y-50620982D01*
X82855471Y-50625000D01*
X81644529Y-50625000D01*
X81603730Y-50620982D01*
X81572758Y-50611586D01*
X81544218Y-50596331D01*
X81519200Y-50575800D01*
X81498669Y-50550782D01*
X81483414Y-50522242D01*
X81474018Y-50491270D01*
X81470000Y-50450471D01*
X81470000Y-49039529D01*
X81474018Y-48998730D01*
X81483414Y-48967758D01*
X81498669Y-48939218D01*
X81519200Y-48914200D01*
X81544218Y-48893669D01*
X81572758Y-48878414D01*
X81603730Y-48869018D01*
X81644529Y-48865000D01*
X82855471Y-48865000D01*
X82896270Y-48869018D01*
X82896270Y-48869018D01*
G37*
G36*
X76396270Y-48869018D02*
X76427242Y-48878414D01*
X76455782Y-48893669D01*
X76480800Y-48914200D01*
X76501331Y-48939218D01*
X76516586Y-48967758D01*
X76525982Y-48998730D01*
X76530000Y-49039529D01*
X76530000Y-50450471D01*
X76525982Y-50491270D01*
X76516586Y-50522242D01*
X76501331Y-50550782D01*
X76480800Y-50575800D01*
X76455782Y-50596331D01*
X76427242Y-50611586D01*
X76396270Y-50620982D01*
X76355471Y-50625000D01*
X75144529Y-50625000D01*
X75103730Y-50620982D01*
X75072758Y-50611586D01*
X75044218Y-50596331D01*
X75019200Y-50575800D01*
X74998669Y-50550782D01*
X74983414Y-50522242D01*
X74974018Y-50491270D01*
X74970000Y-50450471D01*
X74970000Y-49039529D01*
X74974018Y-48998730D01*
X74983414Y-48967758D01*
X74998669Y-48939218D01*
X75019200Y-48914200D01*
X75044218Y-48893669D01*
X75072758Y-48878414D01*
X75103730Y-48869018D01*
X75144529Y-48865000D01*
X76355471Y-48865000D01*
X76396270Y-48869018D01*
X76396270Y-48869018D01*
G37*
G36*
X72727611Y-48968271D02*
X72751276Y-48975449D01*
X72773086Y-48987107D01*
X72792204Y-49002796D01*
X72807893Y-49021914D01*
X72819551Y-49043724D01*
X72826729Y-49067389D01*
X72830000Y-49100595D01*
X72830000Y-50389405D01*
X72826729Y-50422611D01*
X72819551Y-50446276D01*
X72807893Y-50468086D01*
X72792204Y-50487204D01*
X72773086Y-50502893D01*
X72751276Y-50514551D01*
X72727611Y-50521729D01*
X72694405Y-50525000D01*
X71805595Y-50525000D01*
X71772389Y-50521729D01*
X71748724Y-50514551D01*
X71726914Y-50502893D01*
X71707796Y-50487204D01*
X71692107Y-50468086D01*
X71680449Y-50446276D01*
X71673271Y-50422611D01*
X71670000Y-50389405D01*
X71670000Y-49100595D01*
X71673271Y-49067389D01*
X71680449Y-49043724D01*
X71692107Y-49021914D01*
X71707796Y-49002796D01*
X71726914Y-48987107D01*
X71748724Y-48975449D01*
X71772389Y-48968271D01*
X71805595Y-48965000D01*
X72694405Y-48965000D01*
X72727611Y-48968271D01*
X72727611Y-48968271D01*
G37*
M02*
