G04 #@! TF.GenerationSoftware,KiCad,Pcbnew,5.0.2+dfsg1-1~bpo9+1*
G04 #@! TF.CreationDate,2019-05-11T00:16:23+03:00*
G04 #@! TF.ProjectId,esp32-rfm-gateway,65737033-322d-4726-966d-2d6761746577,rev?*
G04 #@! TF.SameCoordinates,Original*
G04 #@! TF.FileFunction,Profile,NP*
%FSLAX46Y46*%
G04 Gerber Fmt 4.6, Leading zero omitted, Abs format (unit mm)*
G04 Created by KiCad (PCBNEW 5.0.2+dfsg1-1~bpo9+1) date Sb 11 mai 2019 00:16:23 +0300*
%MOMM*%
%LPD*%
G01*
G04 APERTURE LIST*
%ADD10C,0.200000*%
G04 APERTURE END LIST*
D10*
X61250000Y-43750000D02*
G75*
G02X63500000Y-46000000I0J-2250000D01*
G01*
X66000000Y-48500000D02*
G75*
G02X63500000Y-46000000I0J2500000D01*
G01*
X68500000Y-102500000D02*
G75*
G02X68500000Y-104500000I0J-1000000D01*
G01*
X36000000Y-105500000D02*
G75*
G02X37000000Y-104500000I1000000J0D01*
G01*
X37000000Y-102500000D02*
G75*
G02X36000000Y-101500000I0J1000000D01*
G01*
X80000000Y-136250000D02*
G75*
G02X79000000Y-137250000I-1000000J0D01*
G01*
X80000000Y-132250000D02*
G75*
G02X81000000Y-131250000I1000000J0D01*
G01*
X91500000Y-131250000D02*
G75*
G02X92500000Y-132250000I0J-1000000D01*
G01*
X93500000Y-137250000D02*
G75*
G02X92500000Y-136250000I0J1000000D01*
G01*
X38000000Y-137250000D02*
G75*
G02X36000000Y-135250000I0J2000000D01*
G01*
X135000000Y-135250000D02*
G75*
G02X133000000Y-137250000I-2000000J0D01*
G01*
X133000000Y-48500000D02*
G75*
G02X135000000Y-50500000I0J-2000000D01*
G01*
X36000000Y-45750000D02*
G75*
G02X38000000Y-43750000I2000000J0D01*
G01*
X36000000Y-101500000D02*
X36000000Y-45750000D01*
X68500000Y-104500000D02*
X37000000Y-104500000D01*
X37000000Y-102500000D02*
X68500000Y-102500000D01*
X61250000Y-43750000D02*
X38000000Y-43750000D01*
X133000000Y-48500000D02*
X66000000Y-48500000D01*
X135000000Y-135250000D02*
X135000000Y-50500000D01*
X93500000Y-137250000D02*
X133000000Y-137250000D01*
X92500000Y-132250000D02*
X92500000Y-136250000D01*
X81000000Y-131250000D02*
X91500000Y-131250000D01*
X80000000Y-136250000D02*
X80000000Y-132250000D01*
X38000000Y-137250000D02*
X79000000Y-137250000D01*
X36000000Y-105500000D02*
X36000000Y-135250000D01*
M02*
