M48
;DRILL file {KiCad 5.0.2+dfsg1-1~bpo9+1} date Sb 11 mai 2019 00:16:30 +0300
;FORMAT={-:-/ absolute / metric / decimal}
FMAT,2
METRIC,TZ
T1C0.400
T2C0.500
T3C0.600
T4C0.800
T5C1.000
T6C1.100
T7C1.300
T8C1.400
T9C1.500
T10C1.700
T11C2.000
T12C0.460
T13C0.800
T14C2.400
T15C2.500
T16C3.550
%
G90
G05
T1
X38.75Y-67.25
X38.75Y-69.65
X39.25Y-98.25
X48.75Y-98.25
X52.Y-69.25
X52.Y-71.25
X52.Y-73.25
X56.75Y-84.25
X65.Y-90.5
X65.Y-98.25
X68.Y-88.5
X70.5Y-65.25
X71.Y-83.
X71.Y-90.5
X72.5Y-61.175
X73.5Y-62.445
X74.Y-49.745
X74.Y-90.5
X74.5Y-63.715
X75.5Y-88.25
X77.Y-83.
X77.5Y-65.5
X77.5Y-107.5
X77.5Y-112.5
X77.5Y-117.5
X77.5Y-122.5
X77.5Y-127.5
X78.Y-72.75
X79.5Y-69.25
X81.5Y-71.25
X83.Y-83.
X83.5Y-56.095
X84.75Y-58.635
X87.25Y-59.905
X87.5Y-54.825
X89.Y-91.7
X89.25Y-54.825
X90.75Y-69.25
X90.75Y-77.25
X90.75Y-78.75
X90.75Y-86.
X90.75Y-87.25
X92.Y-90.5
X95.Y-88.5
X95.Y-90.5
X95.Y-93.25
X95.Y-97.5
X98.Y-70.75
X98.Y-88.5
X98.25Y-92.25
X100.Y-63.5
X100.25Y-92.25
X101.25Y-64.25
X103.5Y-52.285
X103.5Y-93.25
X106.5Y-52.285
X109.25Y-70.
X109.5Y-97.5
X111.Y-115.5
X112.Y-57.365
X112.5Y-131.
X113.Y-66.25
X113.Y-110.
X113.5Y-52.285
X114.5Y-97.5
X114.75Y-56.095
X114.75Y-66.25
X117.25Y-67.
X117.5Y-131.
X120.25Y-109.55
X121.Y-55.
X121.5Y-114.3
X122.5Y-131.
X122.75Y-119.05
X124.Y-55.
X125.25Y-109.55
X125.25Y-114.3
X125.25Y-119.05
X126.25Y-53.
X126.75Y-62.5
X131.5Y-77.5
X131.75Y-109.55
X131.75Y-114.3
X131.75Y-119.05
X131.75Y-123.8
X132.5Y-52.
X132.5Y-85.5
X132.5Y-90.5
X132.5Y-95.5
T2
X52.5Y-47.5
X55.5Y-56.71
X55.5Y-75.
X57.5Y-47.5
X68.Y-94.3
X68.5Y-55.5
X71.Y-92.8
X74.Y-94.3
X77.5Y-90.5
X79.Y-75.
X80.5Y-49.745
X80.5Y-52.145
X81.5Y-88.75
X86.5Y-86.7
X90.75Y-75.
X96.Y-49.75
X102.5Y-75.
X103.Y-49.75
X103.Y-57.25
X104.Y-76.5
X116.5Y-49.745
X117.5Y-51.015
T3
X115.Y-115.
X115.Y-116.
T4
X56.75Y-90.5
X108.75Y-90.5
T5
X131.54Y-72.28
X131.54Y-74.82
X131.54Y-64.66
X131.54Y-67.2
X131.54Y-69.74
X39.25Y-84.98
X39.25Y-87.52
X39.25Y-90.06
X116.2Y-72.28
X116.2Y-74.82
X105.05Y-104.25
X107.59Y-104.25
X110.13Y-104.25
X112.67Y-104.25
X115.21Y-104.25
X117.75Y-104.25
X99.96Y-86.5
X102.5Y-86.5
X80.25Y-94.3
X82.79Y-94.3
X85.33Y-94.3
X131.54Y-54.5
X131.54Y-57.04
X131.54Y-59.58
X131.54Y-62.12
X73.21Y-55.5
X75.75Y-55.5
X106.75Y-125.5
X106.75Y-128.04
X39.25Y-74.82
X39.25Y-77.36
X39.25Y-79.9
X39.25Y-82.44
X129.Y-54.5
X129.Y-57.04
X129.Y-59.58
X129.Y-62.12
T6
X59.75Y-115.75
X59.75Y-126.5
X98.25Y-118.5
X98.25Y-126.5
T7
X50.Y-113.625
X50.Y-118.625
X50.Y-123.625
T8
X48.64Y-90.5
X120.86Y-90.5
T9
X41.25Y-59.25
T10
X38.71Y-56.71
X38.71Y-61.79
X43.79Y-56.71
X43.79Y-61.79
T11
X99.5Y-57.245
T12
X130.5Y-123.75
X130.5Y-126.25
X130.5Y-109.5
X130.5Y-112.
X130.5Y-119.
X130.5Y-121.5
X130.5Y-114.25
X130.5Y-116.75
T13
X59.25Y-84.52
X106.25Y-96.48
T14
X48.64Y-82.5
T15
X43.75Y-131.75
X128.75Y-131.75
X43.75Y-49.25
X128.75Y-104.25
T16
X56.86Y-98.5
X112.06Y-82.5
T0
M30
