G04 #@! TF.GenerationSoftware,KiCad,Pcbnew,5.0.2+dfsg1-1~bpo9+1*
G04 #@! TF.CreationDate,2019-05-11T00:16:23+03:00*
G04 #@! TF.ProjectId,esp32-rfm-gateway,65737033-322d-4726-966d-2d6761746577,rev?*
G04 #@! TF.SameCoordinates,Original*
G04 #@! TF.FileFunction,Legend,Top*
G04 #@! TF.FilePolarity,Positive*
%FSLAX46Y46*%
G04 Gerber Fmt 4.6, Leading zero omitted, Abs format (unit mm)*
G04 Created by KiCad (PCBNEW 5.0.2+dfsg1-1~bpo9+1) date Sb 11 mai 2019 00:16:23 +0300*
%MOMM*%
%LPD*%
G01*
G04 APERTURE LIST*
%ADD10C,0.150000*%
%ADD11C,0.500000*%
%ADD12C,0.300000*%
%ADD13C,0.600000*%
%ADD14C,0.800000*%
%ADD15C,0.010000*%
G04 APERTURE END LIST*
D10*
G36*
X106750000Y-107250000D02*
X108250000Y-107250000D01*
X107500000Y-108250000D01*
X106750000Y-107250000D01*
G37*
X106750000Y-107250000D02*
X108250000Y-107250000D01*
X107500000Y-108250000D01*
X106750000Y-107250000D01*
D11*
X104250000Y-107500000D02*
X105750000Y-107500000D01*
X105000000Y-106750000D02*
X105000000Y-108250000D01*
D12*
X104821428Y-122857142D02*
X105964285Y-122857142D01*
X105392857Y-123428571D02*
X105392857Y-122285714D01*
X107392857Y-121928571D02*
X106678571Y-121928571D01*
X106607142Y-122642857D01*
X106678571Y-122571428D01*
X106821428Y-122500000D01*
X107178571Y-122500000D01*
X107321428Y-122571428D01*
X107392857Y-122642857D01*
X107464285Y-122785714D01*
X107464285Y-123142857D01*
X107392857Y-123285714D01*
X107321428Y-123357142D01*
X107178571Y-123428571D01*
X106821428Y-123428571D01*
X106678571Y-123357142D01*
X106607142Y-123285714D01*
X107892857Y-121928571D02*
X108392857Y-123428571D01*
X108892857Y-121928571D01*
D10*
G36*
X108500000Y-128000000D02*
X110000000Y-128000000D01*
X109250000Y-129000000D01*
X108500000Y-128000000D01*
G37*
X108500000Y-128000000D02*
X110000000Y-128000000D01*
X109250000Y-129000000D01*
X108500000Y-128000000D01*
D11*
X117250000Y-106750000D02*
X118750000Y-106750000D01*
X118000000Y-106000000D02*
X118000000Y-107500000D01*
D12*
X110582142Y-110321428D02*
X110653571Y-110107142D01*
X110653571Y-109750000D01*
X110582142Y-109607142D01*
X110510714Y-109535714D01*
X110367857Y-109464285D01*
X110225000Y-109464285D01*
X110082142Y-109535714D01*
X110010714Y-109607142D01*
X109939285Y-109750000D01*
X109867857Y-110035714D01*
X109796428Y-110178571D01*
X109725000Y-110250000D01*
X109582142Y-110321428D01*
X109439285Y-110321428D01*
X109296428Y-110250000D01*
X109225000Y-110178571D01*
X109153571Y-110035714D01*
X109153571Y-109678571D01*
X109225000Y-109464285D01*
X110653571Y-108821428D02*
X109153571Y-108821428D01*
X109153571Y-108464285D01*
X109225000Y-108250000D01*
X109367857Y-108107142D01*
X109510714Y-108035714D01*
X109796428Y-107964285D01*
X110010714Y-107964285D01*
X110296428Y-108035714D01*
X110439285Y-108107142D01*
X110582142Y-108250000D01*
X110653571Y-108464285D01*
X110653571Y-108821428D01*
X110225000Y-107392857D02*
X110225000Y-106678571D01*
X110653571Y-107535714D02*
X109153571Y-107035714D01*
X110653571Y-106535714D01*
X113132142Y-110285714D02*
X113203571Y-110071428D01*
X113203571Y-109714285D01*
X113132142Y-109571428D01*
X113060714Y-109500000D01*
X112917857Y-109428571D01*
X112775000Y-109428571D01*
X112632142Y-109500000D01*
X112560714Y-109571428D01*
X112489285Y-109714285D01*
X112417857Y-110000000D01*
X112346428Y-110142857D01*
X112275000Y-110214285D01*
X112132142Y-110285714D01*
X111989285Y-110285714D01*
X111846428Y-110214285D01*
X111775000Y-110142857D01*
X111703571Y-110000000D01*
X111703571Y-109642857D01*
X111775000Y-109428571D01*
X113060714Y-107928571D02*
X113132142Y-108000000D01*
X113203571Y-108214285D01*
X113203571Y-108357142D01*
X113132142Y-108571428D01*
X112989285Y-108714285D01*
X112846428Y-108785714D01*
X112560714Y-108857142D01*
X112346428Y-108857142D01*
X112060714Y-108785714D01*
X111917857Y-108714285D01*
X111775000Y-108571428D01*
X111703571Y-108357142D01*
X111703571Y-108214285D01*
X111775000Y-108000000D01*
X111846428Y-107928571D01*
X113203571Y-106571428D02*
X113203571Y-107285714D01*
X111703571Y-107285714D01*
D10*
G36*
X114500000Y-106250000D02*
X116000000Y-106250000D01*
X115250000Y-107250000D01*
X114500000Y-106250000D01*
G37*
X114500000Y-106250000D02*
X116000000Y-106250000D01*
X115250000Y-107250000D01*
X114500000Y-106250000D01*
D11*
X126500000Y-54000000D02*
X126500000Y-55500000D01*
X125750000Y-54750000D02*
X127250000Y-54750000D01*
D12*
X126035714Y-73153571D02*
X126035714Y-71653571D01*
X126392857Y-71653571D01*
X126607142Y-71725000D01*
X126750000Y-71867857D01*
X126821428Y-72010714D01*
X126892857Y-72296428D01*
X126892857Y-72510714D01*
X126821428Y-72796428D01*
X126750000Y-72939285D01*
X126607142Y-73082142D01*
X126392857Y-73153571D01*
X126035714Y-73153571D01*
X127321428Y-71653571D02*
X128178571Y-71653571D01*
X127750000Y-73153571D02*
X127750000Y-71653571D01*
X129535714Y-73153571D02*
X129035714Y-72439285D01*
X128678571Y-73153571D02*
X128678571Y-71653571D01*
X129250000Y-71653571D01*
X129392857Y-71725000D01*
X129464285Y-71796428D01*
X129535714Y-71939285D01*
X129535714Y-72153571D01*
X129464285Y-72296428D01*
X129392857Y-72367857D01*
X129250000Y-72439285D01*
X128678571Y-72439285D01*
X126928571Y-75703571D02*
X126428571Y-74989285D01*
X126071428Y-75703571D02*
X126071428Y-74203571D01*
X126642857Y-74203571D01*
X126785714Y-74275000D01*
X126857142Y-74346428D01*
X126928571Y-74489285D01*
X126928571Y-74703571D01*
X126857142Y-74846428D01*
X126785714Y-74917857D01*
X126642857Y-74989285D01*
X126071428Y-74989285D01*
X127357142Y-74203571D02*
X128214285Y-74203571D01*
X127785714Y-75703571D02*
X127785714Y-74203571D01*
X128642857Y-75632142D02*
X128857142Y-75703571D01*
X129214285Y-75703571D01*
X129357142Y-75632142D01*
X129428571Y-75560714D01*
X129500000Y-75417857D01*
X129500000Y-75275000D01*
X129428571Y-75132142D01*
X129357142Y-75060714D01*
X129214285Y-74989285D01*
X128928571Y-74917857D01*
X128785714Y-74846428D01*
X128714285Y-74775000D01*
X128642857Y-74632142D01*
X128642857Y-74489285D01*
X128714285Y-74346428D01*
X128785714Y-74275000D01*
X128928571Y-74203571D01*
X129285714Y-74203571D01*
X129500000Y-74275000D01*
X127464285Y-63903571D02*
X128321428Y-63903571D01*
X127892857Y-65403571D02*
X127892857Y-63903571D01*
X128678571Y-65403571D02*
X129464285Y-64403571D01*
X128678571Y-64403571D02*
X129464285Y-65403571D01*
X128357142Y-67953571D02*
X127857142Y-67239285D01*
X127500000Y-67953571D02*
X127500000Y-66453571D01*
X128071428Y-66453571D01*
X128214285Y-66525000D01*
X128285714Y-66596428D01*
X128357142Y-66739285D01*
X128357142Y-66953571D01*
X128285714Y-67096428D01*
X128214285Y-67167857D01*
X128071428Y-67239285D01*
X127500000Y-67239285D01*
X128857142Y-67953571D02*
X129642857Y-66953571D01*
X128857142Y-66953571D02*
X129642857Y-67953571D01*
X123714285Y-60082142D02*
X123928571Y-60153571D01*
X124285714Y-60153571D01*
X124428571Y-60082142D01*
X124500000Y-60010714D01*
X124571428Y-59867857D01*
X124571428Y-59725000D01*
X124500000Y-59582142D01*
X124428571Y-59510714D01*
X124285714Y-59439285D01*
X124000000Y-59367857D01*
X123857142Y-59296428D01*
X123785714Y-59225000D01*
X123714285Y-59082142D01*
X123714285Y-58939285D01*
X123785714Y-58796428D01*
X123857142Y-58725000D01*
X124000000Y-58653571D01*
X124357142Y-58653571D01*
X124571428Y-58725000D01*
X126071428Y-60010714D02*
X126000000Y-60082142D01*
X125785714Y-60153571D01*
X125642857Y-60153571D01*
X125428571Y-60082142D01*
X125285714Y-59939285D01*
X125214285Y-59796428D01*
X125142857Y-59510714D01*
X125142857Y-59296428D01*
X125214285Y-59010714D01*
X125285714Y-58867857D01*
X125428571Y-58725000D01*
X125642857Y-58653571D01*
X125785714Y-58653571D01*
X126000000Y-58725000D01*
X126071428Y-58796428D01*
X127428571Y-60153571D02*
X126714285Y-60153571D01*
X126714285Y-58653571D01*
X123678571Y-62632142D02*
X123892857Y-62703571D01*
X124250000Y-62703571D01*
X124392857Y-62632142D01*
X124464285Y-62560714D01*
X124535714Y-62417857D01*
X124535714Y-62275000D01*
X124464285Y-62132142D01*
X124392857Y-62060714D01*
X124250000Y-61989285D01*
X123964285Y-61917857D01*
X123821428Y-61846428D01*
X123750000Y-61775000D01*
X123678571Y-61632142D01*
X123678571Y-61489285D01*
X123750000Y-61346428D01*
X123821428Y-61275000D01*
X123964285Y-61203571D01*
X124321428Y-61203571D01*
X124535714Y-61275000D01*
X125178571Y-62703571D02*
X125178571Y-61203571D01*
X125535714Y-61203571D01*
X125750000Y-61275000D01*
X125892857Y-61417857D01*
X125964285Y-61560714D01*
X126035714Y-61846428D01*
X126035714Y-62060714D01*
X125964285Y-62346428D01*
X125892857Y-62489285D01*
X125750000Y-62632142D01*
X125535714Y-62703571D01*
X125178571Y-62703571D01*
X126607142Y-62275000D02*
X127321428Y-62275000D01*
X126464285Y-62703571D02*
X126964285Y-61203571D01*
X127464285Y-62703571D01*
D10*
G36*
X128000000Y-69500000D02*
X129500000Y-69500000D01*
X128750000Y-70500000D01*
X128000000Y-69500000D01*
G37*
X128000000Y-69500000D02*
X129500000Y-69500000D01*
X128750000Y-70500000D01*
X128000000Y-69500000D01*
G36*
X125750000Y-56500000D02*
X127250000Y-56500000D01*
X126500000Y-57500000D01*
X125750000Y-56500000D01*
G37*
X125750000Y-56500000D02*
X127250000Y-56500000D01*
X126500000Y-57500000D01*
X125750000Y-56500000D01*
D12*
X41214285Y-84153571D02*
X42071428Y-84153571D01*
X41642857Y-85653571D02*
X41642857Y-84153571D01*
X42428571Y-85653571D02*
X43214285Y-84653571D01*
X42428571Y-84653571D02*
X43214285Y-85653571D01*
X42107142Y-88203571D02*
X41607142Y-87489285D01*
X41250000Y-88203571D02*
X41250000Y-86703571D01*
X41821428Y-86703571D01*
X41964285Y-86775000D01*
X42035714Y-86846428D01*
X42107142Y-86989285D01*
X42107142Y-87203571D01*
X42035714Y-87346428D01*
X41964285Y-87417857D01*
X41821428Y-87489285D01*
X41250000Y-87489285D01*
X42607142Y-88203571D02*
X43392857Y-87203571D01*
X42607142Y-87203571D02*
X43392857Y-88203571D01*
D10*
G36*
X41250000Y-89750000D02*
X42750000Y-89750000D01*
X42000000Y-90750000D01*
X41250000Y-89750000D01*
G37*
X41250000Y-89750000D02*
X42750000Y-89750000D01*
X42000000Y-90750000D01*
X41250000Y-89750000D01*
G36*
X41250000Y-82000000D02*
X42750000Y-82000000D01*
X42000000Y-83000000D01*
X41250000Y-82000000D01*
G37*
X41250000Y-82000000D02*
X42750000Y-82000000D01*
X42000000Y-83000000D01*
X41250000Y-82000000D01*
G36*
X41250000Y-77000000D02*
X42750000Y-77000000D01*
X42000000Y-78000000D01*
X41250000Y-77000000D01*
G37*
X41250000Y-77000000D02*
X42750000Y-77000000D01*
X42000000Y-78000000D01*
X41250000Y-77000000D01*
G36*
X70000000Y-55250000D02*
X71500000Y-55250000D01*
X70750000Y-56250000D01*
X70000000Y-55250000D01*
G37*
X70000000Y-55250000D02*
X71500000Y-55250000D01*
X70750000Y-56250000D01*
X70000000Y-55250000D01*
G36*
X118250000Y-74500000D02*
X119750000Y-74500000D01*
X119000000Y-75500000D01*
X118250000Y-74500000D01*
G37*
X118250000Y-74500000D02*
X119750000Y-74500000D01*
X119000000Y-75500000D01*
X118250000Y-74500000D01*
D12*
X119107142Y-72142857D02*
X119321428Y-72214285D01*
X119392857Y-72285714D01*
X119464285Y-72428571D01*
X119464285Y-72642857D01*
X119392857Y-72785714D01*
X119321428Y-72857142D01*
X119178571Y-72928571D01*
X118607142Y-72928571D01*
X118607142Y-71428571D01*
X119107142Y-71428571D01*
X119250000Y-71500000D01*
X119321428Y-71571428D01*
X119392857Y-71714285D01*
X119392857Y-71857142D01*
X119321428Y-72000000D01*
X119250000Y-72071428D01*
X119107142Y-72142857D01*
X118607142Y-72142857D01*
X48700000Y-53633333D02*
X48700000Y-52700000D01*
X48700000Y-52966666D02*
X48766666Y-52833333D01*
X48833333Y-52766666D01*
X48966666Y-52700000D01*
X49100000Y-52700000D01*
X50100000Y-53566666D02*
X49966666Y-53633333D01*
X49700000Y-53633333D01*
X49566666Y-53566666D01*
X49500000Y-53433333D01*
X49500000Y-52900000D01*
X49566666Y-52766666D01*
X49700000Y-52700000D01*
X49966666Y-52700000D01*
X50100000Y-52766666D01*
X50166666Y-52900000D01*
X50166666Y-53033333D01*
X49500000Y-53166666D01*
X50633333Y-52700000D02*
X50966666Y-53633333D01*
X51300000Y-52700000D01*
X51833333Y-53500000D02*
X51900000Y-53566666D01*
X51833333Y-53633333D01*
X51766666Y-53566666D01*
X51833333Y-53500000D01*
X51833333Y-53633333D01*
X52366666Y-52233333D02*
X53233333Y-52233333D01*
X52766666Y-52766666D01*
X52966666Y-52766666D01*
X53100000Y-52833333D01*
X53166666Y-52900000D01*
X53233333Y-53033333D01*
X53233333Y-53366666D01*
X53166666Y-53500000D01*
X53100000Y-53566666D01*
X52966666Y-53633333D01*
X52566666Y-53633333D01*
X52433333Y-53566666D01*
X52366666Y-53500000D01*
X54033333Y-52833333D02*
X53900000Y-52766666D01*
X53833333Y-52700000D01*
X53766666Y-52566666D01*
X53766666Y-52500000D01*
X53833333Y-52366666D01*
X53900000Y-52300000D01*
X54033333Y-52233333D01*
X54300000Y-52233333D01*
X54433333Y-52300000D01*
X54500000Y-52366666D01*
X54566666Y-52500000D01*
X54566666Y-52566666D01*
X54500000Y-52700000D01*
X54433333Y-52766666D01*
X54300000Y-52833333D01*
X54033333Y-52833333D01*
X53900000Y-52900000D01*
X53833333Y-52966666D01*
X53766666Y-53100000D01*
X53766666Y-53366666D01*
X53833333Y-53500000D01*
X53900000Y-53566666D01*
X54033333Y-53633333D01*
X54300000Y-53633333D01*
X54433333Y-53566666D01*
X54500000Y-53500000D01*
X54566666Y-53366666D01*
X54566666Y-53100000D01*
X54500000Y-52966666D01*
X54433333Y-52900000D01*
X54300000Y-52833333D01*
D13*
X43714285Y-114221428D02*
X44547619Y-114221428D01*
X44904761Y-115530952D02*
X43714285Y-115530952D01*
X43714285Y-113030952D01*
X44904761Y-113030952D01*
X43535714Y-119880952D02*
X43535714Y-117380952D01*
X44964285Y-119880952D01*
X44964285Y-117380952D01*
X45023809Y-124230952D02*
X43833333Y-124230952D01*
X43833333Y-121730952D01*
D14*
X43500000Y-92000000D02*
X43500000Y-95000000D01*
X45000000Y-93500000D02*
X42000000Y-93500000D01*
D12*
G04 #@! TO.C,D1*
X109750000Y-73280000D02*
X108750000Y-73280000D01*
G04 #@! TO.C,J22*
X59250000Y-90500000D02*
X61250000Y-90500000D01*
X60250000Y-89500000D02*
X60250000Y-91500000D01*
D10*
G04 #@! TO.C,SYM3*
G36*
X44000000Y-128500000D02*
X50000000Y-130500000D01*
X48750000Y-127000000D01*
X52710000Y-127990000D01*
X51830000Y-128570000D01*
X53910000Y-128370000D01*
X52500000Y-126750000D01*
X52750000Y-127780000D01*
X48000000Y-125750000D01*
X49250000Y-129750000D01*
X44000000Y-127000000D01*
X44000000Y-128500000D01*
G37*
X44000000Y-128500000D02*
X50000000Y-130500000D01*
X48750000Y-127000000D01*
X52710000Y-127990000D01*
X51830000Y-128570000D01*
X53910000Y-128370000D01*
X52500000Y-126750000D01*
X52750000Y-127780000D01*
X48000000Y-125750000D01*
X49250000Y-129750000D01*
X44000000Y-127000000D01*
X44000000Y-128500000D01*
D15*
G04 #@! TO.C,SYM2*
G36*
X107250964Y-131148576D02*
X107326513Y-131549322D01*
X107884041Y-131779154D01*
X108218465Y-131551748D01*
X108312122Y-131488431D01*
X108396782Y-131431896D01*
X108468495Y-131384727D01*
X108523311Y-131349502D01*
X108557280Y-131328805D01*
X108566530Y-131324342D01*
X108583195Y-131335820D01*
X108618806Y-131367551D01*
X108669371Y-131415483D01*
X108730900Y-131475562D01*
X108799399Y-131543733D01*
X108870879Y-131615945D01*
X108941347Y-131688142D01*
X109006811Y-131756273D01*
X109063280Y-131816283D01*
X109106763Y-131864119D01*
X109133268Y-131895727D01*
X109139605Y-131906305D01*
X109130486Y-131925806D01*
X109104920Y-131968531D01*
X109065597Y-132030298D01*
X109015203Y-132106931D01*
X108956427Y-132194248D01*
X108922368Y-132244052D01*
X108860289Y-132334993D01*
X108805126Y-132417059D01*
X108759554Y-132486163D01*
X108726250Y-132538222D01*
X108707890Y-132569150D01*
X108705131Y-132575650D01*
X108711385Y-132594121D01*
X108728434Y-132637172D01*
X108753703Y-132698749D01*
X108784622Y-132772799D01*
X108818618Y-132853270D01*
X108853118Y-132934107D01*
X108885551Y-133009258D01*
X108913343Y-133072671D01*
X108933923Y-133118293D01*
X108944719Y-133140069D01*
X108945356Y-133140926D01*
X108962307Y-133145084D01*
X109007451Y-133154361D01*
X109076110Y-133167844D01*
X109163602Y-133184621D01*
X109265250Y-133203781D01*
X109324556Y-133214830D01*
X109433172Y-133235510D01*
X109531277Y-133255189D01*
X109613909Y-133272789D01*
X109676104Y-133287233D01*
X109712899Y-133297446D01*
X109720296Y-133300686D01*
X109727540Y-133322617D01*
X109733385Y-133372147D01*
X109737835Y-133443485D01*
X109740893Y-133530839D01*
X109742565Y-133628417D01*
X109742853Y-133730426D01*
X109741761Y-133831075D01*
X109739294Y-133924572D01*
X109735456Y-134005125D01*
X109730250Y-134066942D01*
X109723681Y-134104230D01*
X109719741Y-134111993D01*
X109696188Y-134121298D01*
X109646282Y-134134600D01*
X109576623Y-134150337D01*
X109493813Y-134166946D01*
X109464905Y-134172319D01*
X109325531Y-134197848D01*
X109215436Y-134218408D01*
X109130982Y-134234815D01*
X109068530Y-134247887D01*
X109024444Y-134258441D01*
X108995085Y-134267294D01*
X108976815Y-134275263D01*
X108965998Y-134283165D01*
X108964485Y-134284727D01*
X108949377Y-134309886D01*
X108926329Y-134358850D01*
X108897644Y-134425621D01*
X108865622Y-134504205D01*
X108832565Y-134588607D01*
X108800773Y-134672830D01*
X108772549Y-134750879D01*
X108750193Y-134816759D01*
X108736007Y-134864473D01*
X108732293Y-134888027D01*
X108732602Y-134888852D01*
X108745189Y-134908104D01*
X108773744Y-134950463D01*
X108815267Y-135011521D01*
X108866756Y-135086868D01*
X108925211Y-135172096D01*
X108941858Y-135196315D01*
X109001215Y-135284123D01*
X109053447Y-135364238D01*
X109095708Y-135432062D01*
X109125153Y-135482993D01*
X109138937Y-135512431D01*
X109139605Y-135516048D01*
X109128024Y-135535057D01*
X109096024Y-135572714D01*
X109047718Y-135624973D01*
X108987220Y-135687786D01*
X108918644Y-135757106D01*
X108846104Y-135828885D01*
X108773712Y-135899077D01*
X108705584Y-135963635D01*
X108645832Y-136018510D01*
X108598571Y-136059656D01*
X108567913Y-136083026D01*
X108559432Y-136086842D01*
X108539691Y-136077855D01*
X108499274Y-136053616D01*
X108444763Y-136018209D01*
X108402823Y-135989711D01*
X108326829Y-135937418D01*
X108236834Y-135875845D01*
X108146564Y-135814370D01*
X108098032Y-135781469D01*
X107933762Y-135670359D01*
X107795869Y-135744916D01*
X107733049Y-135777578D01*
X107679629Y-135802966D01*
X107643484Y-135817446D01*
X107634284Y-135819460D01*
X107623221Y-135804584D01*
X107601394Y-135762547D01*
X107570434Y-135697227D01*
X107531970Y-135612500D01*
X107487632Y-135512245D01*
X107439047Y-135400339D01*
X107387846Y-135280659D01*
X107335659Y-135157084D01*
X107284113Y-135033491D01*
X107234840Y-134913757D01*
X107189467Y-134801759D01*
X107149625Y-134701377D01*
X107116942Y-134616486D01*
X107093049Y-134550965D01*
X107079574Y-134508690D01*
X107077406Y-134494172D01*
X107094583Y-134475653D01*
X107132190Y-134445590D01*
X107182366Y-134410232D01*
X107186578Y-134407434D01*
X107316264Y-134303625D01*
X107420834Y-134182515D01*
X107499381Y-134047976D01*
X107550999Y-133903882D01*
X107574782Y-133754105D01*
X107569823Y-133602517D01*
X107535217Y-133452992D01*
X107470057Y-133309400D01*
X107450886Y-133277984D01*
X107351174Y-133151125D01*
X107233377Y-133049255D01*
X107101571Y-132972904D01*
X106959833Y-132922602D01*
X106812242Y-132898879D01*
X106662873Y-132902265D01*
X106515803Y-132933288D01*
X106375111Y-132992480D01*
X106244873Y-133080369D01*
X106204586Y-133116042D01*
X106102055Y-133227706D01*
X106027341Y-133345257D01*
X105976090Y-133477020D01*
X105947546Y-133607507D01*
X105940500Y-133754216D01*
X105963996Y-133901653D01*
X106015649Y-134044834D01*
X106093071Y-134178777D01*
X106193875Y-134298498D01*
X106315676Y-134399014D01*
X106331684Y-134409609D01*
X106382398Y-134444306D01*
X106420950Y-134474370D01*
X106439381Y-134493565D01*
X106439649Y-134494172D01*
X106435692Y-134514936D01*
X106420007Y-134562062D01*
X106394222Y-134631673D01*
X106359969Y-134719893D01*
X106318877Y-134822844D01*
X106272576Y-134936650D01*
X106222696Y-135057435D01*
X106170867Y-135181321D01*
X106118719Y-135304432D01*
X106067882Y-135422891D01*
X106019987Y-135532823D01*
X105976662Y-135630349D01*
X105939538Y-135711593D01*
X105910244Y-135772679D01*
X105890412Y-135809730D01*
X105882426Y-135819460D01*
X105858021Y-135811883D01*
X105812358Y-135791560D01*
X105753310Y-135762125D01*
X105720840Y-135744916D01*
X105582947Y-135670359D01*
X105418677Y-135781469D01*
X105334821Y-135838390D01*
X105243013Y-135901030D01*
X105156980Y-135960011D01*
X105113887Y-135989711D01*
X105053277Y-136030410D01*
X105001955Y-136062663D01*
X104966615Y-136082384D01*
X104955137Y-136086554D01*
X104938430Y-136075307D01*
X104901454Y-136043911D01*
X104847795Y-135995624D01*
X104781038Y-135933708D01*
X104704766Y-135861421D01*
X104656527Y-135815008D01*
X104572133Y-135732087D01*
X104499197Y-135657920D01*
X104440669Y-135595680D01*
X104399497Y-135548541D01*
X104378628Y-135519673D01*
X104376626Y-135513815D01*
X104385917Y-135491532D01*
X104411591Y-135446477D01*
X104450800Y-135383211D01*
X104500697Y-135306295D01*
X104558433Y-135220292D01*
X104574851Y-135196315D01*
X104634677Y-135109170D01*
X104688350Y-135030710D01*
X104732870Y-134965345D01*
X104765235Y-134917484D01*
X104782445Y-134891535D01*
X104784107Y-134888852D01*
X104781621Y-134868172D01*
X104768423Y-134822704D01*
X104746814Y-134758444D01*
X104719096Y-134681387D01*
X104687570Y-134597529D01*
X104654537Y-134512866D01*
X104622299Y-134433392D01*
X104593157Y-134365104D01*
X104569412Y-134313997D01*
X104553365Y-134286067D01*
X104552225Y-134284727D01*
X104542412Y-134276745D01*
X104525839Y-134268851D01*
X104498868Y-134260229D01*
X104457861Y-134250062D01*
X104399180Y-134237531D01*
X104319187Y-134221821D01*
X104214245Y-134202113D01*
X104080715Y-134177592D01*
X104051804Y-134172319D01*
X103966118Y-134155764D01*
X103891418Y-134139569D01*
X103834306Y-134125296D01*
X103801383Y-134114508D01*
X103796969Y-134111993D01*
X103789694Y-134089696D01*
X103783781Y-134039869D01*
X103779234Y-133968304D01*
X103776055Y-133880793D01*
X103774251Y-133783128D01*
X103773823Y-133681101D01*
X103774777Y-133580503D01*
X103777116Y-133487127D01*
X103780844Y-133406765D01*
X103785966Y-133345209D01*
X103792484Y-133308250D01*
X103796414Y-133300686D01*
X103818292Y-133293056D01*
X103868109Y-133280642D01*
X103940903Y-133264522D01*
X104031711Y-133245773D01*
X104135569Y-133225471D01*
X104192154Y-133214830D01*
X104299514Y-133194760D01*
X104395254Y-133176580D01*
X104474694Y-133161199D01*
X104533154Y-133149531D01*
X104565955Y-133142488D01*
X104571354Y-133140926D01*
X104580478Y-133123322D01*
X104599765Y-133080918D01*
X104626645Y-133019772D01*
X104658546Y-132945943D01*
X104692898Y-132865489D01*
X104727129Y-132784468D01*
X104758669Y-132708937D01*
X104784946Y-132644955D01*
X104803389Y-132598580D01*
X104811429Y-132575869D01*
X104811578Y-132574876D01*
X104802465Y-132556961D01*
X104776914Y-132515733D01*
X104737612Y-132455291D01*
X104687243Y-132379731D01*
X104628494Y-132293152D01*
X104594342Y-132243421D01*
X104532110Y-132152236D01*
X104476836Y-132069449D01*
X104431218Y-131999249D01*
X104397952Y-131945824D01*
X104379736Y-131913361D01*
X104377105Y-131906083D01*
X104388414Y-131889145D01*
X104419681Y-131852978D01*
X104466910Y-131801635D01*
X104526108Y-131739167D01*
X104593281Y-131669626D01*
X104664434Y-131597065D01*
X104735574Y-131525535D01*
X104802707Y-131459087D01*
X104861839Y-131401774D01*
X104908975Y-131357647D01*
X104940123Y-131330759D01*
X104950543Y-131324342D01*
X104967509Y-131333365D01*
X105008089Y-131358715D01*
X105068337Y-131397810D01*
X105144307Y-131448071D01*
X105232054Y-131506917D01*
X105298244Y-131551748D01*
X105632668Y-131779154D01*
X105911433Y-131664238D01*
X106190197Y-131549322D01*
X106265746Y-131148576D01*
X106341294Y-130747829D01*
X107175415Y-130747829D01*
X107250964Y-131148576D01*
X107250964Y-131148576D01*
G37*
X107250964Y-131148576D02*
X107326513Y-131549322D01*
X107884041Y-131779154D01*
X108218465Y-131551748D01*
X108312122Y-131488431D01*
X108396782Y-131431896D01*
X108468495Y-131384727D01*
X108523311Y-131349502D01*
X108557280Y-131328805D01*
X108566530Y-131324342D01*
X108583195Y-131335820D01*
X108618806Y-131367551D01*
X108669371Y-131415483D01*
X108730900Y-131475562D01*
X108799399Y-131543733D01*
X108870879Y-131615945D01*
X108941347Y-131688142D01*
X109006811Y-131756273D01*
X109063280Y-131816283D01*
X109106763Y-131864119D01*
X109133268Y-131895727D01*
X109139605Y-131906305D01*
X109130486Y-131925806D01*
X109104920Y-131968531D01*
X109065597Y-132030298D01*
X109015203Y-132106931D01*
X108956427Y-132194248D01*
X108922368Y-132244052D01*
X108860289Y-132334993D01*
X108805126Y-132417059D01*
X108759554Y-132486163D01*
X108726250Y-132538222D01*
X108707890Y-132569150D01*
X108705131Y-132575650D01*
X108711385Y-132594121D01*
X108728434Y-132637172D01*
X108753703Y-132698749D01*
X108784622Y-132772799D01*
X108818618Y-132853270D01*
X108853118Y-132934107D01*
X108885551Y-133009258D01*
X108913343Y-133072671D01*
X108933923Y-133118293D01*
X108944719Y-133140069D01*
X108945356Y-133140926D01*
X108962307Y-133145084D01*
X109007451Y-133154361D01*
X109076110Y-133167844D01*
X109163602Y-133184621D01*
X109265250Y-133203781D01*
X109324556Y-133214830D01*
X109433172Y-133235510D01*
X109531277Y-133255189D01*
X109613909Y-133272789D01*
X109676104Y-133287233D01*
X109712899Y-133297446D01*
X109720296Y-133300686D01*
X109727540Y-133322617D01*
X109733385Y-133372147D01*
X109737835Y-133443485D01*
X109740893Y-133530839D01*
X109742565Y-133628417D01*
X109742853Y-133730426D01*
X109741761Y-133831075D01*
X109739294Y-133924572D01*
X109735456Y-134005125D01*
X109730250Y-134066942D01*
X109723681Y-134104230D01*
X109719741Y-134111993D01*
X109696188Y-134121298D01*
X109646282Y-134134600D01*
X109576623Y-134150337D01*
X109493813Y-134166946D01*
X109464905Y-134172319D01*
X109325531Y-134197848D01*
X109215436Y-134218408D01*
X109130982Y-134234815D01*
X109068530Y-134247887D01*
X109024444Y-134258441D01*
X108995085Y-134267294D01*
X108976815Y-134275263D01*
X108965998Y-134283165D01*
X108964485Y-134284727D01*
X108949377Y-134309886D01*
X108926329Y-134358850D01*
X108897644Y-134425621D01*
X108865622Y-134504205D01*
X108832565Y-134588607D01*
X108800773Y-134672830D01*
X108772549Y-134750879D01*
X108750193Y-134816759D01*
X108736007Y-134864473D01*
X108732293Y-134888027D01*
X108732602Y-134888852D01*
X108745189Y-134908104D01*
X108773744Y-134950463D01*
X108815267Y-135011521D01*
X108866756Y-135086868D01*
X108925211Y-135172096D01*
X108941858Y-135196315D01*
X109001215Y-135284123D01*
X109053447Y-135364238D01*
X109095708Y-135432062D01*
X109125153Y-135482993D01*
X109138937Y-135512431D01*
X109139605Y-135516048D01*
X109128024Y-135535057D01*
X109096024Y-135572714D01*
X109047718Y-135624973D01*
X108987220Y-135687786D01*
X108918644Y-135757106D01*
X108846104Y-135828885D01*
X108773712Y-135899077D01*
X108705584Y-135963635D01*
X108645832Y-136018510D01*
X108598571Y-136059656D01*
X108567913Y-136083026D01*
X108559432Y-136086842D01*
X108539691Y-136077855D01*
X108499274Y-136053616D01*
X108444763Y-136018209D01*
X108402823Y-135989711D01*
X108326829Y-135937418D01*
X108236834Y-135875845D01*
X108146564Y-135814370D01*
X108098032Y-135781469D01*
X107933762Y-135670359D01*
X107795869Y-135744916D01*
X107733049Y-135777578D01*
X107679629Y-135802966D01*
X107643484Y-135817446D01*
X107634284Y-135819460D01*
X107623221Y-135804584D01*
X107601394Y-135762547D01*
X107570434Y-135697227D01*
X107531970Y-135612500D01*
X107487632Y-135512245D01*
X107439047Y-135400339D01*
X107387846Y-135280659D01*
X107335659Y-135157084D01*
X107284113Y-135033491D01*
X107234840Y-134913757D01*
X107189467Y-134801759D01*
X107149625Y-134701377D01*
X107116942Y-134616486D01*
X107093049Y-134550965D01*
X107079574Y-134508690D01*
X107077406Y-134494172D01*
X107094583Y-134475653D01*
X107132190Y-134445590D01*
X107182366Y-134410232D01*
X107186578Y-134407434D01*
X107316264Y-134303625D01*
X107420834Y-134182515D01*
X107499381Y-134047976D01*
X107550999Y-133903882D01*
X107574782Y-133754105D01*
X107569823Y-133602517D01*
X107535217Y-133452992D01*
X107470057Y-133309400D01*
X107450886Y-133277984D01*
X107351174Y-133151125D01*
X107233377Y-133049255D01*
X107101571Y-132972904D01*
X106959833Y-132922602D01*
X106812242Y-132898879D01*
X106662873Y-132902265D01*
X106515803Y-132933288D01*
X106375111Y-132992480D01*
X106244873Y-133080369D01*
X106204586Y-133116042D01*
X106102055Y-133227706D01*
X106027341Y-133345257D01*
X105976090Y-133477020D01*
X105947546Y-133607507D01*
X105940500Y-133754216D01*
X105963996Y-133901653D01*
X106015649Y-134044834D01*
X106093071Y-134178777D01*
X106193875Y-134298498D01*
X106315676Y-134399014D01*
X106331684Y-134409609D01*
X106382398Y-134444306D01*
X106420950Y-134474370D01*
X106439381Y-134493565D01*
X106439649Y-134494172D01*
X106435692Y-134514936D01*
X106420007Y-134562062D01*
X106394222Y-134631673D01*
X106359969Y-134719893D01*
X106318877Y-134822844D01*
X106272576Y-134936650D01*
X106222696Y-135057435D01*
X106170867Y-135181321D01*
X106118719Y-135304432D01*
X106067882Y-135422891D01*
X106019987Y-135532823D01*
X105976662Y-135630349D01*
X105939538Y-135711593D01*
X105910244Y-135772679D01*
X105890412Y-135809730D01*
X105882426Y-135819460D01*
X105858021Y-135811883D01*
X105812358Y-135791560D01*
X105753310Y-135762125D01*
X105720840Y-135744916D01*
X105582947Y-135670359D01*
X105418677Y-135781469D01*
X105334821Y-135838390D01*
X105243013Y-135901030D01*
X105156980Y-135960011D01*
X105113887Y-135989711D01*
X105053277Y-136030410D01*
X105001955Y-136062663D01*
X104966615Y-136082384D01*
X104955137Y-136086554D01*
X104938430Y-136075307D01*
X104901454Y-136043911D01*
X104847795Y-135995624D01*
X104781038Y-135933708D01*
X104704766Y-135861421D01*
X104656527Y-135815008D01*
X104572133Y-135732087D01*
X104499197Y-135657920D01*
X104440669Y-135595680D01*
X104399497Y-135548541D01*
X104378628Y-135519673D01*
X104376626Y-135513815D01*
X104385917Y-135491532D01*
X104411591Y-135446477D01*
X104450800Y-135383211D01*
X104500697Y-135306295D01*
X104558433Y-135220292D01*
X104574851Y-135196315D01*
X104634677Y-135109170D01*
X104688350Y-135030710D01*
X104732870Y-134965345D01*
X104765235Y-134917484D01*
X104782445Y-134891535D01*
X104784107Y-134888852D01*
X104781621Y-134868172D01*
X104768423Y-134822704D01*
X104746814Y-134758444D01*
X104719096Y-134681387D01*
X104687570Y-134597529D01*
X104654537Y-134512866D01*
X104622299Y-134433392D01*
X104593157Y-134365104D01*
X104569412Y-134313997D01*
X104553365Y-134286067D01*
X104552225Y-134284727D01*
X104542412Y-134276745D01*
X104525839Y-134268851D01*
X104498868Y-134260229D01*
X104457861Y-134250062D01*
X104399180Y-134237531D01*
X104319187Y-134221821D01*
X104214245Y-134202113D01*
X104080715Y-134177592D01*
X104051804Y-134172319D01*
X103966118Y-134155764D01*
X103891418Y-134139569D01*
X103834306Y-134125296D01*
X103801383Y-134114508D01*
X103796969Y-134111993D01*
X103789694Y-134089696D01*
X103783781Y-134039869D01*
X103779234Y-133968304D01*
X103776055Y-133880793D01*
X103774251Y-133783128D01*
X103773823Y-133681101D01*
X103774777Y-133580503D01*
X103777116Y-133487127D01*
X103780844Y-133406765D01*
X103785966Y-133345209D01*
X103792484Y-133308250D01*
X103796414Y-133300686D01*
X103818292Y-133293056D01*
X103868109Y-133280642D01*
X103940903Y-133264522D01*
X104031711Y-133245773D01*
X104135569Y-133225471D01*
X104192154Y-133214830D01*
X104299514Y-133194760D01*
X104395254Y-133176580D01*
X104474694Y-133161199D01*
X104533154Y-133149531D01*
X104565955Y-133142488D01*
X104571354Y-133140926D01*
X104580478Y-133123322D01*
X104599765Y-133080918D01*
X104626645Y-133019772D01*
X104658546Y-132945943D01*
X104692898Y-132865489D01*
X104727129Y-132784468D01*
X104758669Y-132708937D01*
X104784946Y-132644955D01*
X104803389Y-132598580D01*
X104811429Y-132575869D01*
X104811578Y-132574876D01*
X104802465Y-132556961D01*
X104776914Y-132515733D01*
X104737612Y-132455291D01*
X104687243Y-132379731D01*
X104628494Y-132293152D01*
X104594342Y-132243421D01*
X104532110Y-132152236D01*
X104476836Y-132069449D01*
X104431218Y-131999249D01*
X104397952Y-131945824D01*
X104379736Y-131913361D01*
X104377105Y-131906083D01*
X104388414Y-131889145D01*
X104419681Y-131852978D01*
X104466910Y-131801635D01*
X104526108Y-131739167D01*
X104593281Y-131669626D01*
X104664434Y-131597065D01*
X104735574Y-131525535D01*
X104802707Y-131459087D01*
X104861839Y-131401774D01*
X104908975Y-131357647D01*
X104940123Y-131330759D01*
X104950543Y-131324342D01*
X104967509Y-131333365D01*
X105008089Y-131358715D01*
X105068337Y-131397810D01*
X105144307Y-131448071D01*
X105232054Y-131506917D01*
X105298244Y-131551748D01*
X105632668Y-131779154D01*
X105911433Y-131664238D01*
X106190197Y-131549322D01*
X106265746Y-131148576D01*
X106341294Y-130747829D01*
X107175415Y-130747829D01*
X107250964Y-131148576D01*
D12*
G04 #@! TO.C,D10*
X132750000Y-125220000D02*
X133750000Y-125220000D01*
G04 #@! TO.C,D11*
X132750000Y-120470000D02*
X133750000Y-120470000D01*
G04 #@! TO.C,D12*
X132750000Y-115720000D02*
X133750000Y-115720000D01*
G04 #@! TO.C,D13*
X132750000Y-110970000D02*
X133750000Y-110970000D01*
G04 #@! TO.C,D29*
X112720000Y-125750000D02*
X112720000Y-124750000D01*
G04 #@! TD*
G04 #@! TO.C,SYM2*
X110757142Y-133128571D02*
X110614285Y-133057142D01*
X110542857Y-132985714D01*
X110471428Y-132842857D01*
X110471428Y-132414285D01*
X110542857Y-132271428D01*
X110614285Y-132200000D01*
X110757142Y-132128571D01*
X110971428Y-132128571D01*
X111114285Y-132200000D01*
X111185714Y-132271428D01*
X111257142Y-132414285D01*
X111257142Y-132842857D01*
X111185714Y-132985714D01*
X111114285Y-133057142D01*
X110971428Y-133128571D01*
X110757142Y-133128571D01*
X111900000Y-132128571D02*
X111900000Y-133628571D01*
X111900000Y-132200000D02*
X112042857Y-132128571D01*
X112328571Y-132128571D01*
X112471428Y-132200000D01*
X112542857Y-132271428D01*
X112614285Y-132414285D01*
X112614285Y-132842857D01*
X112542857Y-132985714D01*
X112471428Y-133057142D01*
X112328571Y-133128571D01*
X112042857Y-133128571D01*
X111900000Y-133057142D01*
X113828571Y-133057142D02*
X113685714Y-133128571D01*
X113400000Y-133128571D01*
X113257142Y-133057142D01*
X113185714Y-132914285D01*
X113185714Y-132342857D01*
X113257142Y-132200000D01*
X113400000Y-132128571D01*
X113685714Y-132128571D01*
X113828571Y-132200000D01*
X113900000Y-132342857D01*
X113900000Y-132485714D01*
X113185714Y-132628571D01*
X114542857Y-132128571D02*
X114542857Y-133128571D01*
X114542857Y-132271428D02*
X114614285Y-132200000D01*
X114757142Y-132128571D01*
X114971428Y-132128571D01*
X115114285Y-132200000D01*
X115185714Y-132342857D01*
X115185714Y-133128571D01*
X116971428Y-133057142D02*
X117114285Y-133128571D01*
X117400000Y-133128571D01*
X117542857Y-133057142D01*
X117614285Y-132914285D01*
X117614285Y-132842857D01*
X117542857Y-132700000D01*
X117400000Y-132628571D01*
X117185714Y-132628571D01*
X117042857Y-132557142D01*
X116971428Y-132414285D01*
X116971428Y-132342857D01*
X117042857Y-132200000D01*
X117185714Y-132128571D01*
X117400000Y-132128571D01*
X117542857Y-132200000D01*
X118471428Y-133128571D02*
X118328571Y-133057142D01*
X118257142Y-132985714D01*
X118185714Y-132842857D01*
X118185714Y-132414285D01*
X118257142Y-132271428D01*
X118328571Y-132200000D01*
X118471428Y-132128571D01*
X118685714Y-132128571D01*
X118828571Y-132200000D01*
X118900000Y-132271428D01*
X118971428Y-132414285D01*
X118971428Y-132842857D01*
X118900000Y-132985714D01*
X118828571Y-133057142D01*
X118685714Y-133128571D01*
X118471428Y-133128571D01*
X120257142Y-132128571D02*
X120257142Y-133128571D01*
X119614285Y-132128571D02*
X119614285Y-132914285D01*
X119685714Y-133057142D01*
X119828571Y-133128571D01*
X120042857Y-133128571D01*
X120185714Y-133057142D01*
X120257142Y-132985714D01*
X120971428Y-133128571D02*
X120971428Y-132128571D01*
X120971428Y-132414285D02*
X121042857Y-132271428D01*
X121114285Y-132200000D01*
X121257142Y-132128571D01*
X121400000Y-132128571D01*
X122542857Y-133057142D02*
X122400000Y-133128571D01*
X122114285Y-133128571D01*
X121971428Y-133057142D01*
X121900000Y-132985714D01*
X121828571Y-132842857D01*
X121828571Y-132414285D01*
X121900000Y-132271428D01*
X121971428Y-132200000D01*
X122114285Y-132128571D01*
X122400000Y-132128571D01*
X122542857Y-132200000D01*
X123757142Y-133057142D02*
X123614285Y-133128571D01*
X123328571Y-133128571D01*
X123185714Y-133057142D01*
X123114285Y-132914285D01*
X123114285Y-132342857D01*
X123185714Y-132200000D01*
X123328571Y-132128571D01*
X123614285Y-132128571D01*
X123757142Y-132200000D01*
X123828571Y-132342857D01*
X123828571Y-132485714D01*
X123114285Y-132628571D01*
X112485714Y-135428571D02*
X112485714Y-133928571D01*
X113128571Y-135428571D02*
X113128571Y-134642857D01*
X113057142Y-134500000D01*
X112914285Y-134428571D01*
X112700000Y-134428571D01*
X112557142Y-134500000D01*
X112485714Y-134571428D01*
X114485714Y-135428571D02*
X114485714Y-134642857D01*
X114414285Y-134500000D01*
X114271428Y-134428571D01*
X113985714Y-134428571D01*
X113842857Y-134500000D01*
X114485714Y-135357142D02*
X114342857Y-135428571D01*
X113985714Y-135428571D01*
X113842857Y-135357142D01*
X113771428Y-135214285D01*
X113771428Y-135071428D01*
X113842857Y-134928571D01*
X113985714Y-134857142D01*
X114342857Y-134857142D01*
X114485714Y-134785714D01*
X115200000Y-135428571D02*
X115200000Y-134428571D01*
X115200000Y-134714285D02*
X115271428Y-134571428D01*
X115342857Y-134500000D01*
X115485714Y-134428571D01*
X115628571Y-134428571D01*
X116771428Y-135428571D02*
X116771428Y-133928571D01*
X116771428Y-135357142D02*
X116628571Y-135428571D01*
X116342857Y-135428571D01*
X116200000Y-135357142D01*
X116128571Y-135285714D01*
X116057142Y-135142857D01*
X116057142Y-134714285D01*
X116128571Y-134571428D01*
X116200000Y-134500000D01*
X116342857Y-134428571D01*
X116628571Y-134428571D01*
X116771428Y-134500000D01*
X117342857Y-134428571D02*
X117628571Y-135428571D01*
X117914285Y-134714285D01*
X118200000Y-135428571D01*
X118485714Y-134428571D01*
X119700000Y-135428571D02*
X119700000Y-134642857D01*
X119628571Y-134500000D01*
X119485714Y-134428571D01*
X119200000Y-134428571D01*
X119057142Y-134500000D01*
X119700000Y-135357142D02*
X119557142Y-135428571D01*
X119200000Y-135428571D01*
X119057142Y-135357142D01*
X118985714Y-135214285D01*
X118985714Y-135071428D01*
X119057142Y-134928571D01*
X119200000Y-134857142D01*
X119557142Y-134857142D01*
X119700000Y-134785714D01*
X120414285Y-135428571D02*
X120414285Y-134428571D01*
X120414285Y-134714285D02*
X120485714Y-134571428D01*
X120557142Y-134500000D01*
X120700000Y-134428571D01*
X120842857Y-134428571D01*
X121914285Y-135357142D02*
X121771428Y-135428571D01*
X121485714Y-135428571D01*
X121342857Y-135357142D01*
X121271428Y-135214285D01*
X121271428Y-134642857D01*
X121342857Y-134500000D01*
X121485714Y-134428571D01*
X121771428Y-134428571D01*
X121914285Y-134500000D01*
X121985714Y-134642857D01*
X121985714Y-134785714D01*
X121271428Y-134928571D01*
G04 #@! TD*
M02*
